<?xml version="1.0" encoding="UTF-8" standalone="no"?>
<svg
   data-name="Layer 1"
   width="630.55792"
   height="509.62613"
   viewBox="0 0 630.55794 509.62613"
   version="1.1"
   id="svg13617"
   sodipodi:docname="undraw_all_the_data_re_hh4w.svg"
   inkscape:version="1.1.2 (0a00cf5339, 2022-02-04, custom)"
   xmlns:inkscape="http://www.inkscape.org/namespaces/inkscape"
   xmlns:sodipodi="http://sodipodi.sourceforge.net/DTD/sodipodi-0.dtd"
   xmlns="http://www.w3.org/2000/svg"
   xmlns:svg="http://www.w3.org/2000/svg">
  <defs
     id="defs13621" />
  <sodipodi:namedview
     id="namedview13619"
     pagecolor="#ffffff"
     bordercolor="#666666"
     borderopacity="1.0"
     inkscape:pageshadow="2"
     inkscape:pageopacity="0.0"
     inkscape:pagecheckerboard="0"
     showgrid="false"
     inkscape:zoom="1.3056027"
     inkscape:cx="420.87841"
     inkscape:cy="294.5"
     inkscape:window-width="1920"
     inkscape:window-height="991"
     inkscape:window-x="-9"
     inkscape:window-y="-9"
     inkscape:window-maximized="1"
     inkscape:current-layer="svg13617" />
  <path
     d="M 381.61176,238.72516 H 0 V 0 h 381.61176 z"
     fill="#ffffff"
     id="path13557" />
  <path
     d="M 381.61176,238.72516 H 0 V 0 H 381.61176 Z M 1.74252,236.98264 H 379.86924 V 1.74252 H 1.74252 Z"
     fill="#3f3d56"
     id="path13559" />
  <path
     d="M 296.70287,509.62613 H 78.887941 V 270.90097 H 296.70287 Z"
     fill="#ffffff"
     id="path13561" />
  <path
     d="M 296.70287,509.62613 H 78.887941 V 270.90097 H 296.70287 Z M 80.630461,507.88361 H 294.96035 V 272.64348 H 80.630461 Z"
     fill="#3f3d56"
     id="path13563" />
  <rect
     x="221.77455"
     y="487.07913"
     width="45.305511"
     height="1.8367"
     fill="#3f3d56"
     id="rect13565" />
  <rect
     x="221.77455"
     y="492.5892"
     width="45.305511"
     height="1.8367"
     fill="#3f3d56"
     id="rect13567" />
  <rect
     x="221.77455"
     y="498.0994"
     width="45.305511"
     height="1.8367"
     fill="#3f3d56"
     id="rect13569" />
  <path
     d="m 187.79543,313.59248 v 19.16772 a 57.50315,57.50315 0 0 1 40.66088,98.164 l 13.55361,13.55361 A 76.67086,76.67086 0 0 0 187.79543,313.59248 Z"
     fill="#e6e6e6"
     id="path13571" />
  <path
     d="m 242.00992,444.47782 -13.55361,-13.55361 a 57.48875,57.48875 0 0 1 -75.4511,5.11572 l -11.60149,15.26513 a 76.66891,76.66891 0 0 0 100.6062,-6.82724 z"
     fill="#575a89"
     id="path13573"
     style="fill:#ffffff" />
  <path
     d="m 130.29229,390.26333 a 57.50312,57.50312 0 0 1 57.50314,-57.50314 v -19.16771 a 76.6701,76.6701 0 0 0 -46.39171,137.71259 l 11.60152,-15.26513 a 57.403,57.403 0 0 1 -22.71295,-45.77661 z"
     fill="#f50404"
     id="path13575" />
  <path
     d="M 630.55792,428.9138 H 412.74299 V 190.18821 h 217.81493 z"
     fill="#ffffff"
     id="path13577" />
  <path
     d="M 630.55792,428.9138 H 412.74299 V 190.18821 H 630.55792 Z M 414.48551,427.1713 H 628.8154 V 191.93073 H 414.48551 Z"
     fill="#3f3d56"
     id="path13579" />
  <rect
     x="444.10834"
     y="336.12442"
     width="39.206692"
     height="62.730701"
     fill="#575a89"
     id="rect13581"
     style="fill:#ffffff" />
  <rect
     x="500.74023"
     y="293.43268"
     width="39.206692"
     height="105.42243"
     fill="#e6e6e6"
     id="rect13583" />
  <rect
     x="557.37213"
     y="243.77089"
     width="39.206692"
     height="155.08423"
     fill="#f50404"
     id="rect13585" />
  <polygon
     points="460.461,392.939 460.461,210.845 462.203,210.845 462.203,391.196 636.455,391.196 636.455,392.939 "
     fill="#3f3d56"
     id="polygon13587"
     transform="translate(-26.807542,7.6592978)" />
  <path
     d="M 328.61499,188.7986 H 52.99677 a 0.86259,0.86259 0 0 1 -0.86256,-0.86255 V 55.83223 a 0.86256,0.86256 0 0 1 1.72512,0 v 131.24126 h 274.75566 a 0.86256,0.86256 0 1 1 0,1.72511 z"
     fill="#3f3d56"
     id="path13593" />
  <path
     d="M 111.88438,179.31045 H 86.81583 a 2.56337,2.56337 0 0 1 -2.56052,-2.5603 V 142.193 a 2.56337,2.56337 0 0 1 2.56052,-2.5603 h 25.06855 a 2.56337,2.56337 0 0 1 2.56051,2.5603 v 34.55712 a 2.56337,2.56337 0 0 1 -2.56051,2.56033 z"
     fill="#f50404"
     id="path13595" />
  <path
     d="m 157.60002,179.31045 h -25.06855 a 2.56336,2.56336 0 0 1 -2.56051,-2.5603 v -67.33438 a 2.56337,2.56337 0 0 1 2.56051,-2.5603 h 25.06855 a 2.56337,2.56337 0 0 1 2.56051,2.5603 v 67.33438 a 2.56336,2.56336 0 0 1 -2.56051,2.5603 z"
     fill="#f50404"
     id="path13597"
     style="fill:#ff5555" />
  <path
     d="m 203.31566,179.31045 h -25.06854 a 2.56337,2.56337 0 0 1 -2.56051,-2.5603 V 142.193 a 2.56337,2.56337 0 0 1 2.56051,-2.5603 h 25.06855 a 2.56337,2.56337 0 0 1 2.56052,2.5603 v 34.55712 a 2.56337,2.56337 0 0 1 -2.56053,2.56033 z"
     fill="#f50404"
     id="path13599" />
  <path
     d="m 249.03131,179.31045 h -25.06856 a 2.50734,2.50734 0 0 1 -2.56051,-2.44431 V 96.3614 a 2.50734,2.50734 0 0 1 2.56051,-2.44432 h 25.06856 a 2.50734,2.50734 0 0 1 2.56051,2.44432 v 80.50474 a 2.50734,2.50734 0 0 1 -2.56051,2.44431 z"
     fill="#f50404"
     id="path13601"
     style="fill:#ff5555" />
  <path
     d="M 294.74695,179.31045 H 269.6784 a 2.56336,2.56336 0 0 1 -2.56051,-2.5603 V 73.18828 a 2.56337,2.56337 0 0 1 2.56051,-2.5603 h 25.06855 a 2.56337,2.56337 0 0 1 2.56051,2.5603 v 103.56187 a 2.56337,2.56337 0 0 1 -2.56051,2.5603 z"
     fill="#f50404"
     id="path13603"
     style="fill:#ff2a2a" />
  <circle
     cx="99.350098"
     cy="124.10666"
     r="5.1753602"
     fill="#3f3d56"
     id="circle13605" />
  <circle
     cx="145.06573"
     cy="90.46685"
     r="5.1753602"
     fill="#3f3d56"
     id="circle13607" />
  <circle
     cx="190.78139"
     cy="124.10666"
     r="5.1753602"
     fill="#3f3d56"
     id="circle13609" />
  <circle
     cx="236.49702"
     cy="74.078217"
     r="5.1753602"
     fill="#3f3d56"
     id="circle13611" />
  <circle
     cx="282.21268"
     cy="55.10191"
     r="5.1753602"
     fill="#3f3d56"
     id="circle13613" />
  <polygon
     points="235.993,73.352 236.175,73.278 281.89,54.858 282.535,56.459 237.001,74.805 190.89,125.266 145.066,90.943 99.867,124.797 98.833,123.416 145.066,88.787 190.672,122.947 "
     fill="#3f3d56"
     id="polygon13615" />
</svg>
