<?xml version="1.0" encoding="UTF-8" standalone="no"?>
<svg
   data-name="Layer 1"
   width="370.78464"
   height="290.30453"
   viewBox="0 0 370.78464 290.30455"
   version="1.1"
   id="svg946"
   sodipodi:docname="undraw_logo_design_re_gfu6.svg"
   inkscape:version="1.1.2 (0a00cf5339, 2022-02-04, custom)"
   xmlns:inkscape="http://www.inkscape.org/namespaces/inkscape"
   xmlns:sodipodi="http://sodipodi.sourceforge.net/DTD/sodipodi-0.dtd"
   xmlns="http://www.w3.org/2000/svg"
   xmlns:svg="http://www.w3.org/2000/svg">
  <defs
     id="defs950" />
  <sodipodi:namedview
     id="namedview948"
     pagecolor="#ffffff"
     bordercolor="#666666"
     borderopacity="1.0"
     inkscape:pageshadow="2"
     inkscape:pageopacity="0.0"
     inkscape:pagecheckerboard="0"
     showgrid="false"
     inkscape:zoom="1.4720463"
     inkscape:cx="171.52993"
     inkscape:cy="207.53423"
     inkscape:window-width="1920"
     inkscape:window-height="991"
     inkscape:window-x="-9"
     inkscape:window-y="-9"
     inkscape:window-maximized="1"
     inkscape:current-layer="svg946" />
  <rect
     y="216.10472"
     width="370.78464"
     height="1.8549763"
     fill="#e6e6e6"
     id="rect916"
     x="0"
     style="stroke-width:0.88812" />
  <rect
     y="143.76065"
     width="370.78464"
     height="1.8549763"
     fill="#e6e6e6"
     id="rect918"
     x="0"
     style="stroke-width:0.88812" />
  <rect
     y="71.416588"
     width="370.78464"
     height="1.8549763"
     fill="#e6e6e6"
     id="rect920"
     x="0"
     style="stroke-width:0.88812" />
  <rect
     x="295.77734"
     width="1.700847"
     height="289.37628"
     fill="#e6e6e6"
     id="rect922"
     y="0"
     style="stroke-width:0.88812" />
  <rect
     x="221.62047"
     width="1.700847"
     height="289.37628"
     fill="#e6e6e6"
     id="rect924"
     y="0"
     style="stroke-width:0.88812" />
  <rect
     x="147.46346"
     width="1.700847"
     height="289.37628"
     fill="#e6e6e6"
     id="rect926"
     y="0"
     style="stroke-width:0.88812" />
  <rect
     x="73.306465"
     width="1.700847"
     height="289.37628"
     fill="#e6e6e6"
     id="rect928"
     y="0"
     style="stroke-width:0.88812" />
  <rect
     x="73.986847"
     y="72.34407"
     width="148.82413"
     height="72.34407"
     fill="#fd0007"
     id="rect930"
     style="stroke-width:0.88812;fill:#ff0000" />
  <path
     d="M 148.75716,139.18168"
     fill="#fd0007"
     id="path932"
     style="stroke-width:0.88812" />
  <polygon
     points="178,153 87,150 87,234 "
     fill="#fd0007"
     id="polygon934"
     transform="scale(0.85042353,0.9274881)"
     style="fill:#ff0000" />
  <path
     d="m 222.81097,141.90571 v 2.78246 l -0.96961,0.93676 -1.9558,1.89209 c -38.03944,1.25211 -68.76514,30.96881 -70.15165,67.81791 l -1.74319,1.68803 -0.017,0.01 v -77.909 z"
     fill="#fd0007"
     id="path936"
     style="stroke-width:0.88812;fill:#ff0000" />
  <path
     d="m 222.38576,145.61566 c -0.17859,0 -0.36584,0 -0.5444,0.01 -40.4628,0.27824 -73.34903,32.10963 -73.85064,71.39803 -0.017,0.31534 -0.017,0.62142 -0.017,0.93676 0,39.89128 33.37912,72.34408 74.41206,72.34408 41.03294,0 74.41206,-32.4528 74.41206,-72.34408 0,-39.89126 -33.37914,-72.34407 -74.41207,-72.34407 z m 0,142.83317 c -40.08909,0 -72.71122,-31.61807 -72.71122,-70.4891 0,-0.88111 0.017,-1.75295 0.0594,-2.6248 1.38651,-36.8491 32.11222,-66.5658 70.15165,-67.81791 0.82508,-0.0371 1.65807,-0.0463 2.5002,-0.0463 40.08907,0 72.7112,31.61806 72.7112,70.48909 0,38.87103 -32.62213,70.4891 -72.7112,70.4891 z"
     fill="#e6e6e6"
     id="path938"
     style="stroke-width:0.88812" />
  <path
     d="m 181.56542,217.04716 -4.25212,-0.0258 c 0.002,-0.41256 0.6829,-41.25511 44.18051,-44.08784 l 0.25329,4.62928 c -39.4495,2.56916 -40.17036,37.97855 -40.18168,39.48437 z"
     fill="#e6e6e6"
     id="path940"
     style="stroke-width:0.88812" />
  <path
     d="m 265.31511,216.10476 a 36.173658,39.45168 0 0 0 -11.88892,-27.92667 45.44381,49.561885 0 0 0 -30.95534,-12.93846 h -0.0851 c -23.36091,0 -42.42775,18.24368 -42.92938,40.86513 -0.017,0.30607 -0.017,0.62141 -0.017,0.92749 0,11.83474 5.0772,22.52867 13.22391,30.13408 a 45.619482,49.753476 0 0 0 29.72248,11.65853 h 0.0851 c 23.64162,-0.0463 42.86127,-18.77236 42.86127,-41.79261 2e-5,-0.30608 2e-5,-0.62142 -0.017,-0.92749 z"
     fill="#e6e6e6"
     id="path942"
     style="stroke-width:0.88812" />
  <path
     d="m 253.42621,188.17809 -1.27563,1.23355 -58.21167,56.52113 -1.27563,1.23356 c -8.14671,-7.60541 -13.22392,-18.29934 -13.22392,-30.13408 0,-0.30608 0,-0.62142 0.017,-0.92749 0.50161,-22.62145 19.56845,-40.86513 42.92938,-40.86513 h 0.0851 a 45.44381,49.561885 0 0 1 30.95534,12.93846 z"
     fill="#fd0007"
     id="path944"
     style="stroke-width:0.88812;fill:#f20000;fill-opacity:1" />
</svg>
