<?xml version="1.0" encoding="UTF-8" standalone="no"?>
<svg
   width="900.00079"
   height="673.97882"
   version="1.1"
   id="svg923"
   sodipodi:docname="CDN-Netriches-Aruba-Web-Solutions.svg"
   inkscape:version="1.1.2 (0a00cf5339, 2022-02-04, custom)"
   xmlns:inkscape="http://www.inkscape.org/namespaces/inkscape"
   xmlns:sodipodi="http://sodipodi.sourceforge.net/DTD/sodipodi-0.dtd"
   xmlns="http://www.w3.org/2000/svg"
   xmlns:svg="http://www.w3.org/2000/svg">
  <defs
     id="defs927" />
  <sodipodi:namedview
     id="namedview925"
     pagecolor="#ffffff"
     bordercolor="#666666"
     borderopacity="1.0"
     inkscape:pageshadow="2"
     inkscape:pageopacity="0.0"
     inkscape:pagecheckerboard="0"
     showgrid="false"
     inkscape:zoom="0.5"
     inkscape:cx="379"
     inkscape:cy="310"
     inkscape:window-width="1920"
     inkscape:window-height="991"
     inkscape:window-x="-9"
     inkscape:window-y="-9"
     inkscape:window-maximized="1"
     inkscape:current-layer="svg923" />
  <path
     d="M 829.13889,163.83489 C 726.99089,20.529887 511.20789,-37.601113 298.99189,25.006887 186.79989,58.105887 78.625892,124.42489 25.016892,252.83989 c -95.831,229.555 105.377998,302.87 236.946998,326.236 63.619,11.299 123.538,30.278 178.293,56.118 98.508,46.489 272.874,87.683 404.357,-105.965 95.299,-140.356 52.567,-269.939 -15.474,-365.395 z"
     fill="#f2f2f2"
     id="path897"
     style="fill:#ffffff" />
  <g
     fill="#1a1a1a"
     id="g903"
     style="fill:#333333"
     transform="translate(-141.42111,-98.995113)">
    <path
       d="m 378.339,291.182 a 26.302,26.517 0 0 0 -1.719,-6.635 2.979,3.004 0 0 0 -1.515,-1.881 3.121,3.146 0 0 0 -1.503,-0.017 l -7.716,1.19 a 2.958,2.982 0 0 0 -1.76,0.69 c -1.005,1.066 -0.015,2.781 -0.046,4.251 -0.035,1.653 -1.491,2.995 -3.071,3.439 a 11.609,11.704 0 0 1 -4.88,-0.061 l -10.789,-1.69 a 17.789,17.934 0 0 0 8.162,-5.491 c 1.42,-1.696 2.175,-4.862 0.123,-5.665 a 5.037,5.078 0 0 0 -1.874,-0.152 c -4.888,0.038 -8.735,-4.076 -13.311,-5.809 a 14.718,14.838 0 0 0 -16.564,4.978 l 5.747,0.279 a 2.551,2.572 0 0 1 1.531,0.412 c 1.26,1.043 -0.306,3.047 -0.129,4.681 0.231,2.123 3.026,2.576 5.133,2.79 2.107,0.214 4.781,1.941 3.767,3.816 -10.591,3.678 -21.369,-7.19 -32.493,-5.852 -2.815,0.339 -5.474,1.454 -8.222,2.155 -16.79,4.283 -34.149,-7.144 -51.301,-4.724 a 65.142,65.674 0 0 0 -11.199,2.978 c -2.334,0.773 -4.769,1.608 -6.466,3.4 -1.697,1.792 -2.342,4.857 -0.735,6.731 a 37.577,37.884 0 0 1 -13.169,-1.262 7.378,7.438 0 0 1 3.793,6.555 78.132,78.771 0 0 0 -20.016,6.153 33.712,33.988 0 0 0 4.143,5.564 l -8.755,5.67 c 2.958,0.751 4.487,4.817 2.767,7.357 3.067,-1.375 4.968,-4.934 8.247,-5.655 2.149,-0.473 4.335,0.413 6.373,1.246 2.038,0.833 4.278,1.64 6.388,1.015 2.11,-0.625 3.666,-3.383 2.326,-5.14 a 109.168,110.06 0 0 1 27.73,-4.368 3.478,3.506 0 0 1 2.1,0.402 c 1.223,0.855 0.901,2.702 0.835,4.201 -0.066,1.499 1.093,3.468 2.421,2.793 -1.563,1.366 -0.227,3.939 1.273,5.376 1.5,1.437 3.307,3.42 2.389,5.289 -0.24,0.488 -0.646,0.878 -0.877,1.37 -0.68,1.453 0.4,3.147 1.674,4.112 1.274,0.965 2.835,1.639 3.721,2.975 0.886,1.336 0.483,3.675 -1.1,3.862 l -4.499,-5.76 a 11.714,11.809 0 0 0 -3.039,5.807 c 4.771,3.932 5.489,11.936 1.494,16.667 -2.041,2.418 -4.944,3.887 -7.478,5.773 -2.534,1.886 -4.878,4.571 -4.872,7.746 0.011,5.485 -0.434,10.581 1.605,15.667 a 239.391,241.347 0 0 0 12.996,27.336 c 1.286,2.318 2.947,4.859 5.552,5.258 q -4.937,-12.118 -8.889,-24.613 c 1.716,0.007 3.699,0.144 4.705,1.546 0.833,1.161 0.654,2.739 0.913,4.147 a 12.743,12.847 0 0 0 1.625,3.851 l 15.719,28.228 c 1.303,2.34 2.798,4.852 5.288,5.8 1.592,0.606 3.434,0.492 4.9,1.364 1.149,0.684 1.922,1.897 3.093,2.541 3.311,1.821 7.916,-1.671 11.01,0.503 0.885,0.622 1.448,1.609 2.263,2.321 2.858,2.495 7.546,0.826 10.845,2.687 2.126,1.2 3.228,3.599 4.362,5.773 2.841,5.446 7.437,10.781 13.526,11.215 1.912,0.136 3.866,-0.229 5.735,0.2 1.869,0.429 3.71,2.074 3.409,3.983 -0.514,3.273 1.089,6.856 0.659,10.142 -0.785,5.984 -9.204,8.613 -9.927,14.605 -0.158,1.312 0.089,2.666 -0.22,3.95 -0.38,1.574 -1.552,2.855 -1.969,4.42 -0.789,2.965 1.317,5.915 3.632,7.909 2.315,1.994 5.075,3.714 6.34,6.506 1.337,2.951 0.68,6.392 1.115,9.606 0.95,7.018 6.962,12.22 13.149,15.575 1.885,1.022 3.909,2.012 5.13,3.785 1.593,2.314 1.434,5.365 1.966,8.13 1.302,6.772 6.957,12.352 7.118,19.248 0.114,4.902 -2.588,9.348 -4.203,13.973 a 32.323,32.587 0 0 0 2.639,27.026 c 1.208,2.056 2.652,3.994 3.506,6.223 1.525,3.977 1.03,8.499 2.436,12.52 1.858,5.317 6.965,9.708 6.476,15.324 2.318,4.854 7.438,7.239 12.586,8.683 l 9.226,2.589 c 1.767,0.496 3.613,0.995 5.411,0.636 1.798,-0.359 3.516,-1.865 3.469,-3.713 -4.524,-1.029 -9.194,-2.123 -12.923,-4.902 -3.729,-2.779 -6.284,-7.729 -4.869,-12.182 0.656,-2.065 2.052,-4.449 0.725,-6.155 -0.76,-0.977 -2.149,-1.232 -3.006,-2.123 -1.337,-1.39 -0.878,-3.725 0.084,-5.402 0.962,-1.677 2.35,-3.174 2.738,-5.071 a 5.248,5.291 0 0 0 -2.46,-5.504 13.045,13.152 0 0 0 4.567,-2.954 c 1.201,-1.383 1.756,-3.514 0.811,-5.086 2.805,0.359 6.117,0.534 7.959,-1.629 1.471,-1.728 1.37,-4.311 0.788,-6.51 -0.582,-2.199 -1.563,-4.337 -1.594,-6.613 a 119.53,120.507 0 0 0 19.393,-0.663 12.575,12.677 0 0 0 -5.896,-7.444 c 2.915,-0.497 5.57,-4.015 6.491,-6.847 0.921,-2.832 0.686,-5.917 0.117,-8.841 a 4.706,4.744 0 0 1 -0.087,-2.316 c 0.328,-1.055 1.356,-1.698 2.306,-2.249 l 14.468,-8.377 a 8.427,8.496 0 0 0 2.314,-1.722 c 1.516,-1.795 1.291,-4.505 0.515,-6.729 -0.776,-2.224 -2.019,-4.315 -2.318,-6.653 -0.894,-6.993 6.531,-12.01 9.036,-18.592 0.983,-2.583 1.184,-5.391 1.374,-8.151 0.204,-2.965 0.22,-6.408 -2.038,-8.318 -2.164,-1.831 -5.546,-1.423 -7.811,-3.126 -2.076,-1.562 -2.793,-4.595 -5.061,-5.856 -2.06,-1.146 -4.643,-0.417 -6.934,-0.956 -4.034,-0.949 -6.572,-5.636 -10.692,-6.07 -2.324,-0.245 -4.955,0.901 -6.86,-0.464 -1.679,-1.203 -1.746,-3.62 -2.065,-5.671 a 15.708,15.836 0 0 0 -12.678,-12.823 c -2.397,-0.387 -5.005,-0.24 -7.044,-1.568 -2.065,-1.345 -3.011,-3.862 -4.633,-5.724 -2.614,-3.001 -6.73,-4.067 -10.586,-4.981 l -15.685,-3.717 c -2.784,-0.66 -6.373,-1.01 -7.868,1.449 a 11.273,11.365 0 0 0 -0.931,2.951 9.065,9.139 0 0 1 -8.524,6.469 10.081,10.163 0 0 0 -5.945,-4.637 c -1.59,-0.447 -3.293,-0.497 -4.81,-1.154 a 6.756,6.811 0 0 1 -2.932,-9.449 8.41,8.479 0 0 0 -1.437,-10.199 c -2.667,-2.414 -6.526,-2.998 -10.102,-2.756 -0.937,-2.061 0.63,-4.386 2.317,-5.883 1.687,-1.497 3.737,-2.97 4.105,-5.206 0.578,-3.518 -3.874,-6.189 -7.254,-5.14 -3.38,1.049 -5.538,4.359 -6.964,7.622 -0.818,1.872 -1.514,3.843 -2.805,5.422 -1.291,1.579 -3.369,2.709 -5.335,2.202 -2.783,-0.717 -3.858,-4.051 -4.474,-6.88 -0.826,-3.795 -1.658,-7.644 -1.485,-11.526 0.173,-3.882 1.471,-7.868 4.311,-10.496 4.627,-4.282 11.725,-3.863 17.969,-3.179 -1.475,-1.676 -1.111,-4.5 0.468,-6.077 a 6.853,6.909 0 0 1 6.212,-1.539 8.56,8.63 0 0 1 4.812,2.901 c 1.774,2.181 2.279,5.126 3.62,7.602 1.341,2.476 4.357,4.587 6.826,3.259 2.132,-1.147 2.471,-4.128 1.94,-6.505 -0.531,-2.377 -1.658,-4.688 -1.465,-7.117 0.367,-4.634 5.132,-7.424 9.337,-9.333 4.205,-1.909 9.02,-4.475 9.686,-9.076 a 8.207,8.275 0 0 1 0.499,-2.638 5.132,5.174 0 0 1 1.883,-1.785 c 12.272,-8.177 24.748,-16.453 38.775,-20.921 0.73,-0.232 0.815,0.026 1.559,-0.156 1.041,-0.606 0.351,-2.284 -0.647,-2.96 -0.998,-0.676 -2.332,-1.194 -2.585,-2.379 -0.186,-0.871 0.323,-1.726 0.455,-2.607 0.325,-2.165 -2.244,-4.163 -4.238,-3.298 -1.127,-1.504 1.103,-3.252 2.905,-3.753 a 78.901,79.545 0 0 1 16.576,-2.73 2.986,3.01 0 0 1 1.886,0.323 c 0.942,0.658 0.821,2.166 0.154,3.104 -0.667,0.938 -1.705,1.528 -2.537,2.322 a 6.924,6.981 0 0 0 -1.796,7.021 c 2.927,1.501 6.108,3.046 9.35,2.517 3.242,-0.529 6.118,-4.2 4.595,-7.133 -1.419,-2.731 -5.68,-3.347 -6.413,-6.339 -0.858,-3.504 4.062,-6.62 2.954,-10.052 -0.485,-1.503 -1.971,-2.388 -3.112,-3.473 a 9.348,9.425 0 0 1 -2.046,-10.45 11.794,11.89 0 0 1 -10.344,-3.263 c -2.474,-2.517 -4.448,-6.488 -7.961,-6.376 -3.224,0.103 -6.001,3.895 -9.016,2.738 -0.742,-0.285 -1.524,-0.864 -2.242,-0.524 a 1.853,1.868 0 0 0 -0.836,1.4 c -0.766,3.693 0.552,7.9 -1.444,11.091 -2.172,3.472 -7.197,3.954 -9.83,7.085 -1.43,1.7 -1.983,3.99 -3.297,5.782 -1.314,1.792 -4.103,2.931 -5.68,1.37 a 7.829,7.893 0 0 0 -2.127,-9.597 20.889,21.06 0 0 0 -4.697,-2.304 27.859,28.087 0 0 1 -5.248,-2.949 5.169,5.211 0 0 1 -1.927,-2.078 4.698,4.736 0 0 1 0.132,-3.286 13.329,13.438 0 0 1 10.607,-8.863 c 2.1,-0.288 4.543,-0.187 5.933,-1.799 0.735,-0.853 1.121,-2.144 2.188,-2.49 a 3.227,3.254 0 0 1 2.02,0.251 l 7.837,2.781 a 5.5,5.545 0 0 0 2.792,0.466 1.893,1.908 0 0 0 1.637,-2.005 c -0.25,-1.312 -2.253,-1.942 -2.071,-3.265 a 2.162,2.18 0 0 1 0.656,-1.112 28.018,28.247 0 0 1 22.222,-8.847 c 0.989,1.638 -0.575,3.577 -1.877,4.975 -1.302,1.398 -2.348,3.896 -0.774,4.972 a 4.316,4.351 0 0 0 2.087,0.474 18.219,18.368 0 0 1 5.554,1.698 q 4.062,1.782 7.968,3.9 c -0.23,-1.731 -0.45,-3.555 0.201,-5.173 0.651,-1.618 2.5,-2.888 4.116,-2.258 1.557,0.607 2.356,2.686 4.014,2.876 2.213,0.254 3.086,-3.042 2.161,-5.084 -0.925,-2.042 -2.754,-3.753 -2.907,-5.993 -0.103,-1.511 0.467,-3.385 -0.73,-4.3 a 3.259,3.286 0 0 0 -1.413,-0.499 l -29.896,-5.546 c -1.775,-0.329 -4.34,-0.077 -4.419,1.741 -0.044,1.015 0.855,2.019 0.457,2.952 -0.425,0.996 -1.821,0.905 -2.838,1.257 -1.578,0.547 -2.37,2.436 -2.218,4.111 a 11.347,11.439 0 0 0 1.873,4.633 c -1.945,-0.82 -4.889,-0.971 -6.833,-1.79 z m -23.854,-25.585 a 9.681,9.76 0 0 0 -10.634,3.211 c -0.492,0.653 -0.906,1.554 -0.494,2.262 0.591,1.014 2.096,0.614 3.206,0.251 a 8.069,8.135 0 0 1 5.064,-0.122 c 1.042,0.361 1.975,0.998 3.021,1.345 a 3.043,3.067 0 0 0 3.102,-0.457 c 0.718,-0.739 0.763,-1.887 0.765,-2.922 a 2.331,2.35 0 0 0 -0.594,-1.931 3.045,3.07 0 0 0 -1.373,-0.41 4.731,4.769 0 0 1 -2.769,-1.631 m 11.486,-2.622 a 2.463,2.483 0 0 0 -2.38,3.497 9.982,10.063 0 0 0 3.98,0.262 3.402,3.429 0 0 0 2.782,-2.571 6.404,6.456 0 0 1 -4.534,-0.873 m 36.319,-5.369 a 45.782,46.157 0 0 0 -10.205,3.495 7.668,7.73 0 0 1 4.897,7.764 4.01,4.043 0 0 0 0.046,1.92 c 0.375,0.916 1.461,1.26 2.416,1.495 a 15.927,16.058 0 0 0 5.299,0.682 5.398,5.442 0 0 0 4.386,-2.702 19.102,19.258 0 0 1 0.912,-2.174 c 2.289,-3.514 9.088,0.735 11.545,-2.662 0.866,-1.196 0.786,-2.998 1.915,-3.946 a 4.302,4.337 0 0 1 1.969,-0.757 138.243,139.373 0 0 1 14.953,-2.147 c 2.378,-0.209 5.478,-1.07 5.498,-3.476 a 41.419,41.757 0 0 0 -26.421,3.583 c -2.945,1.487 -6.841,4.616 -9.678,2.644 -1.062,-0.738 -1.01,-2.726 -2.472,-3.556 -1.495,-0.849 -3.473,-0.504 -5.06,-0.164 z m 29.296,5.524 4.205,0.815 a 5.449,5.494 0 0 0 -5.671,5.953 c 3.938,1.326 8.231,0.036 12.379,0.212 4.148,0.176 8.974,3.164 8.266,7.288 -0.214,1.247 -0.929,2.493 -0.557,3.702 0.26,0.847 1.002,1.449 1.42,2.229 0.872,1.626 0.175,3.683 -0.926,5.161 -1.101,1.478 -2.58,2.658 -3.547,4.229 -2.403,3.907 -1.038,8.958 0.394,13.323 a 11.651,11.746 0 0 0 2.24,4.51 c 2.121,2.274 5.577,2.471 8.673,2.517 2.253,0.033 4.834,-0.079 6.259,-1.839 1.86,-2.298 0.559,-5.882 1.784,-8.579 1.112,-2.449 3.946,-3.5 6.513,-4.245 4.704,-1.365 9.497,-2.526 13.944,-4.588 5.522,-2.56 10.682,-6.551 16.751,-6.88 1.703,-0.092 3.447,0.11 5.088,-0.36 1.641,-0.47 3.198,-1.9 3.074,-3.614 -0.106,-1.465 -1.335,-2.541 -2.296,-3.645 -0.961,-1.104 -1.715,-2.802 -0.832,-3.971 l 15.908,-2.996 c -1.128,-3.098 -2.006,-7.178 0.585,-9.195 0.935,-0.728 2.187,-1.018 2.983,-1.898 1.357,-1.499 0.674,-4.082 -0.892,-5.357 -1.566,-1.275 -3.684,-1.571 -5.69,-1.739 -6.975,-0.584 -13.99,-0.198 -20.979,0.188 q -20.492,1.132 -40.984,2.265 c -2.75,0.152 -5.925,-0.08 -8.448,0.866 -2.135,0.801 -3.654,2.271 -6.096,2.787 -4.508,0.953 -9.47,0.308 -13.549,2.86 z m 75.332,33.509 a 1.692,1.706 0 0 0 -1.224,0.28 1.545,1.558 0 0 0 -0.398,0.952 6.233,6.284 0 0 0 0.905,4.498 4.369,4.404 0 0 0 3.999,1.933 c 1.893,-0.243 3.289,-1.872 5.03,-2.667 2.683,-1.224 14.077,-3.131 6.195,-7.424 -2.716,-1.479 -4.471,-0.173 -6.612,0.801 a 15.045,15.168 0 0 1 -7.894,1.628 z m 69.033,-35.933 a 4.5,4.537 0 0 0 -2.19,1.921 1.923,1.939 0 0 0 0.721,2.572 2.87,2.894 0 0 0 1.074,0.172 l 3.742,0.113 c 1.59,0.048 3.575,0.389 4.003,1.934 0.317,1.147 -0.393,2.621 0.464,3.44 a 2.413,2.433 0 0 0 1.273,0.501 8.675,8.746 0 0 0 3.77,0.123 c 2.723,-0.736 1.292,-2.412 2.15,-3.903 1.312,-2.283 1.085,-0.901 3.397,-2.209 1.707,-0.966 3.914,-2.719 2.489,-5.181 -2.478,-4.282 -17.235,-1.321 -20.892,0.519 z m 73.859,-2.153 -2.173,0.292 c -4.9,0.659 -9.828,1.325 -14.547,2.808 a 24.211,24.409 0 0 0 6.371,1.576 19.57,19.73 0 0 1 3.569,0.511 c 2.084,0.626 4.185,2.241 6.199,1.414 1.249,-0.513 1.656,-1.824 2.69,-2.519 0.714,-0.48 3.423,-1.256 3.726,-1.74 2.448,-3.914 -3.953,-2.596 -5.835,-2.343 z m 9.541,9.957 a 40.752,41.085 0 0 0 -8.019,5.92 c -1.021,0.968 -2.064,2.171 -1.971,3.58 0.123,1.873 2.103,2.96 3.817,3.692 l 6.946,2.965 c 0.843,-1.197 0.072,-2.85 -0.799,-4.027 -0.871,-1.177 -1.906,-2.538 -1.521,-3.954 0.439,-1.616 2.393,-2.167 4.032,-2.445 2.67,-0.454 9.873,-0.417 9.008,-4.756 -1.02,-5.112 -8.813,-2.487 -11.493,-0.976 z m -1.396,289.284 c -0.661,1.93 -0.724,4.204 0.42,5.889 1.284,1.891 3.852,2.596 6.075,2.116 a 10.944,11.033 0 0 0 5.64,-3.656 19.423,19.581 0 0 0 3.244,-5.016 38.832,39.15 0 0 0 2.405,-8.87 l 2.157,-11.416 c 0.482,-2.551 0.463,-10.374 -4.188,-7.825 -1.271,0.696 -4.213,6.193 -5.545,7.752 -2.4,2.81 -2.718,5.536 -3.981,8.939 -1.583,4.263 -4.763,7.816 -6.226,12.086 z m 245.676,58.421 a 33.91,34.187 0 0 1 -4.42,-2.121 37.257,37.561 0 0 0 -2.241,12.312 l 10.415,-5.942 c 1.567,-0.894 3.343,-2.136 3.309,-3.95 a 1.24,1.25 0 0 0 -0.576,-1.136 1.404,1.416 0 0 0 -0.73,-0.086 c -1.544,0.13 -2.952,0.896 -4.409,1.429 -1.457,0.533 -3.16,0.814 -4.497,0.024 m 58.09,2.997 a 22.543,22.728 0 0 0 -3.34,1.208 c -2.39,1.226 -4.016,3.555 -6.167,5.169 -2.058,1.545 -4.536,2.394 -6.968,3.219 -0.715,0.638 -0.387,1.922 0.39,2.482 a 4.831,4.87 0 0 0 2.751,0.623 c 2.527,0.056 5.189,0.081 7.402,-1.15 a 23.344,23.535 0 0 0 3.485,-2.789 c 2.588,-2.177 5.695,-3.613 8.772,-5.001 a 10.068,10.15 0 0 0 3.057,-1.843 c 1.933,-1.92 2.069,-4.882 -0.718,-5.535 -2.252,-0.528 -6.519,2.917 -8.664,3.616 z"
       id="path899"
       style="fill:#333333" />
    <path
       d="m 981.989,603.667 a 8.688,8.759 0 0 0 -2.658,-7.177 c -0.028,2.643 -0.108,5.459 -1.583,7.645 -1.051,1.557 -2.698,2.609 -3.849,4.093 -1.151,1.484 -1.662,3.835 -0.312,5.137 a 5.06,5.101 0 0 0 2.999,1.041 c 2.688,0.319 5.799,0.497 7.684,-1.461 1.029,-1.068 1.529,-2.651 2.784,-3.437 a 3.387,3.415 0 0 0 1.222,-0.881 c 0.518,-0.83 -0.305,-1.925 -1.232,-2.224 -0.927,-0.299 -1.948,-0.159 -2.879,-0.443 -0.931,-0.284 -1.786,-1.34 -1.308,-2.195 m -44.013,-97.011 a 12.082,12.18 0 0 1 -4.311,0.256 c -2.393,-0.443 -4.255,-2.262 -6.187,-3.752 a 27.29,27.513 0 0 0 -15.945,-5.617 c -5.249,-0.1 -10.548,1.334 -15.703,0.334 0.337,1.889 1.94,3.305 3.65,4.147 1.71,0.842 3.598,1.266 5.317,2.091 a 12.695,12.799 0 0 1 6.149,6.45 c 0.553,1.303 0.902,2.72 1.74,3.858 1.714,2.325 4.962,2.835 7.829,2.645 3.738,-0.248 7.642,-1.332 11.119,0.072 2.66,1.074 4.564,3.422 6.786,5.247 2.222,1.825 5.35,3.18 7.9,1.863 a 13.061,13.167 0 0 1 -9.037,-12.67 c 2.502,0.232 9.707,0.142 9.319,-4.143 -0.329,-3.632 -6.48,-1.172 -8.628,-0.78 z m -32.725,29.549 c 0.444,-2.456 2.874,-4.625 2.117,-7.002 -0.523,-1.644 -2.414,-2.456 -4.126,-2.496 -1.712,-0.04 -3.394,0.474 -5.106,0.522 a 24.883,25.086 0 0 0 -3.343,0.048 c -3.398,0.563 -5.493,4.154 -8.695,5.431 -1.947,0.776 -4.135,0.628 -6.16,1.165 -4.597,1.218 -7.506,5.598 -10.719,9.129 a 38.254,38.566 0 0 1 -19.417,11.416 c -2.614,0.61 -5.424,1.001 -7.501,2.712 -2.751,2.266 -3.428,6.152 -4.041,9.68 a 158.591,159.887 0 0 1 -7.72,28.572 l 10.916,1.405 c 2.075,0.267 4.226,0.529 6.226,-0.091 a 18.073,18.221 0 0 0 4.095,-2.199 40.879,41.213 0 0 1 15.971,-5.812 c 2.858,-0.396 5.855,-0.468 8.538,0.603 2.683,1.071 4.984,3.5 5.209,6.4 a 6.706,6.761 0 0 1 6.702,1.643 11.65,11.745 0 0 1 3.2,6.44 c 0.288,1.506 0.575,3.31 1.961,3.941 1.131,0.515 2.427,-0.04 3.664,-0.139 4.197,-0.339 7.679,4.595 11.804,3.745 4.424,-0.911 5.51,-7.591 9.826,-8.929 2.479,-0.768 5.956,0.166 7.143,-2.159 1.046,-2.049 -1.041,-4.413 -0.826,-6.707 0.265,-2.825 3.57,-4.024 6.118,-5.229 8.784,-4.155 12.953,-16.075 8.696,-24.866 -2.522,-5.209 -7.484,-9.309 -8.401,-15.031 -0.705,-4.402 1.016,-9.536 -1.768,-13.001 -1.416,-1.763 -3.814,-2.736 -4.657,-4.839 -0.53,-1.324 -0.317,-2.826 -0.603,-4.225 -0.286,-1.399 -1.496,-2.862 -2.866,-2.499 -3.977,1.052 -5.246,13.437 -7.375,16.447 -3.236,4.574 -9.881,1.561 -8.861,-4.075 z m -73.504,-24.87 c -1.359,-0.384 -2.843,-0.763 -4.145,-0.214 -1.302,0.549 -2.063,2.476 -1.017,3.433 8.176,-0.321 16.402,-0.64 24.508,0.479 9.34,1.29 18.583,4.484 27.964,3.544 a 142.315,143.477 0 0 0 -16.313,-3.816 l -9.183,-1.769 a 71.007,71.587 0 0 0 -7.457,-1.162 c -5.239,-0.436 -9.204,0.96 -14.356,-0.496 z m 8.185,-28.707 c -0.679,-0.057 -1.519,-0.106 -1.87,0.482 -0.335,0.562 0.048,1.305 -0.132,1.935 -0.246,0.861 -1.365,1.081 -2.246,0.964 -0.881,-0.117 -1.835,-0.398 -2.615,0.03 a 2.217,2.235 0 0 0 -0.857,2.539 6.482,6.535 0 0 0 1.512,2.429 24.619,24.82 0 0 0 3.922,3.966 c 2.81,2.091 6.617,3.099 8.387,6.134 a 4.037,4.07 0 0 0 1.12,1.52 c 0.85,0.543 1.958,0.13 2.872,-0.292 l 3.207,-1.477 a 3.642,3.672 0 0 0 1.499,-1.028 c 0.733,-1.002 0.283,-2.427 -0.332,-3.506 -0.615,-1.079 -1.402,-2.197 -1.27,-3.435 0.235,-2.207 3.05,-3.051 4.207,-4.939 1.166,-1.903 0.407,-4.355 0.542,-6.589 0.157,-2.612 1.785,-6.009 -0.834,-7.96 -2.226,-1.658 -4.353,-0.126 -5.951,1.705 -3.37,3.861 -4.963,8.042 -11.158,7.521 z m 19.464,-39.023 c 1.095,2.113 3.377,3.374 4.571,5.432 1.294,2.231 1.146,5.113 2.55,7.275 1.44,2.218 4.338,3.396 5.146,5.919 0.882,2.755 -1.119,6.102 0.476,8.509 a 3.543,3.572 0 0 0 5.197,0.481 3.812,3.843 0 0 0 -0.157,-5.362 c -0.944,-0.868 -2.3,-1.243 -3.088,-2.257 a 4.697,4.736 0 0 1 -0.8,-1.964 12.751,12.855 0 0 1 0.201,-6.161 2.719,2.742 0 0 0 0.154,-1.611 c -0.355,-1.04 -1.752,-1.114 -2.732,-1.596 -2.227,-1.096 -2.173,-4.264 -1.784,-6.731 -0.259,1.643 -6.063,-1.151 -6.67,-2.082 -1.207,-1.848 -0.55,-5.414 -0.789,-7.456 -2.606,1.266 -3.612,5.02 -2.273,7.604 z m -58.468,32.514 c -1.071,-1.209 -2.685,-2.474 -4.121,-1.745 -1.096,0.556 -1.397,2.085 -0.968,3.243 a 7.081,7.139 0 0 0 2.337,2.809 c 2.993,2.488 6.215,4.734 8.826,7.627 4.672,5.177 7.147,12.161 12.229,16.93 a 6.859,6.915 0 0 0 3.851,2.101 c 1.48,0.139 3.143,-0.817 3.313,-2.306 0.14,-1.227 -0.708,-2.325 -1.537,-3.234 -1.974,-2.165 -4.135,-4.157 -5.998,-6.419 a 5.35,5.394 0 0 1 -1.533,-3.228 c -0.009,-1.218 1.092,-2.492 2.262,-2.191 -1.423,-0.367 -2.479,-2.757 -4.568,-3.207 -1.746,-0.376 -2.168,0.714 -4.246,-0.184 -3.963,-1.714 -7.072,-7.065 -9.847,-10.197 z M 894.91,358.502 a 32.814,33.082 0 0 1 -3.348,-1.206 c -2.942,-0.89 -6.835,1.29 -6.443,4.362 0.261,2.041 2.145,3.417 3.185,5.187 1.543,2.625 1.132,5.955 0.321,8.895 a 6.897,6.954 0 0 1 -1.113,2.531 8.503,8.572 0 0 1 -2.637,1.912 35.265,35.553 0 0 0 -10.319,8.838 2.526,2.547 0 0 0 -0.623,1.184 c -0.14,1.037 0.894,1.793 1.478,2.658 1.299,1.922 0.36,4.507 0.488,6.829 a 1.915,1.931 0 0 0 0.807,1.694 c 0.783,0.401 1.71,-0.28 2.134,-1.055 1.408,-2.572 0.347,-6.699 2.989,-7.939 0.5,-0.235 1.105,-0.333 1.439,-0.776 0.529,-0.702 0.019,-1.741 0.287,-2.58 0.402,-1.26 2.111,-1.316 3.423,-1.26 a 19.427,19.586 0 0 0 6.673,-0.896 4.442,4.478 0 0 0 2.209,-1.29 c 0.79,-0.993 0.72,-2.406 0.562,-3.669 a 49.331,49.734 0 0 0 -5.828,-17.929 c 2.32,0.299 4.844,0.558 6.846,-0.661 1.121,-0.683 2.465,-2.724 1.909,-4.113 -0.879,-2.197 -2.468,-0.348 -4.439,-0.715 z m -297.435,34.63 c 0.278,1.501 0.551,3.082 0.063,4.528 -0.488,1.446 -2.023,2.654 -3.473,2.211 -1.125,-0.344 -1.775,-1.484 -2.574,-2.354 -4.443,-4.835 -14.466,-2.036 -17.211,-8.018 -1.12,-2.442 -0.359,-5.367 -1.123,-7.944 a 7.013,7.071 0 0 0 -7.102,-4.864 14.594,14.714 0 0 0 -4.087,1.23 103.054,103.896 0 0 1 -27.079,6.828 22.249,22.431 0 0 0 -5.203,0.954 c -3.815,1.394 -6.422,4.96 -8.277,8.599 -1.855,3.639 -3.225,7.578 -5.712,10.811 -2.614,3.398 -6.277,5.777 -9.694,8.35 a 9.89,9.971 0 0 0 -3.198,3.379 c -0.741,1.533 -0.699,3.317 -0.641,5.021 l 0.698,20.701 c 0.09,2.663 0.203,5.42 1.385,7.803 1.476,2.975 4.392,4.924 6.415,7.553 a 14.674,14.793 0 0 1 3.044,9.447 c -0.043,1.37 -0.178,2.991 0.881,3.852 a 3.872,3.903 0 0 0 2.165,0.628 l 27.775,2.292 c 4.886,0.403 10.301,1.066 13.49,4.819 1.505,1.771 2.715,4.318 5.021,4.508 0.989,0.082 1.952,-0.328 2.941,-0.407 2.496,-0.199 4.689,1.711 6.072,3.814 a 16.785,16.922 0 0 1 2.696,10.858 c -0.227,2.4 -0.965,4.733 -1.124,7.138 -0.605,9.152 7.09,17.103 7.239,26.274 0.088,5.395 -2.452,10.435 -4.929,15.218 3.997,6.104 0.724,14.233 2.315,21.37 1.51,6.771 7.109,12.071 8.504,18.866 0.639,3.111 0.676,6.939 3.397,8.542 a 7.743,7.806 0 0 0 3.843,0.776 50.669,51.083 0 0 0 23.074,-5.296 c 3.365,-1.683 6.851,-4.196 7.439,-7.936 0.474,-3.016 -1.043,-6.39 0.501,-9.017 1.82,-3.096 6.481,-2.851 9.159,-5.232 4.344,-3.862 0.957,-11.228 2.716,-16.791 1.582,-5 7.028,-7.657 9.727,-12.145 a 21.407,21.581 0 0 0 2.26,-6.176 87.386,88.1 0 0 0 2.3,-15.752 93.653,94.418 0 0 1 0.707,-9.648 c 2.91,-18.229 20.785,-30.435 26.589,-47.946 0.554,-1.672 0.815,-3.9 -0.661,-4.846 a 4.226,4.261 0 0 0 -2.81,-0.297 l -12.804,1.627 c -1.59,0.202 -3.276,0.391 -4.737,-0.275 -1.461,-0.666 -2.507,-2.529 -1.733,-3.943 2.175,-3.971 -2.299,-8.99 -4.286,-13.059 a 191.147,192.709 0 0 0 -19.035,-31.122 3.138,3.163 0 0 1 -0.835,-1.827 l 3.634,0.122 c -1.227,-4.438 -3.251,-9.294 -7.527,-10.917 -2.41,-0.915 -5.078,-0.598 -7.649,-0.457 -7.364,0.406 -15.259,-0.715 -22.547,-1.851 z m 22.553,-100.001 c 1.927,2.063 4.086,4.25 6.874,4.61 4.925,0.635 8.465,-4.499 10.719,-8.958 a 4.342,4.377 0 0 0 4.531,4.05 8.944,9.017 0 0 0 3.408,-1.343 67.133,67.681 0 0 1 31.804,-8.289 3.435,3.463 0 0 1 2.623,-3.807 c 2.261,-0.452 4.297,1.519 5.388,3.565 1.091,2.046 1.771,4.419 3.503,5.952 1.732,1.533 5.087,1.465 5.771,-0.753 0.657,-2.13 -1.544,-3.946 -3.373,-5.202 -1.829,-1.256 -3.756,-3.58 -2.525,-5.433 9.342,-2.085 18.742,-4.178 28.302,-4.592 a 11.851,11.948 0 0 0 4.764,-0.827 c 1.458,-0.721 2.617,-2.358 2.225,-3.947 a 10.788,10.876 0 0 1 -11.258,-4.281 c 13.264,-1.104 27.372,-2.044 39.128,4.248 1.411,3.053 -5.779,5.593 -3.855,8.347 0.614,0.878 1.843,0.981 2.908,1.001 8.169,0.153 16.385,0.303 24.462,-0.941 2.952,-0.454 5.933,-1.096 8.896,-0.727 4.936,0.614 9.157,3.934 14.013,5.016 1.976,0.441 4.192,0.456 5.858,-0.703 1.666,-1.159 2.382,-3.798 1.017,-5.304 4.572,-4.518 12.16,-3.398 18.192,-1.235 6.032,2.163 11.746,5.651 18.129,6.133 4.578,0.346 9.219,-0.896 13.743,-0.107 2.843,0.496 5.488,1.771 8.266,2.554 5.254,1.481 10.813,1.169 16.268,1.24 a 113.989,114.92 0 0 1 40.621,8.138 12.077,12.176 0 0 1 4.516,2.69 c 1.204,1.299 1.817,3.318 1.008,4.898 l -13.365,-1.969 c 1.259,2.499 4.517,2.925 7.163,3.787 2.646,0.862 5.389,3.808 3.799,6.107 -2.867,-0.92 -5.464,1.969 -6.912,4.628 -1.448,2.659 -3.213,5.842 -6.217,6.004 -2.69,0.145 -5.943,-2.164 -7.697,-0.102 a 52.495,52.924 0 0 1 6.185,9.969 c 1.732,3.638 2.966,8.223 0.625,11.497 a 2.956,2.98 0 0 1 -1.58,1.235 c -1.912,0.488 -3.155,-1.87 -4.526,-3.3 -1.728,-1.801 -4.341,-2.312 -6.681,-3.156 -2.34,-0.844 -4.805,-2.507 -4.988,-5.006 -0.114,-1.555 0.7,-3 1.3,-4.437 a 16.958,17.096 0 0 0 1.288,-7.668 c -0.131,-2.109 -0.718,-4.303 -2.221,-5.777 -1.503,-1.474 -4.097,-1.941 -5.71,-0.591 -0.753,0.63 -1.356,1.637 -2.333,1.675 -1.727,0.067 -3.053,-2.969 -4.443,-1.933 a 4.721,4.76 0 0 1 -0.642,3.183 c -4.146,3.636 -10.516,2.098 -15.861,3.382 a 29.771,30.015 0 0 0 -7.237,3.186 4.656,4.694 0 0 0 -2.068,1.75 c -0.667,1.307 0.068,2.981 1.245,3.851 a 9.88,9.961 0 0 0 4.103,1.412 c 6.517,1.244 13.128,3.17 18.273,7.39 5.145,4.22 8.519,11.196 6.891,17.678 l -12.851,-12.38 q 0.732,7.797 0.831,15.637 a 6.973,7.03 0 0 1 -0.407,3.008 c -0.916,2.04 -3.399,2.727 -5.575,3.177 a 4.367,4.403 0 0 0 -3.352,5.641 c 0.773,2.54 2.701,4.521 4.466,6.495 1.765,1.974 3.502,4.217 3.733,6.864 0.231,2.647 -1.75,5.631 -4.379,5.447 -1.993,-0.14 -3.472,-1.939 -4.322,-3.762 -0.85,-1.823 -1.356,-3.854 -2.634,-5.403 -3.867,-4.688 -12.551,-2.68 -16.015,-7.678 a 7.834,7.898 0 0 0 -1.62,7.516 c 1.611,-1.017 3.817,-0.072 5.028,1.406 1.211,1.478 1.782,3.372 2.733,5.032 1.283,2.24 3.325,4.225 3.504,6.805 a 22.064,22.244 0 0 0 0.049,2.927 c 0.318,1.563 1.629,2.686 2.537,3.993 2.114,3.04 2.01,7.217 0.647,10.667 -1.363,3.45 -3.811,6.332 -6.237,9.127 -4.236,4.881 -8.558,9.734 -13.58,13.788 -1.433,1.157 -2.962,2.294 -3.855,3.911 -0.893,1.617 -0.938,3.887 0.433,5.117 -0.981,0.05 -2.741,0.536 -3.722,0.586 a 86.543,87.25 0 0 1 -0.224,-11.935 c -3.872,-1.875 -8.042,3.146 -7.542,7.447 0.5,4.301 3.586,7.753 5.783,11.475 1.607,2.721 2.801,5.895 2.264,9.015 -0.537,3.12 -3.299,5.999 -6.429,5.724 -4.978,-0.438 -7.06,-7.642 -11.989,-8.467 a 2.014,2.031 0 0 0 -1.297,0.13 c -0.732,0.405 -0.859,1.392 -0.9,2.232 -0.202,4.125 -0.376,8.414 1.221,12.217 2.337,5.564 8.373,10.237 7.107,16.143 -6.821,-3.197 -10.368,-10.909 -11.978,-18.317 -1.61,-7.408 -1.879,-15.185 -4.765,-22.188 -2.192,2.832 -6.799,0.491 -8.802,-2.48 -1.899,-2.817 -3.068,-6.076 -4.91,-8.93 -1.842,-2.854 -4.664,-5.411 -8.038,-5.568 -3.538,-0.165 -6.607,2.283 -9.305,4.596 -2.219,1.902 -4.497,3.879 -5.794,6.508 -1.887,3.826 -1.394,8.336 -1.485,12.607 -0.098,4.618 -1.069,9.491 -4.191,12.872 -3.122,3.381 -8.885,4.558 -12.328,1.511 -1.798,-1.591 -2.668,-3.967 -3.444,-6.249 a 303.429,305.908 0 0 1 -9.323,-33.554 c -0.579,2.591 -2.836,5.932 -4.992,4.405 a 4.47,4.507 0 0 1 -1.15,-1.494 c -4.022,-6.873 -11.471,-10.995 -18.997,-13.467 -7.526,-2.472 -15.444,-3.625 -22.886,-6.341 a 57.97,58.444 0 0 1 -11.872,-5.962 9.337,9.414 0 0 0 -0.571,9.629 c 1.651,2.947 5.387,4.652 8.585,3.622 1.653,-0.532 3.048,-1.689 4.688,-2.26 1.64,-0.571 3.841,-0.291 4.558,1.302 0.686,1.524 -0.351,3.369 0.164,4.96 0.784,2.424 4.41,2.611 5.679,4.817 0.944,1.641 0.167,3.821 -1.18,5.146 -1.347,1.325 -3.145,2.051 -4.789,2.973 -5.336,2.992 -9.131,8.098 -13.794,12.072 -4.663,3.974 -11.243,6.874 -16.801,4.325 1.325,-6.763 -6.666,-11.729 -8.136,-18.461 -0.484,-2.216 -0.233,-4.57 -0.924,-6.729 -1,-3.127 -3.752,-5.276 -6.009,-7.646 a 29.764,30.007 0 0 1 -8.164,-21.832 c 0.122,-2.782 0.629,-5.61 0,-8.322 -0.629,-2.712 -2.856,-5.337 -5.616,-5.214 -6.304,0.281 -14.245,0.753 -17.552,-4.664 -1.18,-1.934 -1.694,-4.765 0.013,-6.247 1.204,-1.045 2.981,-0.947 4.562,-0.79 l 14.203,1.409 c 3.322,0.329 6.913,0.601 9.763,-1.149 2.85,-1.75 4.086,-6.398 1.446,-8.458 -1.929,-1.505 -5.384,-1.423 -5.945,-3.816 -0.467,-1.993 1.721,-4.254 0.539,-5.92 -0.847,-1.194 -2.752,-0.863 -3.907,0.032 -1.155,0.895 -1.992,2.205 -3.284,2.882 -2.266,1.189 -4.974,0.057 -7.413,-0.712 -2.439,-0.769 -5.707,-0.834 -6.89,1.449 -1.323,2.553 1.173,5.899 -0.139,8.458 -1.736,3.383 -7.613,1.457 -10.05,4.367 -2.797,3.339 1.903,8.318 0.96,12.584 a 7.77,7.833 0 0 1 -7.655,-0.434 7.435,7.496 0 0 1 -3.213,-6.979 c 0.233,-1.919 1.226,-3.878 0.561,-5.691 -0.538,-1.466 -1.998,-2.339 -3.355,-3.095 l -13.802,-7.689 c -1.281,2.397 0.339,5.368 2.365,7.168 2.026,1.8 4.564,3.156 5.895,5.525 a 7.193,7.252 0 0 1 -2.707,9.561 1.66,1.674 0 0 1 -1.368,0.241 1.909,1.924 0 0 1 -0.887,-1.203 c -2.435,-6.283 -6.092,-12.478 -11.937,-15.76 -5.845,-3.282 -14.245,-2.607 -18.078,2.922 -0.91,1.313 -1.522,2.81 -2.315,4.199 -4.214,7.376 -13.248,10.869 -21.688,10.641 a 4.307,4.342 0 0 1 -2.366,-0.561 c -1.364,-0.95 -1.303,-2.965 -1.094,-4.623 l 0.886,-7.036 c 0.178,-1.413 0.436,-2.975 1.545,-3.857 1.564,-1.243 3.819,-0.459 5.81,-0.488 a 7.364,7.424 0 0 0 6.684,-5.2 8.299,8.367 0 0 0 -2.31,-8.32 c -0.913,-0.864 -2.138,-1.95 -1.656,-3.115 a 2.554,2.575 0 0 1 1.791,-1.216 c 3.577,-1.047 7.356,-1.322 10.873,-2.557 3.517,-1.235 6.928,-3.764 7.761,-7.423 0.255,-1.122 0.371,-2.48 1.371,-3.036 a 4.11,4.144 0 0 1 1.584,-0.326 7.708,7.771 0 0 0 6.612,-8.102 c 1.686,-1.187 4.047,-0.314 5.678,0.949 1.631,1.263 3.07,2.932 5.055,3.476 3.698,1.015 7.271,-2.286 11.103,-2.301 1.612,-0.006 3.28,0.568 4.796,0.017 1.537,-0.558 2.455,-2.101 3.634,-3.24 1.179,-1.139 3.249,-1.835 4.339,-0.607 l -0.928,-6.927 a 13.507,13.617 0 0 0 10.992,-2.004 l -11.988,-4.084 a 2.606,2.628 0 0 1 -1.121,-0.604 c -0.872,-0.946 -0.006,-2.421 0.703,-3.496 1.695,-2.573 1.98,-6.811 -0.808,-8.092 -1.903,-0.874 -4.087,0.175 -5.914,1.202 l -8.75,4.918 c -0.278,1.677 1.756,2.627 3.016,3.756 a 5.057,5.098 0 0 1 -3.298,8.908 6.301,6.353 0 0 1 1.125,5.386 l -5.887,0.427 a 2.55,2.571 0 0 1 -1.909,-0.376 c -0.63,-0.564 -0.544,-1.552 -0.69,-2.388 -0.352,-2.018 -2.312,-3.432 -4.313,-3.795 -2.001,-0.363 -4.047,0.102 -6.028,0.561 a 3.597,3.627 0 0 1 -2.591,-0.06 2.587,2.608 0 0 1 -1.025,-1.304 c -0.868,-2.123 -0.057,-4.618 1.338,-6.433 1.395,-1.815 3.304,-3.142 5.019,-4.654 a 29.252,29.491 0 0 0 8.698,-13.601 c 3.241,-1.369 6.596,-3.229 9.837,-4.598 a 30.1,30.346 0 0 1 16.179,-3.16 l 10.975,0.211 c 3.249,0.063 6.587,0.143 9.591,1.392 3.004,1.249 5.645,3.95 5.852,7.22 a 2.198,2.216 0 0 1 -0.704,2.026 2.593,2.614 0 0 1 -1.388,0.315 c -3.03,0.107 -4.322,0.869 -7.353,0.976 z m -87.478,34.677 a 3.211,3.238 0 0 0 0.876,-3.256 6.007,6.056 0 0 0 -6.22,1.184 10.487,10.572 0 0 0 -1.666,2.221 c -1.442,2.372 -2.718,5.205 -1.882,7.857 a 2.214,2.232 0 0 0 1.013,1.397 2.664,2.686 0 0 0 1.181,0.187 39.593,39.916 0 0 0 4.753,-0.295 c 0.968,-0.119 2.093,-0.395 2.468,-1.303 0.492,-1.194 -0.699,-2.545 -0.352,-3.79 a 4.107,4.141 0 0 1 1.014,-1.464 1.92,1.936 0 0 0 0.598,-1.625 c -0.14,-0.584 -1.027,-0.915 -1.346,-0.408 m 7.802,-11.473 a 13.298,13.406 0 0 0 -4.307,-0.273 1.878,1.894 0 0 0 -0.918,0.21 1.531,1.544 0 0 0 -0.566,0.826 4.069,4.102 0 0 0 2.369,5.027 5.091,5.132 0 0 1 1.469,0.595 c 1.218,0.953 0.442,2.9 0.672,4.437 0.259,1.726 1.916,3.174 1.612,4.893 -0.239,1.354 -1.674,2.426 -1.443,3.781 0.242,1.419 2.028,1.846 3.453,1.96 a 4.342,4.378 0 0 0 2.446,-0.283 3.788,3.819 0 0 0 1.543,-2.253 14.326,14.443 0 0 0 0.722,-5.438 5.115,5.157 0 0 0 -0.608,-2.4 13.293,13.402 0 0 0 -1.421,-1.641 c -2.728,-3.2 0.144,-7.972 -5.023,-9.441 z"
       id="path901"
       style="fill:#333333" />
  </g>
  <g
     fill="none"
     stroke="#00b0ff"
     stroke-miterlimit="10"
     stroke-width="0.875"
     id="g909"
     style="stroke:#fa7d6f;stroke-opacity:1"
     transform="translate(-141.42111,-98.995113)">
    <path
       d="m 899.579,567.695 c 0,0 -208.975,-120.936 -298.942,-98.021 0,0 -190.666,20.686 -212.763,66.196 0,0 -60.609,-190.951 -82.706,-197.316"
       opacity="0.8"
       id="path905"
       style="stroke:#fa7d6f;stroke-opacity:1" />
    <path
       d="m 387.875,535.87 c 35.04,-94.202 350.712,-198.589 350.712,-198.589 -44.825,11.457 -137.949,132.393 -137.949,132.393 0,0 -196.979,-144.486 -295.469,-131.12 0,0 433.734,14.321 594.411,229.141"
       opacity="0.8"
       id="path907"
       style="stroke:#fa7d6f;stroke-opacity:1" />
  </g>
  <g
     fill="#06f"
     id="g921"
     style="fill:#ff0000"
     transform="translate(-141.42111,-98.995113)">
    <ellipse
       cx="305.16901"
       cy="338.55399"
       rx="9.1540003"
       ry="9.2290001"
       id="ellipse911"
       style="fill:#ff0000" />
    <ellipse
       cx="387.875"
       cy="535.87"
       rx="9.1540003"
       ry="9.2290001"
       id="ellipse913"
       style="fill:#ff0000" />
    <ellipse
       cx="738.58698"
       cy="337.28101"
       rx="9.1540003"
       ry="9.2290001"
       id="ellipse915"
       style="fill:#ff0000" />
    <ellipse
       cx="899.57898"
       cy="567.69501"
       rx="9.1540003"
       ry="9.2290001"
       id="ellipse917"
       style="fill:#ff0000" />
    <ellipse
       cx="600.638"
       cy="469.673"
       rx="9.1540003"
       ry="9.2290001"
       id="ellipse919"
       style="fill:#ff0000" />
  </g>
</svg>
