<?xml version="1.0" encoding="UTF-8" standalone="no"?>
<svg
   width="760.25653"
   height="486.75159"
   viewBox="0 0 201.15168 128.78692"
   version="1.1"
   id="svg1886"
   sodipodi:docname="jws-aruba-SEO-Pricing-packages.svg"
   inkscape:version="1.1.2 (0a00cf5339, 2022-02-04, custom)"
   xmlns:inkscape="http://www.inkscape.org/namespaces/inkscape"
   xmlns:sodipodi="http://sodipodi.sourceforge.net/DTD/sodipodi-0.dtd"
   xmlns:xlink="http://www.w3.org/1999/xlink"
   xmlns="http://www.w3.org/2000/svg"
   xmlns:svg="http://www.w3.org/2000/svg">
  <sodipodi:namedview
     id="namedview1888"
     pagecolor="#ffffff"
     bordercolor="#666666"
     borderopacity="1.0"
     inkscape:pageshadow="2"
     inkscape:pageopacity="0.0"
     inkscape:pagecheckerboard="0"
     showgrid="false"
     inkscape:zoom="2"
     inkscape:cx="78.75"
     inkscape:cy="25.25"
     inkscape:window-width="1920"
     inkscape:window-height="991"
     inkscape:window-x="-9"
     inkscape:window-y="-9"
     inkscape:window-maximized="1"
     inkscape:current-layer="svg1886" />
  <style
     id="style1527"><![CDATA[.I{fill:#fff}.J{fill:#007cff}.K{opacity:.5}.L{fill:#1a2e35}.M{fill:#84b4fe}.N{fill:#ebf5ff}.O{fill:#214a81}]]></style>
  <defs
     id="defs1584">
    <path
       id="A"
       d="m 347.948,398.684 v -1.48 a 1.97,1.97 0 0 1 -0.36,0.038 c -1.182,0 -1.928,-0.697 -1.928,-2.053 v -3.22 h -1.555 v 6.64 h 1.48 v -0.969 c 0.448,0.696 1.257,1.044 2.363,1.044" />
    <path
       id="B"
       d="m 383.477,232.881 h -39.978 c -5.436,0 -9.843,4.407 -9.843,9.844 v 0.745 c 0,5.436 4.407,9.844 9.843,9.844 h 39.978 c 5.436,0 9.843,-4.408 9.843,-9.844 v -0.745 c 0,-5.437 -4.407,-9.844 -9.843,-9.844" />
    <path
       id="C"
       d="m 370.658,342.86 a 8.6,8.6 0 0 0 -8.597,-8.597 8.6,8.6 0 0 0 -8.596,8.597 8.6,8.6 0 0 0 8.596,8.597 8.6,8.6 0 0 0 8.597,-8.597" />
    <path
       id="D"
       d="m 350.787,383.785 1.609,-2.573 2.944,-0.735 -1.95,-2.325 0.211,-3.028 -2.814,1.137 -2.814,-1.137 0.211,3.028 -1.95,2.325 2.944,0.735 z" />
    <path
       id="E"
       d="m 240.531,405.204 v 0.771 h -1.604 c -1.057,0 -1.343,-0.398 -1.343,-0.883 0,-0.559 0.472,-0.92 1.268,-0.92 0.759,0 1.418,0.348 1.679,1.032 m 1.555,1.816 v -3.893 h -1.468 v 0.808 c -0.373,-0.571 -1.094,-0.895 -2.089,-0.895 -1.517,0 -2.475,0.833 -2.475,1.99 0,1.107 0.747,1.977 2.761,1.977 h 1.716 v 0.1 c 0,0.908 -0.547,1.442 -1.654,1.442 -0.746,0 -1.517,-0.248 -2.014,-0.658 l -0.61,1.131 c 0.709,0.547 1.741,0.821 2.811,0.821 1.915,0 3.022,-0.908 3.022,-2.823" />
    <path
       id="F"
       d="m 257.631,406.447 c 0,1.269 -0.858,2.077 -1.978,2.077 -1.12,0 -1.977,-0.808 -1.977,-2.077 0,-1.269 0.858,-2.077 1.977,-2.077 1.119,0 1.978,0.808 1.978,2.077 m 1.53,5.907 v -9.227 h -1.493 v 0.858 c -0.522,-0.635 -1.293,-0.945 -2.201,-0.945 -1.927,0 -3.357,1.343 -3.357,3.407 0,2.064 1.43,3.395 3.357,3.395 0.858,0 1.617,-0.286 2.139,-0.895 v 3.407 z" />
    <path
       id="G"
       d="m 258.524,353.933 a 8.51,8.51 0 0 0 -8.509,-8.509 8.51,8.51 0 0 0 -8.509,8.509 8.51,8.51 0 0 0 8.509,8.509 8.51,8.51 0 0 0 8.509,-8.509" />
    <path
       id="H"
       d="m 296.468,441.727 v 0 a 2.73,2.73 0 0 1 3.605,-1.171 c 1.966,0.955 4.203,-0.67 3.901,-2.835 -0.202,-1.455 0.782,-2.81 2.229,-3.067 2.152,-0.382 3.007,-3.011 1.49,-4.586 -1.019,-1.058 -1.019,-2.733 0,-3.791 1.517,-1.574 0.662,-4.204 -1.49,-4.586 -1.447,-0.257 -2.431,-1.612 -2.229,-3.067 0.302,-2.166 -1.935,-3.791 -3.901,-2.834 a 2.73,2.73 0 0 1 -3.605,-1.172 c -1.029,-1.929 -3.793,-1.929 -4.822,0 -0.692,1.297 -2.284,1.814 -3.606,1.172 -1.966,-0.957 -4.202,0.668 -3.901,2.834 a 2.73,2.73 0 0 1 -2.228,3.067 c -2.152,0.382 -3.007,3.012 -1.49,4.586 1.019,1.058 1.019,2.733 0,3.791 -1.517,1.575 -0.662,4.204 1.49,4.586 a 2.73,2.73 0 0 1 2.228,3.067 c -0.301,2.165 1.935,3.79 3.901,2.835 1.322,-0.643 2.914,-0.125 3.606,1.171 1.029,1.929 3.793,1.929 4.822,0" />
    <path
       id="I"
       d="M 184.393,408.894 V 370.016 H 88.63 v 38.878 a 9.62,9.62 0 0 0 9.621,9.616 h 76.521 a 9.62,9.62 0 0 0 9.621,-9.616" />
    <clipPath
       id="J">
      <path
         d="M 0,500 H 500 V 0 H 0 Z"
         id="path1538" />
    </clipPath>
    <clipPath
       id="K">
      <path
         d="M 315.607,418.512 H 411.37 V 222.469 h -95.763 z"
         id="path1541" />
    </clipPath>
    <clipPath
       id="L">
      <path
         d="M 0,500 H 500 V 0 H 0 Z"
         id="path1544" />
    </clipPath>
    <clipPath
       id="M">
      <path
         d="m 203.102,429.668 h 95.764 v -196.04 h -95.764 z"
         id="path1547" />
    </clipPath>
    <clipPath
       id="N">
      <path
         d="m 241.505,362.442 h 17.018 v -17.018 h -17.018 z"
         id="path1550" />
    </clipPath>
    <clipPath
       id="O">
      <path
         d="m 289.295,418.915 h 9.642 v -22.834 h -9.642 z"
         id="path1553" />
    </clipPath>
    <clipPath
       id="P">
      <path
         d="M 279.654,443.173 H 308.46 V 413.171 H 279.654 Z"
         id="path1556" />
    </clipPath>
    <clipPath
       id="Q">
      <path
         d="M 0,500 H 500 V 0 H 0 Z"
         id="path1559" />
    </clipPath>
    <clipPath
       id="R">
      <path
         d="m 88.63,418.512 h 95.763 V 222.469 H 88.63 Z"
         id="path1562" />
    </clipPath>
    <clipPath
       id="S">
      <path
         d="m 126.576,317.841 h 17.018 v -17.018 h -17.018 z"
         id="path1565" />
    </clipPath>
    <clipPath
       id="T">
      <path
         d="m 126.576,351.284 h 17.018 v -17.018 h -17.018 z"
         id="path1568" />
    </clipPath>
    <clipPath
       id="U">
      <path
         d="M 0,0 H 500 V 500 H 0 Z"
         id="path1571" />
    </clipPath>
    <path
       id="V"
       d="m 21.802,92.369 v 2.022 h 0.252 v -2.022 h 1.941 v -0.263 h -1.941 v -2.022 h -0.252 v 2.022 h -1.941 v 0.263 z" />
    <path
       id="W"
       d="m 169.632,21.95 v -2.022 h 1.941 v -0.263 h -1.941 v -2.022 h -0.252 v 2.022 h -1.941 v 0.263 h 1.941 v 2.022 z" />
    <path
       id="X"
       d="m 122.991,14.587 a 9.509,9.906 0 0 0 -17.777,-2.644 7.607,7.925 0 0 0 0.827,15.802 h 16.506 a 6.367,6.633 0 0 0 6.346,-6.615 6.269,6.531 0 0 0 -5.902,-6.542 z m -7.299,3.898 v 5.026 h -4.062 v -5.026 h -4.316 l 6.348,-6.611 6.342,6.611 z" />
    <path
       id="Y"
       d="m 162.251,68.608 v -5.233 l 2.315,2.412 0.579,-0.624 -3.307,-3.445 -3.307,3.445 0.579,0.603 2.315,-2.39 v 5.233 z" />
    <path
       id="Z"
       d="m 82.472,32.398 v -3.921 l 1.736,1.809 0.434,-0.467 -2.481,-2.584 -2.481,2.584 0.434,0.452 1.736,-1.794 v 3.921 z" />
    <path
       id="a"
       d="m 387.178,293.112 h -49.434 v 2 h 49.434 z" />
    <path
       id="b"
       d="m 370.658,311.126 a 8.6,8.6 0 0 0 -8.597,-8.597 8.6,8.6 0 0 0 -8.596,8.597 8.6,8.6 0 0 0 8.596,8.597 8.6,8.6 0 0 0 8.597,-8.597" />
    <path
       id="c"
       d="m 254.823,356.457 -7.333,-7.333 -2.285,2.285 7.333,7.333 z" />
    <path
       id="d"
       d="m 247.49,358.742 7.333,-7.333 -2.285,-2.285 -7.333,7.333 z" />
    <path
       id="e"
       d="m 143.594,309.333 a 8.51,8.51 0 0 0 -8.509,-8.509 8.51,8.51 0 0 0 -8.509,8.509 8.51,8.51 0 0 0 8.509,8.509 8.51,8.51 0 0 0 8.509,-8.509" />
  </defs>
  <g
     class="I"
     id="g1620"
     transform="translate(-0.12811665,0.00192131)">
    <path
       d="M 3.484,99.659 V 97.637 H 5.425 V 97.374 H 3.484 V 95.352 H 3.232 v 2.022 H 1.291 v 0.263 h 1.941 v 2.022 z"
       id="path1586" />
    <use
       xlink:href="#V"
       id="use1588"
       x="0"
       y="0"
       width="100%"
       height="100%" />
    <use
       xlink:href="#W"
       id="use1590"
       x="0"
       y="0"
       width="100%"
       height="100%" />
    <path
       d="m 191.475,75.373 -3.954,-0.03 5.761,-6.002 5.819,6.002 h -3.954 v 4.589 h -3.671 z M 67.196,57.633 A 6.15,6.406 0 0 0 55.697,55.91 4.922,5.127 0 0 0 56.23,66.135 h 10.679 a 4.12,4.292 0 0 0 4.107,-4.268 4.056,4.225 0 0 0 -3.82,-4.234 z m -4.723,2.524 V 63.4 h -2.619 v -3.252 h -2.801 l 4.107,-4.279 4.105,4.279 z m 45.571,60.127 a 6.15,6.406 0 0 0 -11.499,-1.723 4.922,5.127 0 0 0 0.533,10.224 h 10.679 a 4.12,4.292 0 0 0 4.107,-4.268 4.056,4.225 0 0 0 -3.82,-4.234 z m -4.723,2.524 v 3.243 h -2.619 v -3.252 H 97.9 l 4.107,-4.279 4.105,4.279 z"
       id="path1592" />
    <use
       xlink:href="#X"
       id="use1594"
       x="0"
       y="0"
       width="100%"
       height="100%" />
    <use
       xlink:href="#X"
       x="-83.216003"
       y="71.127998"
       id="use1596"
       width="100%"
       height="100%" />
    <path
       d="m 161.193,121.763 a 4.133,4.287 0 0 0 -7.727,-1.145 3.306,3.43 0 0 0 0.359,6.839 H 161 a 2.767,2.871 0 0 0 2.758,-2.863 2.725,2.827 0 0 0 -2.565,-2.832 z m -3.172,1.687 v 2.175 h -1.765 v -2.175 h -1.876 l 2.759,-2.861 2.756,2.861 z M 61.054,97.093 V 91.86 l 2.315,2.412 0.579,-0.625 -3.307,-3.445 -3.307,3.445 0.579,0.603 2.315,-2.39 v 5.233 z"
       id="path1598" />
    <use
       xlink:href="#Y"
       id="use1600"
       x="0"
       y="0"
       width="100%"
       height="100%" />
    <use
       xlink:href="#Z"
       id="use1602"
       x="0"
       y="0"
       width="100%"
       height="100%" />
    <use
       xlink:href="#Z"
       x="116.638"
       y="11.859"
       id="use1604"
       width="100%"
       height="100%" />
    <use
       xlink:href="#Z"
       x="23.584"
       y="36.890999"
       id="use1606"
       width="100%"
       height="100%" />
    <use
       xlink:href="#Z"
       x="-44.966999"
       y="85.210999"
       id="use1608"
       width="100%"
       height="100%" />
    <path
       d="m 76.91,82.406 v 0.263 h 1.941 v 2.022 h 0.252 v -2.022 h 1.941 v -0.263 h -1.941 v -2.022 h -0.252 v 2.022 z"
       id="path1610" />
    <use
       xlink:href="#V"
       x="106.112"
       y="16.922001"
       id="use1612"
       width="100%"
       height="100%" />
    <path
       d="m 23.129,29.054 v -0.263 h -1.941 v -2.022 h -0.252 v 2.022 h -1.941 v 0.263 h 1.941 v 2.022 h 0.252 v -2.022 z"
       id="path1614" />
    <use
       xlink:href="#W"
       x="28.457001"
       y="78.746002"
       id="use1616"
       width="100%"
       height="100%" />
    <path
       d="m 172.46,49.04 v 2.022 h 0.252 V 49.04 h 1.941 v -0.263 h -1.941 v -2.022 h -0.252 v 2.022 h -1.941 v 0.263 z"
       id="path1618" />
  </g>
  <g
     transform="matrix(0.352778,0,0,-0.352778,34.2566,186.11772)"
     id="g1840">
    <g
       clip-path="url(#J)"
       id="g1684">
      <path
         d="m 392.741,222.47 h -58.505 c -10.289,0 -18.629,8.34 -18.629,18.628 v 158.786 c 0,10.288 8.34,18.628 18.629,18.628 h 58.505 a 18.63,18.63 0 0 0 18.628,-18.628 V 241.098 A 18.63,18.63 0 0 0 392.741,222.47"
         class="J"
         id="path1622"
         style="fill:#f2f2f2" />
      <g
         clip-path="url(#K)"
         opacity="0.3"
         id="g1626" />
      <path
         d="m 411.37,408.894 v -38.878 h -95.763 v 38.878 a 9.62,9.62 0 0 0 9.621,9.616 h 76.521 a 9.62,9.62 0 0 0 9.621,-9.616"
         class="J"
         id="path1628"
         style="fill:#d40000" />
      <g
         class="I"
         id="g1636">
        <path
           d="m 341.07,397.577 c 0,1.095 -0.733,1.729 -2.151,1.729 h -1.891 v -3.458 h 1.891 c 1.418,0 2.151,0.635 2.151,1.729 m 1.629,0 c 0,-1.915 -1.418,-3.096 -3.706,-3.096 h -1.965 v -2.512 h -1.616 v 8.705 h 3.581 c 2.288,0 3.706,-1.169 3.706,-3.097"
           id="path1630" />
        <use
           xlink:href="#A"
           id="use1632"
           x="0"
           y="0"
           width="100%"
           height="100%" />
        <path
           d="m 350.199,395.824 h 3.768 c -0.124,0.958 -0.858,1.617 -1.878,1.617 -1.007,0 -1.741,-0.647 -1.89,-1.617 m 5.223,-1.032 h -5.211 c 0.187,-0.97 0.995,-1.592 2.152,-1.592 0.746,0 1.331,0.236 1.803,0.722 l 0.833,-0.958 c -0.597,-0.709 -1.529,-1.082 -2.674,-1.082 -2.226,0 -3.668,1.43 -3.668,3.407 0,1.977 1.455,3.395 3.432,3.395 1.94,0 3.358,-1.355 3.358,-3.432 a 6.65,6.65 0 0 0 -0.025,-0.46 m 12.623,0.982 v -3.805 h -1.555 v 3.606 c 0,1.181 -0.547,1.754 -1.492,1.754 -1.019,0 -1.728,-0.672 -1.728,-1.99 v -3.37 h -1.555 v 3.606 c 0,1.181 -0.547,1.754 -1.492,1.754 -1.032,0 -1.729,-0.672 -1.729,-1.99 v -3.37 h -1.554 v 6.64 h 1.48 v -0.845 c 0.497,0.597 1.268,0.92 2.176,0.92 0.97,0 1.778,-0.36 2.239,-1.107 0.534,0.684 1.43,1.107 2.486,1.107 1.605,0 2.724,-0.908 2.724,-2.91 m 1.991,2.835 h 1.555 v -6.641 h -1.555 z m -0.212,2.028 c 0,0.522 0.423,0.932 0.996,0.932 0.573,0 0.994,-0.385 0.994,-0.895 0,-0.547 -0.41,-0.97 -0.994,-0.97 -0.573,0 -0.996,0.41 -0.996,0.933 m 10.235,-2.028 v -6.641 h -1.48 v 0.846 c -0.498,-0.609 -1.281,-0.933 -2.139,-0.933 -1.704,0 -2.86,0.933 -2.86,2.935 v 3.793 h 1.554 v -3.582 c 0,-1.206 0.572,-1.778 1.555,-1.778 1.082,0 1.815,0.672 1.815,2.003 v 3.357 z m 13.146,-2.835 v -3.805 h -1.555 v 3.606 c 0,1.181 -0.547,1.754 -1.492,1.754 -1.019,0 -1.728,-0.672 -1.728,-1.99 v -3.37 h -1.555 v 3.606 c 0,1.181 -0.547,1.754 -1.492,1.754 -1.032,0 -1.729,-0.672 -1.729,-1.99 v -3.37 H 382.1 v 6.64 h 1.48 v -0.845 c 0.497,0.597 1.268,0.92 2.176,0.92 0.97,0 1.778,-0.36 2.239,-1.107 0.534,0.684 1.43,1.107 2.486,1.107 1.605,0 2.724,-0.908 2.724,-2.91"
           id="path1634" />
      </g>
      <use
         xlink:href="#B"
         class="J"
         id="use1638"
         style="fill:#ff2a2a"
         x="0"
         y="0"
         width="100%"
         height="100%" />
      <path
         d="m 345.751,241.169 c 0,0.404 -0.321,0.656 -0.81,0.838 l -0.377,-1.913 c 0.754,0.153 1.187,0.544 1.187,1.075 m -1.732,3.241 0.405,2.011 c -0.796,-0.153 -1.243,-0.586 -1.257,-1.117 0,-0.434 0.349,-0.685 0.852,-0.894 m 3.995,-2.879 c 0,-1.857 -1.494,-3.1 -3.827,-3.296 l -0.308,-1.537 h -1.397 l 0.308,1.537 c -1.328,0.126 -2.501,0.544 -3.213,1.076 l 0.935,1.732 c 0.741,-0.545 1.676,-0.894 2.641,-0.992 l 0.475,2.361 c -1.299,0.391 -2.725,0.907 -2.725,2.599 0,1.857 1.523,3.114 3.898,3.283 l 0.307,1.536 h 1.397 l -0.307,-1.551 c 0.992,-0.097 1.9,-0.378 2.571,-0.796 l -0.852,-1.732 c -0.601,0.404 -1.328,0.643 -2.082,0.727 l -0.489,-2.459 c 1.285,-0.377 2.668,-0.88 2.668,-2.488"
         class="I"
         id="path1640" />
      <path
         d="m 337.744,294.112 h 49.434"
         id="path1642" />
      <use
         xlink:href="#a"
         class="J"
         id="use1644"
         style="fill:#ff5555"
         x="0"
         y="0"
         width="100%"
         height="100%" />
      <path
         d="m 337.744,326.952 h 49.434"
         id="path1646" />
      <path
         d="m 387.178,325.952 h -49.434 v 2 h 49.434 z"
         class="J"
         id="path1648"
         style="fill:#ff5555" />
      <path
         d="m 337.744,358.604 h 49.434"
         id="path1650" />
      <g
         class="J"
         id="g1656">
        <path
           d="m 387.178,357.604 h -49.434 v 2 h 49.434 z"
           id="path1652"
           style="fill:#ff5555" />
        <use
           xlink:href="#C"
           id="use1654"
           style="fill:#d40000"
           x="0"
           y="0"
           width="100%"
           height="100%" />
      </g>
      <g
         class="I"
         id="g1662">
        <path
           d="m 368.215,344.72 -4.946,-4.946 -2.306,-2.31 -2.311,2.31 2.307,2.306 4.945,4.95 z"
           id="path1658" />
        <path
           d="m 363.269,339.774 -2.306,-2.311 -4.9,4.9 2.307,2.307 2.589,-2.59 z"
           id="path1660" />
      </g>
      <use
         xlink:href="#b"
         class="J"
         id="use1664"
         style="fill:#ff2a2a"
         x="0"
         y="0"
         width="100%"
         height="100%" />
      <g
         class="I"
         id="g1670">
        <path
           d="m 368.215,312.985 -4.946,-4.945 -2.306,-2.311 -2.311,2.311 2.307,2.306 4.945,4.95 z"
           id="path1666" />
        <path
           d="m 363.269,308.04 -2.306,-2.311 -4.9,4.9 2.307,2.306 2.589,-2.589 z"
           id="path1668" />
      </g>
      <path
         d="m 370.658,277.1 a 8.6,8.6 0 0 0 -8.597,-8.597 8.6,8.6 0 0 0 -8.596,8.597 8.6,8.6 0 0 0 8.596,8.597 8.6,8.6 0 0 0 8.597,-8.597"
         class="J"
         id="path1672"
         style="fill:#ff8080" />
      <g
         class="I"
         id="g1682">
        <path
           d="m 368.215,278.96 -4.946,-4.946 -2.306,-2.31 -2.311,2.31 2.307,2.307 4.945,4.95 z"
           id="path1674" />
        <path
           d="m 363.269,274.014 -2.306,-2.31 -4.9,4.899 2.307,2.307 2.589,-2.589 z"
           id="path1676" />
        <use
           xlink:href="#D"
           id="use1678"
           x="0"
           y="0"
           width="100%"
           height="100%" />
        <path
           d="m 362.062,383.785 1.609,-2.573 2.944,-0.735 -1.95,-2.325 0.211,-3.028 -2.814,1.137 -2.814,-1.137 0.211,3.028 -1.95,2.325 2.944,0.735 z m 11.274,0 1.608,-2.573 2.945,-0.735 -1.95,-2.325 0.211,-3.028 -2.814,1.137 -2.814,-1.137 0.211,3.028 -1.95,2.325 2.944,0.735 z"
           id="path1680" />
      </g>
    </g>
    <g
       clip-path="url(#L)"
       id="g1772">
      <path
         d="M 280.235,233.628 H 221.73 c -10.289,0 -18.629,8.34 -18.629,18.628 v 158.786 c 0,10.288 8.34,18.628 18.629,18.628 h 58.505 c 10.288,0 18.628,-8.34 18.628,-18.628 V 252.256 c 0,-10.288 -8.34,-18.628 -18.628,-18.628"
         class="J"
         id="path1686"
         style="fill:#f2f2f2" />
      <g
         clip-path="url(#M)"
         class="I K"
         id="g1690" />
      <path
         d="m 298.865,420.052 v -38.877 h -95.763 v 38.877 a 9.62,9.62 0 0 0 9.621,9.616 h 76.521 a 9.62,9.62 0 0 0 9.621,-9.616"
         class="J"
         id="path1692"
         style="fill:#ff0000" />
      <g
         class="I"
         id="g1704">
        <path
           d="m 222.846,404.047 0.56,1.256 c 0.696,-0.56 1.803,-0.958 2.873,-0.958 1.355,0 1.927,0.485 1.927,1.132 0,1.878 -5.173,0.647 -5.173,3.88 0,1.405 1.119,2.599 3.507,2.599 1.044,0 2.139,-0.274 2.897,-0.771 l -0.509,-1.256 c -0.784,0.46 -1.642,0.684 -2.401,0.684 -1.343,0 -1.89,-0.523 -1.89,-1.181 0,-1.853 5.161,-0.647 5.161,-3.843 0,-1.393 -1.132,-2.587 -3.519,-2.587 -1.356,0 -2.711,0.423 -3.433,1.045 m 12.399,-0.559 c -0.373,-0.299 -0.933,-0.448 -1.492,-0.448 -1.455,0 -2.289,0.771 -2.289,2.239 v 3.196 h -1.094 v 1.243 h 1.094 v 1.518 h 1.555 v -1.518 h 1.778 v -1.243 h -1.778 v -3.159 c 0,-0.647 0.323,-0.995 0.92,-0.995 0.324,0 0.635,0.087 0.871,0.273 z"
           id="path1694" />
        <use
           xlink:href="#E"
           id="use1696"
           x="0"
           y="0"
           width="100%"
           height="100%" />
        <path
           d="m 250.617,406.932 v -3.805 h -1.555 v 3.606 c 0,1.181 -0.584,1.754 -1.579,1.754 -1.107,0 -1.853,-0.672 -1.853,-2.002 v -3.358 h -1.555 v 6.64 h 1.48 v -0.857 c 0.51,0.609 1.319,0.932 2.289,0.932 1.591,0 2.773,-0.908 2.773,-2.91"
           id="path1698" />
        <use
           xlink:href="#F"
           id="use1700"
           x="0"
           y="0"
           width="100%"
           height="100%" />
        <path
           d="m 265.205,405.204 v 0.771 h -1.604 c -1.057,0 -1.343,-0.398 -1.343,-0.883 0,-0.559 0.472,-0.92 1.268,-0.92 0.759,0 1.418,0.348 1.679,1.032 m 1.555,1.816 v -3.893 h -1.468 v 0.808 c -0.373,-0.571 -1.094,-0.895 -2.089,-0.895 -1.517,0 -2.475,0.833 -2.475,1.99 0,1.107 0.747,1.977 2.761,1.977 h 1.716 v 0.1 c 0,0.908 -0.547,1.442 -1.654,1.442 -0.746,0 -1.517,-0.248 -2.014,-0.658 l -0.61,1.131 c 0.709,0.547 1.741,0.821 2.811,0.821 1.915,0 3.022,-0.908 3.022,-2.823 m 5.833,2.822 v -1.48 a 1.97,1.97 0 0 1 -0.36,0.038 c -1.182,0 -1.928,-0.697 -1.928,-2.053 v -3.22 h -1.555 v 6.64 h 1.48 v -0.969 c 0.448,0.696 1.257,1.044 2.363,1.044 m 6.23,-3.395 c 0,1.269 -0.858,2.077 -1.978,2.077 -1.12,0 -1.977,-0.808 -1.977,-2.077 0,-1.269 0.858,-2.077 1.977,-2.077 1.119,0 1.978,0.808 1.978,2.077 m 1.53,5.907 v -9.227 h -1.493 v 0.858 c -0.522,-0.635 -1.293,-0.945 -2.201,-0.945 -1.927,0 -3.357,1.343 -3.357,3.407 0,2.064 1.43,3.395 3.357,3.395 0.858,0 1.617,-0.286 2.139,-0.895 v 3.407 z"
           id="path1702" />
      </g>
      <path
         d="m 271.781,244.039 h -39.978 c -5.436,0 -9.843,4.407 -9.843,9.844 v 0.745 c 0,5.436 4.407,9.844 9.843,9.844 h 39.978 c 5.436,0 9.843,-4.408 9.843,-9.844 v -0.745 c 0,-5.437 -4.407,-9.844 -9.843,-9.844"
         class="J"
         id="path1706"
         style="fill:#ff2a2a" />
      <path
         d="m 226.047,305.271 h 49.434"
         id="path1708" />
      <path
         d="m 275.481,304.271 h -49.434 v 2 h 49.434 z"
         class="J"
         id="path1710"
         style="fill:#ff5555" />
      <path
         d="m 226.047,338.11 h 49.434"
         id="path1712" />
      <path
         d="m 275.481,337.11 h -49.434 v 2 h 49.434 z"
         class="J"
         id="path1714"
         style="fill:#ff5555" />
      <path
         d="m 226.047,369.763 h 49.434"
         id="path1716" />
      <g
         class="J"
         id="g1720">
        <path
           d="m 275.481,368.763 h -49.434 v 2 h 49.434 z m -16.87,-46.479 a 8.6,8.6 0 0 0 -8.597,-8.597 8.6,8.6 0 0 0 -8.596,8.597 8.6,8.6 0 0 0 8.596,8.597 8.6,8.6 0 0 0 8.597,-8.597"
           id="path1718"
           style="fill:#ff2a2a" />
      </g>
      <g
         class="I"
         id="g1726">
        <path
           d="m 256.167,324.144 -4.945,-4.946 -2.307,-2.31 -2.31,2.31 2.306,2.306 4.946,4.95 z"
           id="path1722" />
        <path
           d="m 251.222,319.198 -2.307,-2.311 -4.899,4.9 2.307,2.307 2.588,-2.59 z"
           id="path1724" />
      </g>
      <path
         d="m 259.361,288.258 a 8.6,8.6 0 0 0 -8.597,-8.597 8.6,8.6 0 0 0 -8.596,8.597 8.6,8.6 0 0 0 8.596,8.597 8.6,8.6 0 0 0 8.597,-8.597"
         class="J"
         id="path1728"
         style="fill:#ffaaaa" />
      <g
         class="I"
         id="g1734">
        <path
           d="m 256.917,290.118 -4.946,-4.945 -2.306,-2.311 -2.31,2.311 2.306,2.306 4.945,4.95 z"
           id="path1730" />
        <path
           d="m 251.971,285.172 -2.307,-2.311 -4.899,4.9 2.307,2.306 2.589,-2.589 z"
           id="path1732" />
      </g>
      <use
         xlink:href="#G"
         class="L"
         id="use1736"
         x="0"
         y="0"
         width="100%"
         height="100%" />
      <g
         class="I"
         id="g1746">
        <g
           clip-path="url(#N)"
           class="K"
           id="g1740">
          <use
             xlink:href="#G"
             id="use1738"
             x="0"
             y="0"
             width="100%"
             height="100%" />
        </g>
        <use
           xlink:href="#c"
           id="use1742"
           x="0"
           y="0"
           width="100%"
           height="100%" />
        <use
           xlink:href="#d"
           id="use1744"
           x="0"
           y="0"
           width="100%"
           height="100%" />
      </g>
      <g
         class="J"
         id="g1752">
        <path
           d="m 289.3,418.912 v -22.826 l 4.816,4.817 v 18.009 z"
           id="path1748"
           style="fill:#ff8080" />
        <path
           d="m 298.933,418.912 v -22.826 l -4.817,4.817 v 18.009 z"
           id="path1750"
           style="fill:#ff8080" />
      </g>
      <g
         clip-path="url(#O)"
         opacity="0.3"
         id="g1756" />
      <g
         class="J"
         id="g1762">
        <use
           xlink:href="#H"
           id="use1758"
           x="0"
           y="0"
           width="100%"
           height="100%" />
        <use
           xlink:href="#H"
           id="use1760"
           x="0"
           y="0"
           width="100%"
           height="100%"
           style="fill:#d40000" />
      </g>
      <g
         class="I"
         id="g1770">
        <g
           clip-path="url(#P)"
           class="K"
           id="g1766">
          <use
             xlink:href="#H"
             id="use1764"
             x="0"
             y="0"
             width="100%"
             height="100%"
             style="opacity:1;fill:#ff5555"
             transform="translate(34.471585,13.656051)" />
        </g>
        <path
           d="m 289.731,431.035 h -1.238 a 1.13,1.13 0 0 1 -1.116,-1.06 l -0.299,-5.713 c -0.031,-0.585 0.42,-1.06 1.004,-1.06 h 1.238 a 1.13,1.13 0 0 1 1.115,1.06 l 0.299,5.713 c 0.031,0.585 -0.419,1.06 -1.003,1.06 m 9.889,0 h -2.905 l 0.809,1.902 c 0.088,0.207 0.121,0.431 0.096,0.648 l -0.171,1.5 a 1.19,1.19 0 0 1 -1.182,1.054 h -1.447 a 7.29,7.29 0 0 0 -1.567,-4.146 l -0.889,-1.122 a 1.8,1.8 0 0 1 -0.391,-1.019 l -0.28,-5.344 a 1.23,1.23 0 0 1 1.239,-1.306 h 5.069 c 0.445,0 0.877,0.196 1.184,0.537 l 0.473,0.525 c 0.187,0.208 0.316,0.46 0.378,0.732 l 0.967,4.311 c 0.09,0.4 0.002,0.819 -0.24,1.149 a 1.42,1.42 0 0 1 -1.143,0.579 m -49.606,-34.949 1.609,-2.573 2.944,-0.735 -1.95,-2.325 0.211,-3.028 -2.814,1.137 -2.814,-1.137 0.211,3.028 -1.95,2.325 2.945,0.735 z M 234.361,252.297 c 0,0.404 -0.322,0.656 -0.811,0.838 l -0.376,-1.914 c 0.753,0.154 1.187,0.545 1.187,1.076 m -1.732,3.24 0.404,2.012 c -0.796,-0.153 -1.243,-0.586 -1.256,-1.117 0,-0.434 0.349,-0.685 0.852,-0.895 m 3.995,-2.878 c 0,-1.857 -1.494,-3.1 -3.828,-3.296 l -0.307,-1.537 h -1.397 l 0.307,1.537 c -1.327,0.125 -2.5,0.544 -3.213,1.076 l 0.936,1.732 c 0.74,-0.545 1.676,-0.894 2.64,-0.992 l 0.475,2.36 c -1.298,0.392 -2.724,0.908 -2.724,2.6 0,1.857 1.523,3.114 3.898,3.283 l 0.307,1.536 h 1.397 l -0.307,-1.552 c 0.992,-0.096 1.9,-0.377 2.57,-0.796 l -0.851,-1.731 c -0.602,0.404 -1.328,0.643 -2.083,0.726 l -0.488,-2.458 c 1.285,-0.378 2.668,-0.881 2.668,-2.488"
           id="path1768" />
      </g>
    </g>
    <g
       clip-path="url(#Q)"
       id="g1838">
      <path
         d="m 165.764,222.47 h -58.505 c -10.288,0 -18.629,8.34 -18.629,18.628 v 158.786 c 0,10.288 8.341,18.628 18.629,18.628 h 58.505 c 10.289,0 18.629,-8.34 18.629,-18.628 V 241.098 c 0,-10.288 -8.34,-18.628 -18.629,-18.628"
         class="L"
         id="path1774"
         style="fill:#f2f2f2" />
      <g
         clip-path="url(#R)"
         opacity="0.7"
         class="I"
         id="g1778" />
      <g
         class="J"
         id="g1784">
        <use
           xlink:href="#I"
           id="use1780"
           x="0"
           y="0"
           width="100%"
           height="100%" />
        <use
           xlink:href="#I"
           id="use1782"
           style="fill:#d40000"
           x="0"
           y="0"
           width="100%"
           height="100%" />
      </g>
      <g
         class="I"
         id="g1788">
        <path
           d="m 127.015,394.493 c 0,0.871 -0.659,1.256 -1.878,1.256 h -2.611 v -2.512 h 2.611 c 1.219,0 1.878,0.385 1.878,1.256 m -4.489,4.912 v -2.4 h 2.288 c 1.119,0 1.753,0.398 1.753,1.194 0,0.808 -0.634,1.206 -1.753,1.206 z m 6.118,-5.074 c 0,-1.492 -1.169,-2.362 -3.407,-2.362 h -4.328 v 8.705 h 4.079 c 2.089,0 3.209,-0.883 3.209,-2.264 0,-0.895 -0.448,-1.554 -1.12,-1.915 0.933,-0.298 1.567,-1.032 1.567,-2.164 m 5.584,-0.286 v 0.771 h -1.604 c -1.057,0 -1.343,-0.398 -1.343,-0.883 0,-0.559 0.472,-0.92 1.268,-0.92 0.759,0 1.418,0.348 1.679,1.032 m 1.555,1.816 v -3.893 h -1.468 v 0.808 c -0.373,-0.571 -1.094,-0.895 -2.089,-0.895 -1.517,0 -2.475,0.833 -2.475,1.99 0,1.107 0.747,1.977 2.761,1.977 h 1.716 v 0.1 c 0,0.908 -0.547,1.442 -1.654,1.442 -0.746,0 -1.517,-0.248 -2.014,-0.658 l -0.61,1.131 c 0.709,0.547 1.741,0.821 2.811,0.821 1.915,0 3.022,-0.908 3.022,-2.823 m 1.231,-3.233 0.597,1.181 c 0.584,-0.385 1.48,-0.659 2.313,-0.659 0.983,0 1.393,0.274 1.393,0.734 0,1.268 -4.104,0.075 -4.104,2.723 0,1.256 1.132,2.077 2.922,2.077 0.883,0 1.891,-0.211 2.487,-0.572 l -0.596,-1.181 c -0.635,0.373 -1.269,0.497 -1.903,0.497 -0.945,0 -1.393,-0.311 -1.393,-0.746 0,-1.343 4.104,-0.149 4.104,-2.748 0,-1.244 -1.144,-2.052 -3.009,-2.052 -1.107,0 -2.214,0.323 -2.811,0.746 m 7.164,5.981 h 1.555 v -6.641 h -1.555 z m -0.211,2.028 c 0,0.522 0.422,0.932 0.995,0.932 0.573,0 0.994,-0.385 0.994,-0.895 0,-0.547 -0.41,-0.97 -0.994,-0.97 -0.573,0 -0.995,0.41 -0.995,0.933 m 3.258,-5.348 c 0,1.99 1.492,3.395 3.594,3.395 1.293,0 2.325,-0.535 2.835,-1.542 l -1.194,-0.696 c -0.398,0.634 -0.994,0.92 -1.653,0.92 -1.144,0 -2.015,-0.796 -2.015,-2.077 0,-1.293 0.871,-2.077 2.015,-2.077 0.659,0 1.255,0.286 1.653,0.921 l 1.194,-0.697 c -0.51,-0.995 -1.542,-1.554 -2.835,-1.554 -2.102,0 -3.594,1.417 -3.594,3.407"
           id="path1786" />
      </g>
      <use
         xlink:href="#e"
         class="L"
         id="use1790"
         x="0"
         y="0"
         width="100%"
         height="100%" />
      <g
         class="I"
         id="g1800">
        <g
           clip-path="url(#S)"
           class="K"
           id="g1794">
          <use
             xlink:href="#e"
             id="use1792"
             x="0"
             y="0"
             width="100%"
             height="100%" />
        </g>
        <path
           d="m 139.894,311.856 -7.333,-7.333 -2.285,2.285 7.333,7.333 z"
           id="path1796" />
        <path
           d="m 132.561,314.141 7.333,-7.333 -2.285,-2.285 -7.333,7.333 z"
           id="path1798" />
      </g>
      <path
         d="m 144.081,277.887 a 8.6,8.6 0 0 0 -8.597,-8.596 c -4.748,0 -8.596,3.848 -8.596,8.596 a 8.6,8.6 0 0 0 8.596,8.597 8.6,8.6 0 0 0 8.597,-8.597"
         class="J"
         id="path1802"
         style="fill:#ff8080" />
      <g
         class="I"
         id="g1808">
        <path
           d="m 141.637,279.747 -4.946,-4.946 -2.306,-2.31 -2.311,2.31 2.307,2.307 4.945,4.949 z"
           id="path1804" />
        <path
           d="m 136.692,274.801 -2.307,-2.31 -4.899,4.899 2.307,2.307 2.589,-2.589 z"
           id="path1806" />
      </g>
      <path
         d="m 156.501,232.881 h -39.978 c -5.436,0 -9.843,4.407 -9.843,9.844 v 0.745 c 0,5.436 4.407,9.844 9.843,9.844 h 39.978 c 5.437,0 9.843,-4.408 9.843,-9.844 v -0.745 c 0,-5.437 -4.406,-9.844 -9.843,-9.844"
         class="J"
         id="path1810"
         style="fill:#ff2a2a" />
      <path
         d="m 117.348,240.8 c 0,0.404 -0.322,0.656 -0.811,0.838 l -0.376,-1.914 c 0.753,0.154 1.187,0.545 1.187,1.076 m -1.732,3.24 0.404,2.012 c -0.796,-0.153 -1.242,-0.586 -1.256,-1.117 0,-0.434 0.349,-0.685 0.852,-0.895 m 3.995,-2.878 c 0,-1.857 -1.494,-3.1 -3.828,-3.296 l -0.307,-1.537 h -1.397 l 0.308,1.537 c -1.328,0.126 -2.501,0.544 -3.214,1.076 l 0.936,1.732 c 0.74,-0.545 1.676,-0.894 2.64,-0.992 l 0.475,2.361 c -1.298,0.391 -2.724,0.907 -2.724,2.599 0,1.857 1.523,3.114 3.898,3.283 l 0.307,1.536 h 1.397 l -0.307,-1.551 c 0.992,-0.097 1.9,-0.378 2.57,-0.796 l -0.851,-1.732 c -0.602,0.404 -1.328,0.643 -2.083,0.727 l -0.488,-2.459 c 1.285,-0.378 2.668,-0.88 2.668,-2.488"
         class="I"
         id="path1812" />
      <path
         d="m 110.767,294.112 h 49.434"
         id="path1814" />
      <path
         d="m 160.201,293.112 h -49.434 v 2 h 49.434 z"
         class="J"
         id="path1816"
         style="fill:#ff2a2a" />
      <path
         d="m 110.767,326.952 h 49.434"
         id="path1818" />
      <path
         d="m 160.201,325.952 h -49.434 v 2 h 49.434 z"
         class="J"
         id="path1820"
         style="fill:#ff5555" />
      <path
         d="m 110.767,358.604 h 49.434"
         id="path1822" />
      <path
         d="m 160.201,357.604 h -49.434 v 2 h 49.434 z"
         class="J"
         id="path1824"
         style="fill:#ff5555" />
      <path
         d="m 143.594,342.774 a 8.51,8.51 0 0 0 -8.509,-8.509 8.51,8.51 0 0 0 -8.509,8.509 8.51,8.51 0 0 0 8.509,8.509 8.51,8.51 0 0 0 8.509,-8.509"
         class="L"
         id="path1826" />
      <g
         class="I"
         id="g1836">
        <g
           clip-path="url(#T)"
           class="K"
           id="g1830">
          <path
             d="m 143.594,342.774 a 8.51,8.51 0 0 0 -8.509,-8.509 8.51,8.51 0 0 0 -8.509,8.509 8.51,8.51 0 0 0 8.509,8.509 8.51,8.51 0 0 0 8.509,-8.509"
             id="path1828" />
        </g>
        <path
           d="m 139.894,345.299 -7.333,-7.333 -2.285,2.285 7.333,7.333 z"
           id="path1832" />
        <path
           d="m 132.561,347.584 7.333,-7.333 -2.285,-2.285 -7.333,7.333 z"
           id="path1834" />
      </g>
    </g>
  </g>
  <use
     xlink:href="#Y"
     x="21.834"
     y="48.456001"
     class="I"
     id="use1842"
     width="100%"
     height="100%"
     transform="translate(-0.12811665,0.00192131)" />
  <g
     clip-path="url(#U)"
     transform="matrix(0.352778,0,0,-0.352778,-84.876478,123.22994)"
     id="g1882">
    <g
       class="I"
       id="g1846">
      <path
         d="m 266.363,233.891 c 1.595,1.452 3.287,1.194 4.165,0.905 0.77,1.985 2.428,4.245 5.989,4.245 6.346,0 6.854,-6.243 6.854,-6.243 4.468,1.353 5.331,-2.6 5.331,-2.757 h -24.014 c 0,2.549 1.675,3.85 1.675,3.85 M 452.54,327.9 c 1.162,0 2.251,-0.314 3.195,-0.86 1.805,3.147 5.135,5.267 8.956,5.267 3.568,0 6.714,-1.844 8.585,-4.652 0.988,3.382 4.044,5.849 7.666,5.849 4.112,0 7.494,-3.177 7.95,-7.264 0.33,0.053 0.667,0.089 1.011,0.089 2.508,0 4.681,-1.452 5.773,-3.579 h -49.478 c 0.677,2.951 3.256,5.15 6.342,5.15"
         id="path1844" />
    </g>
    <path
       d="m 359.101,345.89 a 3.42,3.42 0 0 0 -3.418,-3.417 3.42,3.42 0 0 0 -3.418,3.417 3.42,3.42 0 0 0 3.418,3.418 3.42,3.42 0 0 0 3.418,-3.418"
       class="N"
       id="path1848"
       style="fill:#ff2a2a" />
    <path
       d="m 280.535,274.477 c 0,-1.263 -1.023,-2.286 -2.286,-2.286 -1.263,0 -2.287,1.023 -2.287,2.286 a 2.29,2.29 0 0 0 2.287,2.287 c 1.263,0 2.286,-1.024 2.286,-2.287"
       class="M"
       id="path1850"
       style="fill:#ff5555" />
    <path
       d="m 371.963,286.499 -1.37,0.734 c -0.086,0.046 -0.155,0.117 -0.202,0.202 l -0.735,1.371 c -0.185,0.346 -0.682,0.346 -0.869,0 l -0.734,-1.371 c -0.046,-0.085 -0.116,-0.156 -0.202,-0.202 l -1.37,-0.734 c -0.347,-0.186 -0.347,-0.683 0,-0.869 l 1.37,-0.735 c 0.086,-0.046 0.156,-0.116 0.202,-0.201 l 0.734,-1.371 c 0.187,-0.346 0.684,-0.346 0.869,0 l 0.735,1.371 a 0.5,0.5 0 0 0 0.202,0.201 l 1.37,0.735 c 0.347,0.186 0.347,0.683 0,0.869"
       class="N"
       id="path1852"
       style="fill:#d40000" />
    <g
       fill="#c1ddf7"
       id="g1856">
      <path
         d="m 291.218,332.346 -1.728,0.926 a 0.62,0.62 0 0 0 -0.253,0.254 l -0.926,1.727 c -0.235,0.437 -0.862,0.437 -1.096,0 l -0.926,-1.727 a 0.61,0.61 0 0 0 -0.254,-0.254 l -1.726,-0.926 a 0.62,0.62 0 0 1 0,-1.095 l 1.726,-0.926 a 0.61,0.61 0 0 0 0.254,-0.254 l 0.926,-1.727 c 0.234,-0.437 0.861,-0.437 1.096,0 l 0.926,1.727 a 0.62,0.62 0 0 0 0.253,0.254 l 1.728,0.926 a 0.62,0.62 0 0 1 0,1.095 m 119.805,-34.686 -2.089,1.12 c -0.13,0.07 -0.237,0.177 -0.307,0.307 l -1.12,2.089 c -0.283,0.528 -1.041,0.528 -1.324,0 l -1.12,-2.089 a 0.75,0.75 0 0 0 -0.307,-0.307 l -2.088,-1.12 a 0.75,0.75 0 0 1 0,-1.324 l 2.088,-1.12 a 0.75,0.75 0 0 0 0.307,-0.307 l 1.12,-2.088 a 0.75,0.75 0 0 1 1.324,0 l 1.12,2.088 c 0.07,0.13 0.177,0.237 0.307,0.307 l 2.089,1.12 c 0.528,0.283 0.528,1.041 0,1.324"
         id="path1854"
         style="fill:#ff2a2a" />
    </g>
    <g
       class="M"
       id="g1860">
      <path
         d="m 248.244,305.702 -1.912,1.025 a 0.68,0.68 0 0 0 -0.281,0.282 l -1.026,1.912 a 0.69,0.69 0 0 1 -1.212,0 l -1.026,-1.912 a 0.68,0.68 0 0 0 -0.281,-0.282 l -1.912,-1.025 a 0.69,0.69 0 0 1 0,-1.212 l 1.912,-1.026 a 0.68,0.68 0 0 0 0.281,-0.281 l 1.026,-1.912 a 0.69,0.69 0 0 1 1.212,0 l 1.026,1.912 a 0.68,0.68 0 0 0 0.281,0.281 l 1.912,1.026 a 0.69,0.69 0 0 1 0,1.212 m 127.684,11.921 -1.399,0.75 a 0.5,0.5 0 0 0 -0.205,0.206 l -0.751,1.399 c -0.19,0.354 -0.698,0.354 -0.887,0 l -0.751,-1.399 a 0.51,0.51 0 0 0 -0.205,-0.206 l -1.4,-0.75 c -0.354,-0.19 -0.354,-0.697 0,-0.887 l 1.4,-0.751 c 0.087,-0.047 0.158,-0.118 0.205,-0.205 l 0.751,-1.4 c 0.189,-0.354 0.697,-0.354 0.887,0 l 0.751,1.4 a 0.5,0.5 0 0 0 0.205,0.205 l 1.399,0.751 c 0.354,0.19 0.354,0.697 0,0.887"
         id="path1858"
         style="fill:#ff8080" />
    </g>
    <path
       d="m 336.99,122.987 h -19.927 v 93.588 h 19.927 z"
       class="I"
       id="path1862" />
    <path
       d="m 334.641,211.231 a 7.29,7.29 0 0 1 -7.287,7.287 7.29,7.29 0 0 1 -7.287,-7.287 c 0,0 -0.942,-17.23 7.287,-26.402 8.228,9.172 7.287,26.402 7.287,26.402"
       class="N"
       id="path1864"
       style="fill:#ff8080" />
    <g
       class="M"
       id="g1868">
      <path
         d="m 301.904,250.691 c 0,0 -27.288,-13.215 -16.476,-52.186 0,0 5.775,19.59 24.288,24.663 z m 51.145,0 c 0,0 27.288,-13.215 16.475,-52.186 0,0 -5.774,19.59 -24.287,24.663 z"
         id="path1866"
         style="fill:#d40000" />
    </g>
    <path
       d="m 336.332,215.04 h -18.548 c -0.732,0 -1.366,0.507 -1.528,1.221 l -1.018,4.491 a 1.57,1.57 0 0 0 1.528,1.913 h 20.584 a 1.57,1.57 0 0 0 1.528,-1.913 l -1.019,-4.491 c -0.161,-0.714 -0.796,-1.221 -1.527,-1.221"
       class="O"
       id="path1870"
       style="fill:#ff2a2a" />
    <path
       d="m 300.291,261.217 c 0,0 2.847,-26.137 11.645,-42.7 0,0 13.975,6.729 30.538,0 0,0 10.092,13.975 12.163,44.77 1.192,17.745 -0.233,38.006 -6.11,55.462 h -41.048 c -5.462,-14.22 -9.353,-33.316 -7.188,-57.532"
       fill="#c1ddf7"
       id="path1872"
       style="fill:#ececec" />
    <path
       d="m 324.178,347.07 c -4.129,-4.671 -11.208,-14.034 -16.698,-28.321 h 41.048 c -3.761,11.17 -9.341,21.194 -17.241,28.667 -2.033,1.923 -5.255,1.751 -7.109,-0.346"
       class="O"
       id="path1874"
       style="fill:#d40000" />
    <path
       d="m 326.747,262.481 c 0,0 -12.591,-28.609 0,-62.625 0,0 13.991,28.384 0,62.625"
       class="M"
       id="path1876"
       style="fill:#d40000" />
    <path
       d="m 343.76,289.028 a 15.84,15.84 0 0 0 -15.838,-15.837 15.84,15.84 0 0 0 -15.837,15.837 15.84,15.84 0 0 0 15.837,15.838 15.84,15.84 0 0 0 15.838,-15.838"
       class="O"
       id="path1878"
       style="fill:#ff8080" />
    <path
       d="m 338.917,289.028 c 0,-6.072 -4.922,-10.995 -10.995,-10.995 a 11,11 0 0 0 -10.995,10.995 11,11 0 0 0 10.995,10.995 c 6.073,0 10.995,-4.923 10.995,-10.995"
       class="I"
       id="path1880" />
  </g>
  <path
     d="m 153.38888,35.523921 c 0.41,0 0.794,0.111 1.127,0.303 0.637,-1.11 1.812,-1.858 3.159,-1.858 1.259,0 2.369,0.651 3.029,1.641 0.349,-1.193 1.427,-2.063 2.704,-2.063 1.451,0 2.644,1.121 2.805,2.563 0.116,-0.019 0.235,-0.031 0.357,-0.031 0.885,0 1.651,0.512 2.037,1.263 h -17.455 c 0.239,-1.041 1.149,-1.817 2.237,-1.817"
     class="I"
     id="path1884" />
</svg>
