<?xml version="1.0" encoding="UTF-8" standalone="no"?>
<svg
   data-name="Layer 1"
   width="1011.8458"
   height="852.56653"
   viewBox="0 0 1011.8458 852.56654"
   version="1.1"
   id="svg1050"
   sodipodi:docname="Local-SEO-Services-Netriches-Aruba.svg"
   inkscape:version="1.1.2 (0a00cf5339, 2022-02-04, custom)"
   xmlns:inkscape="http://www.inkscape.org/namespaces/inkscape"
   xmlns:sodipodi="http://sodipodi.sourceforge.net/DTD/sodipodi-0.dtd"
   xmlns:xlink="http://www.w3.org/1999/xlink"
   xmlns="http://www.w3.org/2000/svg"
   xmlns:svg="http://www.w3.org/2000/svg">
  <defs
     id="defs1054">
    <linearGradient
       id="a"
       x1="46.869633"
       x2="854.4834"
       y1="666.05511"
       y2="666.05511"
       gradientTransform="scale(1.1514919,0.86843861)"
       gradientUnits="userSpaceOnUse">
      <stop
         offset=".03"
         stop-color="#4079d8"
         id="stop1225" />
      <stop
         offset="1"
         stop-color="#4989f5"
         id="stop1227" />
    </linearGradient>
    <linearGradient
       inkscape:collect="always"
       xlink:href="#a"
       id="linearGradient1205"
       gradientUnits="userSpaceOnUse"
       gradientTransform="scale(1.1514919,0.86843861)"
       x1="46.869633"
       y1="666.05511"
       x2="854.4834"
       y2="666.05511" />
  </defs>
  <sodipodi:namedview
     id="namedview1052"
     pagecolor="#ffffff"
     bordercolor="#666666"
     borderopacity="1.0"
     inkscape:pageshadow="2"
     inkscape:pageopacity="0.0"
     inkscape:pagecheckerboard="0"
     showgrid="false"
     inkscape:zoom="0.5114367"
     inkscape:cx="941.46548"
     inkscape:cy="513.26"
     inkscape:window-width="1920"
     inkscape:window-height="991"
     inkscape:window-x="-9"
     inkscape:window-y="-9"
     inkscape:window-maximized="1"
     inkscape:current-layer="svg1050" />
  <path
     d="m 630.37142,799.94931 -0.15818,-0.014 -247.2092,-21.50107 -224.79581,19.55175 a 22.225582,20.809388 0 0 1 -24.186,-18.7955 q -0.0952,-0.95959 -0.0953,-1.92434 V 276.70124 a 22.126033,20.716182 0 0 1 20.16973,-20.71983 l 228.90737,-19.9097 0.15818,0.0141 247.20916,21.50104 224.79474,-19.55174 a 22.225593,20.809398 0 0 1 24.18615,18.79534 q 0.0952,0.95966 0.0953,1.92451 v 500.56447 a 22.126282,20.716414 0 0 1 -20.16963,20.72018 z"
     fill="#3f3d56"
     id="path1000"
     style="fill:#4d4d4d;stroke-width:1.00037" />
  <path
     d="M 478.52952,421.25594 C 430.67636,388.62529 380.32706,357.68345 328.89219,329.29472 l -2.58159,-1.4246 v 96.28311 H 482.77824 Z M 329.72986,420.9518 v -87.47118 c 48.93052,27.10014 96.8434,56.5053 142.5341,87.47119 z m 390.98083,198.17676 q -31.043,-30.21757 -63.69299,-59.05845 -9.00128,-7.95949 -18.11361,-15.79105 -55.61098,-47.82946 -114.88036,-90.97679 l -0.46165,-0.33612 H 326.3106 v 168.87561 h 397.18711 z m -390.98083,-0.48818 v -162.4728 h 192.66092 q 57.14992,41.62259 111.20478,87.9034 9.38585,8.03153 18.64387,16.19128 32.36339,28.47679 63.21424,58.37812 z m 390.98083,0.48818 q -31.043,-30.21757 -63.69299,-59.05845 -9.00128,-7.95949 -18.11361,-15.79105 -55.61098,-47.82946 -114.88036,-90.97679 l -0.46165,-0.33612 H 326.3106 v 168.87561 h 397.18711 z m -390.98083,-0.48818 v -162.4728 h 192.66092 q 57.14992,41.62259 111.20478,87.9034 9.38585,8.03153 18.64387,16.19128 32.36339,28.47679 63.21424,58.37812 z M 478.52952,421.25594 C 430.67636,388.62529 380.32706,357.68345 328.89219,329.29472 l -2.58159,-1.4246 v 96.28311 H 482.77824 Z M 329.72986,420.9518 v -87.47118 c 48.93052,27.10014 96.8434,56.5053 142.5341,87.47119 z m 148.79966,0.30414 C 430.67636,388.62529 380.32706,357.68345 328.89219,329.29472 l -2.58159,-1.4246 v 96.28311 H 482.77824 Z M 329.72986,420.9518 v -87.47118 c 48.93052,27.10014 96.8434,56.5053 142.5341,87.47119 z m 390.98083,198.17676 q -31.043,-30.21757 -63.69299,-59.05845 -9.00128,-7.95949 -18.11361,-15.79105 -55.61098,-47.82946 -114.88036,-90.97679 l -0.46165,-0.33612 H 326.3106 v 168.87561 h 397.18711 z m -390.98083,-0.48818 v -162.4728 h 192.66092 q 57.14992,41.62259 111.20478,87.9034 9.38585,8.03153 18.64387,16.19128 32.36339,28.47679 63.21424,58.37812 z m -172.65798,32.01433 v 3.20144 h 135.04561 v 46.42079 H 157.07188 v 3.20146 h 138.46491 v -52.82369 z m 169.23872,81.63658 v 32.43855 l 3.41932,-0.2962 v -28.94099 h 526.57367 v -3.20143 z m 529.99299,-78.43514 v -3.20144 H 326.3106 v 52.82369 h 529.99299 v -3.20146 H 329.72989 V 653.8561 Z M 536.98293,420.95178 A 1668.4204,1562.11 0 0 0 329.72989,293.09453 v -32.41451 l -3.41933,0.29613 v 32.66542 l 2.63292,2.71044 a 1664.9986,1558.9065 0 0 1 206.41496,127.46508 l 0.46164,0.33614 h 320.48351 v -3.20143 z m -244.86547,0 H 157.07188 v 3.20143 H 295.53679 V 263.64933 l -3.41932,0.29614 z m 564.18613,32.01437 H 574.56114 l 3.68435,2.83325 q 52.03285,40.08598 102.17731,85.03014 7.12942,6.38679 14.20735,12.87775 35.23587,32.23444 69.09576,66.5738 l 2.81893,1.56073 h 89.75874 v -3.20144 h -89.54322 q -33.4922,-33.99927 -68.43758,-66.02956 -6.98784,-6.4109 -14.02743,-12.73369 -49.05891,-44.0718 -100.21182,-83.70952 H 856.30359 Z M 157.07188,732.29126 v 3.20139 h 135.04561 v 32.2064 l 3.41932,-0.29611 v -35.11168 z m 0,-279.32511 v 3.20143 h 135.04561 v 162.4728 H 157.07188 v 3.20144 H 295.53679 V 452.96615 Z M 478.52951,421.25594 C 430.67634,388.62529 380.32706,357.68345 328.89218,329.29472 l -2.58159,-1.4246 v 96.28311 H 482.77824 Z M 329.72985,420.9518 v -87.47118 c 48.93051,27.10014 96.84341,56.5053 142.5341,87.47119 z m 390.98083,198.17676 q -31.043,-30.21757 -63.69299,-59.05845 -9.00127,-7.95949 -18.1136,-15.79105 -55.61098,-47.82946 -114.88036,-90.97679 l -0.46165,-0.33612 H 326.3106 v 168.87561 h 397.18711 z m -390.98083,-0.48818 v -162.4728 h 192.66093 q 57.14992,41.62259 111.20478,87.9034 9.38585,8.03153 18.64387,16.19128 32.36339,28.47679 63.21424,58.37812 z M 478.52952,421.25594 C 430.67636,388.62529 380.32706,357.68345 328.89219,329.29472 l -2.58159,-1.4246 v 96.28311 H 482.77824 Z M 329.72986,420.9518 v -87.47118 c 48.93052,27.10014 96.8434,56.5053 142.5341,87.47119 z m 390.98083,198.17676 q -31.043,-30.21757 -63.69299,-59.05845 -9.00128,-7.95949 -18.11361,-15.79105 -55.61098,-47.82946 -114.88036,-90.97679 l -0.46165,-0.33612 H 326.3106 v 168.87561 h 397.18711 z m -390.98083,-0.48818 v -162.4728 h 192.66092 q 57.14992,41.62259 111.20478,87.9034 9.38585,8.03153 18.64387,16.19128 32.36339,28.47679 63.21424,58.37812 z"
     fill="#ffffff"
     id="path1002"
     style="stroke-width:1.00037" />
  <ellipse
     cx="639.85504"
     cy="333.13242"
     fill="#ff6584"
     id="circle1010"
     style="fill:#0066ff;stroke-width:1.00037"
     rx="31.24625"
     ry="29.255266" />
  <path
     d="M 737.83975,423.28638 H 584.55502 a 3.1261925,2.9269943 0 0 1 -0.57282,-0.0424 L 656.47884,305.6708 a 5.0759998,4.7525617 0 0 1 8.83594,0 l 48.65433,78.90069 2.33094,3.77538 z"
     fill="#ffffff"
     id="path1012"
     style="stroke-width:1.00037" />
  <polygon
     points="561.052,153.413 563.306,157.313 584.141,193.409 533.519,193.409 558.369,157.313 560.157,154.713 "
     opacity="0.2"
     style="isolation:isolate"
     id="polygon1014"
     transform="matrix(1.0338486,0,0,0.96797267,133.92677,236.07171)" />
  <path
     d="M 823.18759,423.28638 H 690.60892 l 25.69114,-34.93951 1.84882,-2.51694 33.47789,-45.5329 c 2.19479,-2.98419 7.4748,-3.17002 10.05521,-0.56286 a 6.0511155,5.6655438 0 0 1 0.4821,0.56286 z"
     fill="#ffffff"
     id="path1016"
     style="stroke-width:1.00037" />
  <ellipse
     cx="833.02545"
     cy="574.21826"
     fill="#ffffff"
     id="circle1018"
     rx="15.814264"
     ry="14.806592"
     style="stroke-width:1.00037" />
  <polygon
     points="674.552,395.409 675.98,347.031 677.685,395.409 "
     fill="#cbcbcb"
     id="polygon1020"
     transform="matrix(1.0338486,0,0,0.96797267,133.92677,236.07171)" />
  <polygon
     points="676.256,356.2 679.62,351.546 676.21,357.352 675.842,356.707 "
     fill="#cbcbcb"
     id="polygon1022"
     transform="matrix(1.0338486,0,0,0.96797267,133.92677,236.07171)" />
  <polygon
     points="675.888,360.899 672.524,356.246 675.934,362.051 676.302,361.406 "
     fill="#cbcbcb"
     id="polygon1024"
     transform="matrix(1.0338486,0,0,0.96797267,133.92677,236.07171)" />
  <ellipse
     cx="788.0589"
     cy="552.94867"
     fill="#ffffff"
     id="circle1026"
     rx="23.356323"
     ry="21.86808"
     style="stroke-width:1.00037" />
  <polygon
     points="630.266,395.409 632.376,323.959 634.893,395.409 "
     fill="#cbcbcb"
     id="polygon1028"
     transform="matrix(1.0338486,0,0,0.96797267,133.92677,236.07171)" />
  <polygon
     points="632.784,337.5 637.751,330.628 632.716,339.202 632.172,338.249 "
     fill="#cbcbcb"
     id="polygon1030"
     transform="matrix(1.0338486,0,0,0.96797267,133.92677,236.07171)" />
  <polygon
     points="632.24,344.441 627.272,337.569 632.308,346.142 632.852,345.19 "
     fill="#cbcbcb"
     id="polygon1032"
     transform="matrix(1.0338486,0,0,0.96797267,133.92677,236.07171)" />
  <ellipse
     cx="245.79941"
     cy="574.21826"
     fill="#ffffff"
     id="circle1034"
     rx="15.814264"
     ry="14.806592"
     style="stroke-width:1.00037" />
  <polygon
     points="106.552,395.409 107.98,347.031 109.685,395.409 "
     fill="#cbcbcb"
     id="polygon1036"
     transform="matrix(1.0338486,0,0,0.96797267,133.92677,236.07171)" />
  <polygon
     points="108.256,356.2 111.62,351.546 108.21,357.352 107.842,356.707 "
     fill="#cbcbcb"
     id="polygon1038"
     transform="matrix(1.0338486,0,0,0.96797267,133.92677,236.07171)" />
  <polygon
     points="107.888,360.899 104.524,356.246 107.934,362.051 108.302,361.406 "
     fill="#cbcbcb"
     id="polygon1040"
     transform="matrix(1.0338486,0,0,0.96797267,133.92677,236.07171)" />
  <ellipse
     cx="200.83289"
     cy="552.94867"
     fill="#ffffff"
     id="circle1042"
     rx="23.356323"
     ry="21.86808"
     style="stroke-width:1.00037" />
  <polygon
     points="62.266,395.409 64.376,323.959 66.893,395.409 "
     fill="#cbcbcb"
     id="polygon1044"
     transform="matrix(1.0338486,0,0,0.96797267,133.92677,236.07171)" />
  <polygon
     points="64.784,337.5 69.751,330.628 64.716,339.202 64.172,338.249 "
     fill="#cbcbcb"
     id="polygon1046"
     transform="matrix(1.0338486,0,0,0.96797267,133.92677,236.07171)" />
  <polygon
     points="64.24,344.441 59.272,337.569 64.308,346.142 64.852,345.19 "
     fill="#cbcbcb"
     id="polygon1048"
     transform="matrix(1.0338486,0,0,0.96797267,133.92677,236.07171)" />
  <g
     fill="none"
     fill-rule="evenodd"
     id="g1256"
     transform="matrix(0.0712783,0,0,0.06124796,177.29717,313.65089)">
    <g
       fill-rule="nonzero"
       id="g1244">
      <rect
         fill="#4989f5"
         height="696.14001"
         rx="36.880001"
         width="931"
         x="53.450001"
         y="232.98"
         id="rect1230" />
      <path
         d="M 936.81,227.75 H 100.06 c -25.92,0 -46.09,200.6 -46.09,226.52 L 512.2,929.12 h 424.61 c 26,-0.071 47.059,-21.13 47.13,-47.13 V 274.87 c -0.077,-25.996 -21.134,-47.049 -47.13,-47.12 z"
         fill="url(#a)"
         id="path1232"
         style="fill:url(#linearGradient1205)" />
      <path
         d="m 266.03,349.56 h 266 V 0.44 H 305.86 Z"
         fill="#3c4ba6"
         id="path1234" />
      <path
         d="m 798.03,349.56 h -266 V 0.44 H 758.2 Z m 186.42,-282.94 0.33,1.19 C 984.7,67.39 984.54,67 984.45,66.62 Z"
         fill="#7babf7"
         id="path1236" />
      <path
         d="m 984.78,67.8 -0.33,-1.19 C 976.017,27.993 941.837,0.455 902.31,0.43 H 758.2 L 798,349.56 h 266 z"
         fill="#3f51b5"
         id="path1238" />
      <path
         d="m 79.61,66.62 -0.33,1.19 c 0.08,-0.42 0.24,-0.81 0.33,-1.19 z"
         fill="#7babf7"
         id="path1240" />
      <path
         d="M 79.27,67.8 79.6,66.61 C 88.033,27.993 122.213,0.455 161.74,0.43 H 305.86 L 266,349.56 H 0 Z"
         fill="#7babf7"
         id="path1242" />
    </g>
    <path
       d="m 266.48,349.47 c 0,73.412 -59.513,132.925 -132.925,132.925 C 60.143,482.395 0.63,422.882 0.63,349.47 Z"
       fill="#709be0"
       id="path1246" />
    <path
       d="m 532.33,349.47 c 0,73.412 -59.513,132.925 -132.925,132.925 -73.412,0 -132.925,-59.513 -132.925,-132.925 z"
       fill="#3c4ba6"
       id="path1248" />
    <path
       d="m 798.18,349.47 c 0,73.412 -59.513,132.925 -132.925,132.925 -73.412,0 -132.925,-59.513 -132.925,-132.925 z"
       fill="#709be0"
       id="path1250" />
    <path
       d="m 1064,349.47 c 0,73.412 -59.513,132.925 -132.925,132.925 -73.412,0 -132.925,-59.513 -132.925,-132.925 z"
       fill="#3c4ba6"
       id="path1252" />
    <path
       d="m 931.08,709.6 c -0.47,-6.33 -1.25,-12.11 -2.36,-19.49 h -145 c 0,20.28 0,42.41 -0.08,62.7 h 84 a 73.05,73.05 0 0 1 -30.75,46.89 c 0,0 0,-0.35 -0.06,-0.36 a 88,88 0 0 1 -34,13.27 99.85,99.85 0 0 1 -36.79,-0.16 91.9,91.9 0 0 1 -34.31,-14.87 95.72,95.72 0 0 1 -33.73,-43.1 c -0.52,-1.35 -1,-2.71 -1.49,-4.09 v -0.15 l 0.13,-0.1 A 93,93 0 0 1 696.59,690.3 96.27,96.27 0 0 1 718.9,654 c 23.587,-24.399 58.829,-33.576 91.32,-23.78 a 83,83 0 0 1 33.23,19.56 l 28.34,-28.34 c 5,-5.05 10.19,-9.94 15,-15.16 a 149.78,149.78 0 0 0 -49.64,-30.74 156.08,156.08 0 0 0 -103.83,-0.91 c -1.173,0.4 -2.34,0.817 -3.5,1.25 A 155.18,155.18 0 0 0 646,651 152.61,152.61 0 0 0 632.58,689.78 c -16.052,79.772 32.623,158.294 111.21,179.4 25.69,6.88 53,6.71 78.89,0.83 a 139.88,139.88 0 0 0 63.14,-32.81 c 18.64,-17.15 32,-40 39,-64.27 a 179,179 0 0 0 6.26,-63.33 z"
       fill="#ffffff"
       fill-rule="nonzero"
       id="path1254" />
  </g>
  <path
     d="m 460.50397,441.29868 c -7.9366,-2.32254 -16.44019,-3.59334 -25.2272,-3.59334 -25.65228,0 -48.61178,10.73616 -63.96539,27.65111 l 39.44691,30.76241 z"
     fill="#1a73e8"
     id="path13786"
     style="stroke-width:4.54993" />
  <path
     d="m 371.31138,465.35645 a 83.216534,77.190859 0 0 0 -19.55819,49.78076 c 0,14.5486 3.118,26.38031 8.2674,36.94118 l 50.7377,-55.95953 z"
     fill="#ea4335"
     id="path13788"
     style="stroke-width:4.54993" />
  <path
     d="m 435.27677,485.55798 a 31.954393,29.640589 0 0 1 24.37681,48.77287 l 49.69849,-54.82018 a 83.542502,77.493224 0 0 0 -48.8953,-38.16818 l -49.65119,54.8202 a 31.841012,29.535418 0 0 1 24.47119,-10.60471"
     fill="#4285f4"
     id="path13790"
     style="stroke-width:4.54993" />
  <path
     d="m 435.27677,544.80409 c -17.62119,0 -31.93549,-13.27779 -31.93549,-29.62306 a 31.652045,29.360134 0 0 1 7.4643,-19.01835 l -50.78499,55.95954 c 8.69249,17.83518 23.10119,32.16469 37.93519,50.21897 l 61.6978,-68.01034 a 31.897702,29.588003 0 0 1 -24.37681,10.47324"
     fill="#fbbc04"
     id="path13792"
     style="stroke-width:4.54993" />
  <path
     d="m 458.42527,620.87753 c 27.8728,-40.40306 60.3279,-58.7641 60.3279,-105.74031 0,-12.88339 -3.4014,-25.02185 -9.4011,-35.71419 L 398.00298,602.3412 c 4.7242,5.74055 9.4956,11.83169 14.1253,18.58014 16.91259,24.27689 12.2357,38.8255 23.14849,38.8255 10.91291,0 6.236,-14.59243 23.1485,-38.86931"
     fill="#34a853"
     id="path13794"
     style="stroke-width:4.54993" />
  <g
     id="g6902"
     transform="matrix(0.88172973,0,0,0.867504,66.022605,-248.20075)">
    <path
       class="st0"
       d="m 142.9,486.6 v 10 h 23.8 c -0.7,5.6 -2.6,9.7 -5.4,12.6 -3.5,3.5 -8.9,7.3 -18.4,7.3 -14.7,0 -26.1,-11.8 -26.1,-26.5 0,-14.7 11.5,-26.5 26.1,-26.5 7.9,0 13.7,3.1 17.9,7.1 l 7,-7 c -5.9,-5.7 -13.8,-10.1 -24.9,-10.1 -20.1,0 -37,16.4 -37,36.4 0,20.1 16.9,36.4 37,36.4 10.9,0 19,-3.6 25.4,-10.2 6.6,-6.6 8.6,-15.8 8.6,-23.3 0,-2.3 -0.2,-4.5 -0.5,-6.2 z"
       id="path6870"
       style="fill:#2a7fff" />
    <path
       class="st1"
       d="m 206.7,516.3 c -7.1,0 -13.3,-5.9 -13.3,-14.3 0,-8.5 6.2,-14.3 13.3,-14.3 7.1,0 13.3,5.8 13.3,14.3 0,8.4 -6.2,14.3 -13.3,14.3 z m 0,-37.8 c -13,0 -23.6,9.9 -23.6,23.5 0,13.5 10.6,23.5 23.6,23.5 13,0 23.6,-10 23.6,-23.5 0,-13.6 -10.6,-23.5 -23.6,-23.5 z"
       id="path6872"
       style="fill:#ff0000" />
    <path
       class="st0"
       d="m 310.5,516.3 c -7.1,0 -12.6,-6.1 -12.6,-14.3 0,-8.3 5.4,-14.3 12.6,-14.3 7,0 12.6,6.1 12.6,14.3 0,8.3 -5.5,14.3 -12.6,14.3 z m 11.9,-32.5 H 322 c -2.3,-2.8 -6.8,-5.3 -12.4,-5.3 -11.7,0 -22,10.2 -22,23.5 0,13.2 10.2,23.5 22,23.5 5.6,0 10.1,-2.5 12.4,-5.3 h 0.4 v 3.3 c 0,9 -4.8,13.8 -12.6,13.8 -6.3,0 -10.2,-4.5 -11.9,-8.4 l -9,3.7 c 2.6,6.2 9.4,13.9 20.9,13.9 12.1,0 22.4,-7.1 22.4,-24.5 v -42.3 h -9.8 z"
       id="path6874"
       style="fill:#2a7fff" />
    <path
       class="st2"
       d="m 259.3,516.3 c -7.1,0 -13.3,-5.9 -13.3,-14.3 0,-8.5 6.2,-14.3 13.3,-14.3 7.1,0 13.3,5.8 13.3,14.3 0,8.4 -6.2,14.3 -13.3,14.3 z m 0,-37.8 c -13,0 -23.6,9.9 -23.6,23.5 0,13.5 10.6,23.5 23.6,23.5 13,0 23.6,-10 23.6,-23.5 0,-13.6 -10.6,-23.5 -23.6,-23.5 z"
       id="path6876"
       style="fill:#ffd42a" />
    <rect
       x="340.29999"
       y="454.39999"
       class="st3"
       width="10.2"
       height="71.099998"
       id="rect6878"
       style="fill:#00aa44" />
    <path
       class="st1"
       d="m 381.1,487.3 c 4.2,0 7.7,2.1 8.9,5.2 l -21.3,8.8 c 0.1,-9.9 7.1,-14 12.4,-14 z m 0.7,29 c -5.3,0 -9,-2.4 -11.4,-7.1 l 31.5,-13 -1.1,-2.7 c -1.9,-5.3 -7.9,-15 -20.1,-15 -12.1,0 -22.2,9.5 -22.2,23.5 0,13.2 10,23.5 23.3,23.5 10.8,0 17,-6.6 19.6,-10.4 l -8,-5.3 c -2.7,3.9 -6.3,6.5 -11.6,6.5 z"
       id="path6880"
       style="fill:#ff2a2a" />
    <polygon
       class="st4"
       points="427.7,526.3 435.9,526.3 435.9,488.5 435.5,477.8 435.9,477.8 455.8,512.8 460.6,512.8 480.6,477.8 481,477.8 480.6,488.5 480.6,526.3 488.8,526.3 488.8,462.6 480.6,462.6 458.4,501.4 458.1,501.4 435.9,462.6 427.7,462.6 "
       id="polygon6882" />
    <polygon
       class="st4"
       points="511,545.6 538.3,482.7 529.4,482.7 516.8,514 516.6,514 503.6,482.7 494.7,482.7 512.7,523.6 502.5,545.6 "
       id="polygon6884" />
    <path
       class="st4"
       d="m 589,497.6 c 3.1,0 5.8,1 7.8,3.1 2.1,2.1 3.1,4.5 3.1,7.3 0,2.9 -1,5.3 -3,7.4 -2.1,2.1 -4.6,3.1 -7.6,3.1 h -16.5 v -20.9 z m -0.9,-27.2 c 2.8,0 5.1,1 7,2.9 1.9,2 2.9,4.3 2.9,6.8 0,2.6 -1,4.8 -2.9,6.9 -2,2 -4.4,2.9 -7.3,2.9 h -14.9 v -19.5 z m 0.9,55.9 c 5.4,0 9.9,-1.7 13.6,-5.2 3.8,-3.4 5.7,-7.8 5.7,-13 0,-3.4 -1,-6.4 -2.9,-9 -2,-2.6 -4.6,-4.5 -7.8,-5.6 v -0.4 c 5.8,-2.6 8.6,-7 8.6,-13.3 0,-5 -1.8,-9.1 -5.4,-12.4 -3.6,-3.3 -8,-5 -13,-5 h -23.1 v 63.8 H 589 Z"
       id="path6886" />
    <path
       class="st4"
       d="m 654.5,482.7 h -8.2 v 24.1 c 0,3.7 -1.1,6.8 -3.3,9.5 -2.2,2.6 -4.9,4 -8.2,4 -7,0 -10.6,-3.6 -10.8,-10.7 v -26.9 h -8.2 v 27.4 c 0,5.6 1.4,10 4.3,13 2.9,3.1 7,4.6 12.3,4.6 2.8,0 5.5,-0.7 8.1,-2.1 2.6,-1.4 4.5,-3.2 5.7,-5.3 h 0.4 v 6.1 h 7.8 v -43.7 z"
       id="path6888" />
    <path
       class="st4"
       d="m 684.4,501.1 -6.6,-1.7 c -4.7,-1.1 -7,-2.9 -7,-5.3 0,-1.5 0.8,-2.9 2.5,-3.9 1.7,-1.1 3.6,-1.6 5.7,-1.6 2.3,0 4.4,0.5 6.3,1.6 1.9,1 3.2,2.5 4.1,4.3 l 7.3,-3 c -1.2,-3.1 -3.4,-5.6 -6.5,-7.4 -3.1,-1.8 -6.6,-2.8 -10.5,-2.8 -5,0 -9.2,1.2 -12.4,3.6 -3.2,2.4 -4.9,5.6 -4.9,9.6 0,6.1 4.2,10.2 12.7,12.3 l 7.5,1.9 c 4.3,1.3 6.4,3.4 6.4,6.1 0,1.5 -0.9,2.9 -2.6,4 -1.8,1.1 -3.9,1.7 -6.5,1.7 -2.4,0 -4.7,-0.7 -6.7,-2.2 -2,-1.5 -3.6,-3.5 -4.7,-6.1 l -7.3,3.1 c 1.4,3.7 3.8,6.8 7.1,9 3.3,2.3 7.2,3.4 11.6,3.4 5,0 9.2,-1.3 12.6,-3.9 3.3,-2.6 5,-5.8 5,-9.6 -0.1,-6.6 -4.4,-10.9 -13.1,-13.1 z"
       id="path6890" />
    <path
       class="st4"
       d="m 704.8,482.7 v 43.6 h 8.2 v -43.6 z m 8.2,-19.2 c -1.1,-1.1 -2.5,-1.7 -4.1,-1.7 -1.6,0 -3,0.6 -4.1,1.7 -1.1,1.1 -1.7,2.5 -1.7,4.1 0,1.6 0.6,3 1.7,4.1 1.1,1.1 2.5,1.7 4.1,1.7 1.6,0 3,-0.6 4.1,-1.7 1.1,-1.1 1.7,-2.5 1.7,-4.1 0,-1.6 -0.6,-2.9 -1.7,-4.1 z"
       id="path6892" />
    <path
       class="st4"
       d="m 723.7,526.3 h 8.2 v -24.1 c 0,-3.7 1.1,-6.8 3.3,-9.5 2.2,-2.6 4.9,-4 8.2,-4 7,0 10.6,3.6 10.8,10.7 v 26.9 h 8.2 v -27.4 c 0,-5.6 -1.4,-10 -4.3,-13 -2.9,-3.1 -7,-4.6 -12.3,-4.6 -2.8,0 -5.5,0.7 -8.1,2.1 -2.6,1.4 -4.5,3.2 -5.7,5.3 h -0.4 v -6.1 h -7.8 v 43.7 z"
       id="path6894" />
    <path
       class="st4"
       d="m 782.9,491.6 c 2.2,-1.9 4.9,-2.9 8,-2.9 3.7,0 6.7,1 9,3 2.2,2 3.5,4.5 3.7,7.5 h -25 c 0.6,-3.1 2.1,-5.7 4.3,-7.6 z m 20.5,33 c 3.5,-2.1 6.2,-5 8.2,-8.6 l -7.3,-3.6 c -3,5.2 -7.1,7.8 -12.3,7.8 -3.8,0 -7.1,-1.3 -9.8,-3.9 -2.7,-2.6 -4.2,-6.1 -4.3,-10.3 h 34.3 l 0.1,-0.9 c 0,-7.5 -1.9,-13.4 -5.7,-17.6 -3.8,-4.2 -9,-6.3 -15.5,-6.3 -6.3,0 -11.5,2.2 -15.5,6.6 -4,4.4 -6.1,10 -6.1,16.6 0,6.7 2.1,12.3 6.2,16.7 4.2,4.4 9.4,6.6 15.9,6.6 4.4,0.1 8.3,-1 11.8,-3.1 z"
       id="path6896" />
    <path
       class="st4"
       d="m 840.6,501.1 -6.6,-1.7 c -4.7,-1.1 -7,-2.9 -7,-5.3 0,-1.5 0.8,-2.9 2.5,-3.9 1.7,-1.1 3.6,-1.6 5.7,-1.6 2.3,0 4.4,0.5 6.3,1.6 1.9,1 3.2,2.5 4.1,4.3 l 7.3,-3 c -1.2,-3.1 -3.4,-5.6 -6.5,-7.4 -3.1,-1.8 -6.6,-2.8 -10.5,-2.8 -5,0 -9.2,1.2 -12.4,3.6 -3.2,2.4 -4.9,5.6 -4.9,9.6 0,6.1 4.2,10.2 12.7,12.3 l 7.5,1.9 c 4.3,1.3 6.4,3.4 6.4,6.1 0,1.5 -0.9,2.9 -2.6,4 -1.8,1.1 -3.9,1.7 -6.5,1.7 -2.4,0 -4.7,-0.7 -6.7,-2.2 -2,-1.5 -3.6,-3.5 -4.7,-6.1 l -7.3,3.1 c 1.4,3.7 3.8,6.8 7.1,9 3.3,2.3 7.2,3.4 11.6,3.4 5,0 9.2,-1.3 12.6,-3.9 3.3,-2.6 5,-5.8 5,-9.6 -0.1,-6.6 -4.5,-10.9 -13.1,-13.1 z"
       id="path6898" />
    <path
       class="st4"
       d="m 881.1,501.1 -6.6,-1.7 c -4.7,-1.1 -7,-2.9 -7,-5.3 0,-1.5 0.8,-2.9 2.5,-3.9 1.7,-1.1 3.6,-1.6 5.7,-1.6 2.3,0 4.4,0.5 6.3,1.6 1.9,1 3.2,2.5 4.1,4.3 l 7.3,-3 c -1.2,-3.1 -3.4,-5.6 -6.5,-7.4 -3.1,-1.8 -6.6,-2.8 -10.5,-2.8 -5,0 -9.2,1.2 -12.4,3.6 -3.2,2.4 -4.9,5.6 -4.9,9.6 0,6.1 4.2,10.2 12.7,12.3 l 7.5,1.9 c 4.3,1.3 6.4,3.4 6.4,6.1 0,1.5 -0.9,2.9 -2.6,4 -1.8,1.1 -3.9,1.7 -6.5,1.7 -2.4,0 -4.7,-0.7 -6.7,-2.2 -2,-1.5 -3.6,-3.5 -4.7,-6.1 l -7.3,3.1 c 1.4,3.7 3.8,6.8 7.1,9 3.3,2.3 7.2,3.4 11.6,3.4 5,0 9.2,-1.3 12.6,-3.9 3.3,-2.6 5,-5.8 5,-9.6 -0.1,-6.6 -4.4,-10.9 -13.1,-13.1 z"
       id="path6900" />
  </g>
  <ellipse
     cx="435.49741"
     cy="681.05872"
     fill="#009cff"
     id="circle1008"
     rx="16.134773"
     ry="15.432281"
     style="fill:#34a853;fill-opacity:1;stroke-width:0.771927" />
</svg>
