<?xml version="1.0" encoding="UTF-8" standalone="no"?>
<svg
   data-name="Layer 1"
   width="731.41339"
   height="522.40206"
   viewBox="0 0 731.41339 522.40206"
   version="1.1"
   id="svg946"
   sodipodi:docname="Netriches-Aruba-Graphic-Design-Services.svg"
   inkscape:version="1.1.2 (0a00cf5339, 2022-02-04, custom)"
   xmlns:inkscape="http://www.inkscape.org/namespaces/inkscape"
   xmlns:sodipodi="http://sodipodi.sourceforge.net/DTD/sodipodi-0.dtd"
   xmlns="http://www.w3.org/2000/svg"
   xmlns:svg="http://www.w3.org/2000/svg">
  <defs
     id="defs950" />
  <sodipodi:namedview
     id="namedview948"
     pagecolor="#ffffff"
     bordercolor="#666666"
     borderopacity="1.0"
     inkscape:pageshadow="2"
     inkscape:pageopacity="0.0"
     inkscape:pagecheckerboard="0"
     showgrid="false"
     inkscape:zoom="1.0408939"
     inkscape:cx="365.55117"
     inkscape:cy="260.83349"
     inkscape:window-width="1920"
     inkscape:window-height="991"
     inkscape:window-x="-9"
     inkscape:window-y="-9"
     inkscape:window-maximized="1"
     inkscape:current-layer="svg946" />
  <rect
     y="333.52029"
     width="436"
     height="2"
     fill="#e6e6e6"
     id="rect916"
     x="147.44212"
     style="fill:#4d4d4d" />
  <rect
     y="255.52031"
     width="436"
     height="2"
     fill="#e6e6e6"
     id="rect918"
     x="147.44212"
     style="fill:#4d4d4d" />
  <rect
     y="177.52031"
     width="436"
     height="2"
     fill="#e6e6e6"
     id="rect920"
     x="147.44212"
     style="fill:#4d4d4d" />
  <rect
     x="495.24216"
     width="2"
     height="312"
     fill="#e6e6e6"
     id="rect922"
     y="100.52032"
     style="fill:#4d4d4d" />
  <rect
     x="408.04221"
     width="2"
     height="312"
     fill="#e6e6e6"
     id="rect924"
     y="100.52032"
     style="fill:#4d4d4d" />
  <rect
     x="320.84213"
     width="2"
     height="312"
     fill="#e6e6e6"
     id="rect926"
     y="100.52032"
     style="fill:#4d4d4d" />
  <rect
     x="233.64207"
     width="2"
     height="312"
     fill="#e6e6e6"
     id="rect928"
     y="100.52032"
     style="fill:#4d4d4d" />
  <rect
     x="234.44212"
     y="178.52031"
     width="175"
     height="78"
     fill="#ff0000"
     id="rect930" />
  <path
     d="M 322.36338,250.58334"
     fill="#ff0000"
     id="path932" />
  <polygon
     points="87,150 87,234 178,153 "
     fill="#ff0000"
     id="polygon934"
     transform="translate(147.44212,100.52032)" />
  <path
     d="m 409.44212,253.52034 v 3 l -1.14014,1.01 -2.2998,2.04 c -44.73,1.35 -80.85987,33.39 -82.49024,73.12 l -2.0498,1.82 -0.02,0.01 v -84 z"
     fill="#ff0000"
     id="path936" />
  <path
     d="m 408.94212,257.52034 c -0.21,0 -0.43018,0 -0.64014,0.01 -47.57959,0.3 -86.25,34.62 -86.83984,76.98 -0.02,0.34 -0.02,0.67 -0.02,1.01 0,43.01 39.25,78 87.5,78 48.25,0 87.5,-34.99 87.5,-78 0,-43.01 -39.25002,-78 -87.50002,-78 z m 0,154 c -47.14014,0 -85.5,-34.09 -85.5,-76 0,-0.95 0.02,-1.89 0.0698,-2.83 1.63037,-39.73 37.76026,-71.77 82.49024,-73.12 0.97021,-0.04 1.9497,-0.05 2.93994,-0.05 47.14013,0 85.5,34.09 85.5,76 0,41.91 -38.35987,76 -85.5,76 z"
     fill="#e6e6e6"
     id="path938"
     style="fill:#4d4d4d" />
  <path
     d="m 360.94212,334.53642 -5,-0.0278 c 0.002,-0.44482 0.803,-44.48047 51.95117,-47.53467 l 0.29785,4.99121 c -46.38806,2.76999 -47.23572,40.94773 -47.24902,42.57126 z"
     fill="#e6e6e6"
     id="path940" />
  <path
     d="m 459.4221,333.52034 a 42.53605,42.53605 0 0 0 -13.98,-30.11 53.43668,53.43668 0 0 0 -36.39991,-13.95 h -0.10009 c -27.46973,0 -49.89014,19.67 -50.48,44.06 -0.02,0.33 -0.02,0.67 -0.02,1 0,12.76 5.97021,24.29 15.5498,32.49 a 53.64325,53.64325 0 0 0 34.9502,12.57 h 0.10009 c 27.79981,-0.05 50.39991,-20.24 50.39991,-45.06 2e-5,-0.33 2e-5,-0.67 -0.02,-1 z"
     fill="#e6e6e6"
     id="path942"
     style="fill:#ffffff" />
  <path
     d="m 445.44212,303.41034 -1.5,1.33 -68.4502,60.94 -1.5,1.33 c -9.57959,-8.2 -15.5498,-19.73 -15.5498,-32.49 0,-0.33 0,-0.67 0.02,-1 0.58984,-24.39 23.01025,-44.06 50.48,-44.06 h 0.10009 a 53.43668,53.43668 0 0 1 36.39991,13.95 z"
     fill="#ff0000"
     id="path944"
     style="fill:#ff0000" />
</svg>
