<svg xmlns="http://www.w3.org/2000/svg" xmlns:svg="http://www.w3.org/2000/svg" id="svg946" width="370.785" height="290.305" data-name="Layer 1" version="1.1" viewBox="0 0 370.785 290.305"><rect id="rect916" width="370.785" height="1.855" x="0" y="216.105" fill="#e6e6e6" style="stroke-width:.88812"/><rect id="rect918" width="370.785" height="1.855" x="0" y="143.761" fill="#e6e6e6" style="stroke-width:.88812"/><rect id="rect920" width="370.785" height="1.855" x="0" y="71.417" fill="#e6e6e6" style="stroke-width:.88812"/><rect id="rect922" width="1.701" height="289.376" x="295.777" y="0" fill="#e6e6e6" style="stroke-width:.88812"/><rect id="rect924" width="1.701" height="289.376" x="221.62" y="0" fill="#e6e6e6" style="stroke-width:.88812"/><rect id="rect926" width="1.701" height="289.376" x="147.463" y="0" fill="#e6e6e6" style="stroke-width:.88812"/><rect id="rect928" width="1.701" height="289.376" x="73.306" y="0" fill="#e6e6e6" style="stroke-width:.88812"/><rect id="rect930" width="148.824" height="72.344" x="73.987" y="72.344" fill="#fd0007" style="stroke-width:.88812;fill:red"/><path id="path932" fill="#fd0007" d="M 148.75716,139.18168" style="stroke-width:.88812"/><polygon id="polygon934" fill="#fd0007" points="178 153 87 150 87 234" transform="scale(0.85042353,0.9274881)" style="fill:red"/><path id="path936" fill="#fd0007" d="m 222.81097,141.90571 v 2.78246 l -0.96961,0.93676 -1.9558,1.89209 c -38.03944,1.25211 -68.76514,30.96881 -70.15165,67.81791 l -1.74319,1.68803 -0.017,0.01 v -77.909 z" style="stroke-width:.88812;fill:red"/><path id="path938" fill="#e6e6e6" d="m 222.38576,145.61566 c -0.17859,0 -0.36584,0 -0.5444,0.01 -40.4628,0.27824 -73.34903,32.10963 -73.85064,71.39803 -0.017,0.31534 -0.017,0.62142 -0.017,0.93676 0,39.89128 33.37912,72.34408 74.41206,72.34408 41.03294,0 74.41206,-32.4528 74.41206,-72.34408 0,-39.89126 -33.37914,-72.34407 -74.41207,-72.34407 z m 0,142.83317 c -40.08909,0 -72.71122,-31.61807 -72.71122,-70.4891 0,-0.88111 0.017,-1.75295 0.0594,-2.6248 1.38651,-36.8491 32.11222,-66.5658 70.15165,-67.81791 0.82508,-0.0371 1.65807,-0.0463 2.5002,-0.0463 40.08907,0 72.7112,31.61806 72.7112,70.48909 0,38.87103 -32.62213,70.4891 -72.7112,70.4891 z" style="stroke-width:.88812"/><path id="path940" fill="#e6e6e6" d="m 181.56542,217.04716 -4.25212,-0.0258 c 0.002,-0.41256 0.6829,-41.25511 44.18051,-44.08784 l 0.25329,4.62928 c -39.4495,2.56916 -40.17036,37.97855 -40.18168,39.48437 z" style="stroke-width:.88812"/><path id="path942" fill="#e6e6e6" d="m 265.31511,216.10476 a 36.173658,39.45168 0 0 0 -11.88892,-27.92667 45.44381,49.561885 0 0 0 -30.95534,-12.93846 h -0.0851 c -23.36091,0 -42.42775,18.24368 -42.92938,40.86513 -0.017,0.30607 -0.017,0.62141 -0.017,0.92749 0,11.83474 5.0772,22.52867 13.22391,30.13408 a 45.619482,49.753476 0 0 0 29.72248,11.65853 h 0.0851 c 23.64162,-0.0463 42.86127,-18.77236 42.86127,-41.79261 2e-5,-0.30608 2e-5,-0.62142 -0.017,-0.92749 z" style="stroke-width:.88812"/><path id="path944" fill="#fd0007" d="m 253.42621,188.17809 -1.27563,1.23355 -58.21167,56.52113 -1.27563,1.23356 c -8.14671,-7.60541 -13.22392,-18.29934 -13.22392,-30.13408 0,-0.30608 0,-0.62142 0.017,-0.92749 0.50161,-22.62145 19.56845,-40.86513 42.92938,-40.86513 h 0.0851 a 45.44381,49.561885 0 0 1 30.95534,12.93846 z" style="stroke-width:.88812;fill:#f20000;fill-opacity:1"/></svg>