<?xml version="1.0" encoding="UTF-8" standalone="no"?>
<svg
   viewBox="0 0 500 500"
   version="1.1"
   id="svg11882"
   sodipodi:docname="Metrics-Netriches-Aruba.svg"
   inkscape:version="1.1.2 (0a00cf5339, 2022-02-04, custom)"
   xmlns:inkscape="http://www.inkscape.org/namespaces/inkscape"
   xmlns:sodipodi="http://sodipodi.sourceforge.net/DTD/sodipodi-0.dtd"
   xmlns="http://www.w3.org/2000/svg"
   xmlns:svg="http://www.w3.org/2000/svg">
  <defs
     id="defs11886" />
  <sodipodi:namedview
     id="namedview11884"
     pagecolor="#ffffff"
     bordercolor="#666666"
     borderopacity="1.0"
     inkscape:pageshadow="2"
     inkscape:pageopacity="0.0"
     inkscape:pagecheckerboard="0"
     showgrid="false"
     inkscape:zoom="1"
     inkscape:cx="168.5"
     inkscape:cy="165"
     inkscape:window-width="1920"
     inkscape:window-height="991"
     inkscape:window-x="-9"
     inkscape:window-y="-9"
     inkscape:window-maximized="1"
     inkscape:current-layer="svg11882" />
  <g
     id="freepik--background-complete--inject-291">
    <path
       d="M468.83,326.48s0-.43,0-1.26,0-2.06,0-3.66c0-3.2,0-7.89,0-13.88,0-11.95,0-29.07-.06-49.71l.12.12-86.1,0h0l.15-.15c0,24.73,0,48.11,0,68.51l-.14-.13,62.21.07,17.62,0,4.67,0H462.6l-17.59,0-62.29.07h-.13v-.14c0-20.4,0-43.78,0-68.51v-.15h.16l86.1,0H469V258c0,20.68,0,37.82-.07,49.79,0,6,0,10.66,0,13.85,0,1.59,0,2.81,0,3.64S468.83,326.48,468.83,326.48Z"
       style="fill:#e0e0e0"
       id="path11415" />
    <rect
       x="393.85"
       y="270.67"
       width="3.11"
       height="34.77"
       style="fill:#e0e0e0"
       id="rect11417" />
    <rect
       x="399.86"
       y="282.48"
       width="3.11"
       height="22.96"
       style="fill:#ebebeb"
       id="rect11419" />
    <rect
       x="405.88"
       y="274.99"
       width="3.11"
       height="30.63"
       style="fill:#ff0000"
       id="rect11421" />
    <rect
       x="411.89"
       y="272.01"
       width="3.11"
       height="33.43"
       style="fill:#ebebeb"
       id="rect11423" />
    <rect
       x="417.9"
       y="283.18"
       width="3.11"
       height="22.26"
       style="fill:#e0e0e0"
       id="rect11425" />
    <rect
       x="423.91"
       y="287.55"
       width="3.11"
       height="17.89"
       style="fill:#ff5555"
       id="rect11427" />
    <rect
       x="429.92"
       y="274.24"
       width="3.11"
       height="31.21"
       style="fill:#d40000"
       id="rect11429" />
    <rect
       x="435.93"
       y="279.86"
       width="3.11"
       height="25.58"
       style="fill:#ebebeb"
       id="rect11431" />
    <rect
       x="441.94"
       y="275.37"
       width="3.11"
       height="30.07"
       style="fill:#e0e0e0"
       id="rect11433" />
    <rect
       x="447.95"
       y="284.95"
       width="3.11"
       height="20.49"
       style="fill:#ebebeb"
       id="rect11435" />
    <rect
       x="453.97"
       y="281.05"
       width="3.11"
       height="24.39"
       style="fill:#ff0000"
       id="rect11437" />
    <path
       d="M458.35,307.86c0,.07-14.77.13-33,.13s-33-.06-33-.13,14.76-.13,33-.13S458.35,307.79,458.35,307.86Z"
       style="fill:#e0e0e0"
       id="path11439" />
    <path
       d="M398.29,310.6a20.59,20.59,0,0,1-4.62,0,20.59,20.59,0,0,1,4.62,0Z"
       style="fill:#e0e0e0"
       id="path11441" />
    <path
       d="M406,310.74a29.36,29.36,0,0,1-5.52,0,29.36,29.36,0,0,1,5.52,0Z"
       style="fill:#e0e0e0"
       id="path11443" />
    <path
       d="M412.5,310.74a29.47,29.47,0,0,1-5.53,0,29.47,29.47,0,0,1,5.53,0Z"
       style="fill:#e0e0e0"
       id="path11445" />
    <path
       d="M419,310.74a29.36,29.36,0,0,1-5.52,0,29.36,29.36,0,0,1,5.52,0Z"
       style="fill:#e0e0e0"
       id="path11447" />
    <path
       d="M425.57,310.74a29.36,29.36,0,0,1-5.52,0,29.36,29.36,0,0,1,5.52,0Z"
       style="fill:#e0e0e0"
       id="path11449" />
    <path
       d="M432.11,310.74a29.36,29.36,0,0,1-5.52,0,29.36,29.36,0,0,1,5.52,0Z"
       style="fill:#e0e0e0"
       id="path11451" />
    <path
       d="M438.65,310.74a29.47,29.47,0,0,1-5.53,0,29.47,29.47,0,0,1,5.53,0Z"
       style="fill:#e0e0e0"
       id="path11453" />
    <path
       d="M445.19,310.74a29.47,29.47,0,0,1-5.53,0,29.47,29.47,0,0,1,5.53,0Z"
       style="fill:#e0e0e0"
       id="path11455" />
    <path
       d="M451.72,310.74a29.36,29.36,0,0,1-5.52,0,29.36,29.36,0,0,1,5.52,0Z"
       style="fill:#e0e0e0"
       id="path11457" />
    <path
       d="M458.26,310.74a29.36,29.36,0,0,1-5.52,0,29.36,29.36,0,0,1,5.52,0Z"
       style="fill:#e0e0e0"
       id="path11459" />
    <polygon
       points="131.7 487.37 137.65 487.28 150.81 371.73 144.94 371.05 131.7 487.37"
       style="fill:#e0e0e0"
       id="polygon11461" />
    <polygon
       points="166.61 487.37 172.57 487.28 185.72 371.73 179.86 371.05 166.61 487.37"
       style="fill:#e0e0e0"
       id="polygon11463" />
    <polygon
       points="271.86 487.59 265.9 487.5 252.75 373 258.61 372.33 271.86 487.59"
       style="fill:#e0e0e0"
       id="polygon11465" />
    <polygon
       points="233.46 487.59 227.51 487.5 214.35 373 220.22 372.33 233.46 487.59"
       style="fill:#e0e0e0"
       id="polygon11467" />
    <rect
       x="142.12"
       y="368.92"
       width="120.18"
       height="12.45"
       transform="translate(404.43 750.29) rotate(180)"
       style="fill:#ebebeb"
       id="rect11469" />
    <polygon
       points="218.07 239.6 141.93 240.54 142.12 369.76 227.09 370.49 218.07 239.6"
       style="fill:#ebebeb"
       id="polygon11471" />
    <path
       d="M150.81,369.25s-.17.27-.53.79-.91,1.3-1.63,2.31c-1.45,2.06-3.61,5.1-6.43,9.09l-.1-.18,120.18.11-.28.29c0-4,0-8.34,0-12.74l.29.29-46.17.15-65.32.17h-.28v-.28c0-37.58.08-69.76.1-92.55,0-11.38.07-20.41.09-26.62,0-3.09,0-5.47,0-7.09,0-.8,0-1.4,0-1.83s0-.62,0-.62,0,.21,0,.62,0,1,0,1.83c0,1.62,0,4,0,7.09,0,6.21,0,15.24.08,26.62,0,22.79.07,55,.11,92.55l-.28-.29,65.32-.2,46.17-.13h.3V382h-.29l-120.18-.46h-.22l.13-.18,6.53-9,1.67-2.29C150.61,369.49,150.81,369.25,150.81,369.25Z"
       style="fill:#e0e0e0"
       id="path11473" />
    <path
       d="M45.69,280.85v24.93H41.78v2.71h3.91v16.68h73.07V310h-5.41v-3.31h5.41v-5h2.4v-2.25h-2.85V280.85Z"
       style="fill:#f5f5f5"
       id="path11475" />
    <polygon
       points="99.36 280.92 99.36 324.9 118.76 324.9 118.76 309.71 113.35 309.71 113.35 306.68 118.76 306.79 118.76 301.82 121.21 301.83 121.16 299.26 118.31 299.19 118.31 280.85 99.36 280.92"
       style="fill:#e0e0e0"
       id="polygon11477" />
    <path
       d="M100.74,308.13c0,.15-13.22.27-29.53.27s-29.53-.12-29.53-.27,13.22-.28,29.53-.28S100.74,308,100.74,308.13Z"
       style="fill:#e0e0e0"
       id="path11479" />
    <path
       d="M100.74,305.6c0,.15-13.22.27-29.53.27s-29.53-.12-29.53-.27,13.22-.28,29.53-.28S100.74,305.44,100.74,305.6Z"
       style="fill:#e0e0e0"
       id="path11481" />
    <path
       d="M104.53,298.78c0,.15-13.22.28-29.53.28s-29.53-.13-29.53-.28,13.22-.28,29.53-.28S104.53,298.63,104.53,298.78Z"
       style="fill:#e0e0e0"
       id="path11483" />
    <path
       d="M104.9,317.35c0,.16-13.23.28-29.53.28s-29.53-.12-29.53-.28,13.22-.27,29.53-.27S104.9,317.2,104.9,317.35Z"
       style="fill:#e0e0e0"
       id="path11485" />
    <rect
       x="252.37"
       y="275.06"
       width="65.02"
       height="5.04"
       style="fill:#ebebeb"
       id="rect11487" />
    <rect
       x="299.53"
       y="275.06"
       width="17.85"
       height="5.04"
       style="fill:#e0e0e0"
       id="rect11489" />
    <path
       d="M244.11,280.1v22.72h-3.56v2.46h3.56v15.21h66.58V306.65h-4.94v-3h4.94v-4.52h2.19v-2.06h-2.61v-17Z"
       style="fill:#f5f5f5"
       id="path11491" />
    <polygon
       points="293.01 280.17 293.01 320.24 310.69 320.24 310.69 306.4 305.75 306.4 305.75 303.64 310.69 303.64 310.69 299.12 312.88 299.12 312.88 296.81 310.27 296.81 310.27 280.1 293.01 280.17"
       style="fill:#e0e0e0"
       id="polygon11493" />
    <path
       d="M294.27,305c0,.14-12,.25-26.91.25s-26.91-.11-26.91-.25,12.05-.25,26.91-.25S294.27,304.82,294.27,305Z"
       style="fill:#e0e0e0"
       id="path11495" />
    <path
       d="M294.27,302.65c0,.14-12,.25-26.91.25s-26.91-.11-26.91-.25,12.05-.25,26.91-.25S294.27,302.51,294.27,302.65Z"
       style="fill:#e0e0e0"
       id="path11497" />
    <path
       d="M297.72,296.44c0,.14-12.05.25-26.9.25s-26.91-.11-26.91-.25,12.05-.25,26.91-.25S297.72,296.3,297.72,296.44Z"
       style="fill:#e0e0e0"
       id="path11499" />
    <path
       d="M298.05,313.36c0,.14-12,.26-26.9.26s-26.91-.12-26.91-.26,12.05-.25,26.91-.25S298.05,313.22,298.05,313.36Z"
       style="fill:#e0e0e0"
       id="path11501" />
    <path
       d="M250.7,234.67v22.71h-3.57v2.47h3.57v15.21h66.57V261.22h-4.93v-3h4.93v-4.52h2.19v-2.06h-2.6v-17Z"
       style="fill:#f5f5f5"
       id="path11503" />
    <polygon
       points="299.59 234.73 299.59 274.8 317.27 274.8 317.27 260.97 312.34 260.97 312.34 258.21 317.27 258.3 317.27 253.78 319.5 253.78 319.46 251.45 316.86 251.38 316.86 234.67 299.59 234.73"
       style="fill:#e0e0e0"
       id="polygon11505" />
    <path
       d="M300.85,259.52c0,.14-12.05.26-26.9.26s-26.91-.12-26.91-.26,12-.25,26.91-.25S300.85,259.39,300.85,259.52Z"
       style="fill:#e0e0e0"
       id="path11507" />
    <path
       d="M300.85,257.22c0,.14-12.05.25-26.9.25s-26.91-.11-26.91-.25,12-.26,26.91-.26S300.85,257.08,300.85,257.22Z"
       style="fill:#e0e0e0"
       id="path11509" />
    <path
       d="M304.31,251c0,.13-12.05.25-26.91.25s-26.9-.12-26.9-.25,12-.26,26.9-.26S304.31,250.87,304.31,251Z"
       style="fill:#e0e0e0"
       id="path11511" />
    <path
       d="M304.64,267.93c0,.14-12.05.25-26.9.25s-26.91-.11-26.91-.25,12-.25,26.91-.25S304.64,267.79,304.64,267.93Z"
       style="fill:#e0e0e0"
       id="path11513" />
    <rect
       x="248.01"
       y="320.26"
       width="65.02"
       height="5.04"
       style="fill:#ebebeb"
       id="rect11515" />
    <rect
       x="295.17"
       y="320.26"
       width="17.85"
       height="5.04"
       style="fill:#e0e0e0"
       id="rect11517" />
  </g>
  <g
     id="freepik--Plant--inject-291">
    <path
       d="M129.72,422.93c-.06.08-.63-.25-1.25-.75s-1.08-1-1-1.06.63.25,1.25.75S129.79,422.85,129.72,422.93Z"
       style="fill:#263238"
       id="path11520" />
    <path
       d="M146.78,397.44a19.83,19.83,0,0,0-.58-7.09,7,7,0,0,0-4.83-4.83c-2.67-.55-5.4,1.13-6.89,3.41s-2,5-2.45,7.72a272.5,272.5,0,0,0-3.34,56.05l10.9,1.53C144.38,434.66,145.91,417.56,146.78,397.44Z"
       style="fill:#455a64"
       id="path11522" />
    <path
       d="M139.85,385.44s0,.06,0,.17-.1.3-.18.5c-.17.46-.42,1.09-.72,1.88-.15.41-.36.86-.52,1.36s-.34,1.06-.53,1.65-.39,1.23-.61,1.9-.37,1.41-.56,2.16a95.27,95.27,0,0,0-2.11,10.79c-.59,4.1-1,8.65-1.28,13.42-.56,9.55-.64,18.22-.89,24.49-.12,3.14-.22,5.67-.34,7.43-.06.85-.11,1.52-.14,2,0,.21,0,.38,0,.53s0,.17,0,.17,0-.06,0-.18v-.52c0-.5,0-1.17.06-2,.08-1.75.14-4.29.22-7.43.18-6.27.22-14.94.78-24.51.31-4.78.71-9.33,1.32-13.44A90.25,90.25,0,0,1,136.41,395c.21-.75.41-1.48.59-2.16s.44-1.3.65-1.89.38-1.14.56-1.65.38-1,.55-1.35c.33-.79.6-1.41.79-1.86l.22-.48Z"
       style="fill:#263238"
       id="path11524" />
    <path
       d="M140.86,385.44a7.93,7.93,0,0,1,1.34,2.26,16.83,16.83,0,0,1,1,7.05c-.29,6-.83,14.33-1.55,23.5s-1.52,17.45-2.16,23.44c-.32,3-.6,5.42-.81,7.09l-.24,1.93c0,.2-.06.36-.08.5l0,.16s0-.06,0-.17,0-.3,0-.5c0-.48.1-1.12.17-1.93.17-1.72.4-4.13.69-7.11.57-6,1.32-14.28,2-23.44s1.3-17.47,1.65-23.48a17,17,0,0,0-.85-7A14.47,14.47,0,0,0,140.86,385.44Z"
       style="fill:#263238"
       id="path11526" />
    <path
       d="M148.42,413.66a5.58,5.58,0,0,1-2.06-.53,6.18,6.18,0,0,1-1.94-.9,6.13,6.13,0,0,1,2.07.53A6.05,6.05,0,0,1,148.42,413.66Z"
       style="fill:#263238"
       id="path11528" />
    <path
       d="M149.74,402.55a6.73,6.73,0,0,1-2,1.1,6.62,6.62,0,0,1-2.12.73,6.53,6.53,0,0,1,2-1.09A6.44,6.44,0,0,1,149.74,402.55Z"
       style="fill:#263238"
       id="path11530" />
    <path
       d="M149.06,393.48a3.48,3.48,0,0,1-1.63.09,3.58,3.58,0,0,1-1.6-.31,3.56,3.56,0,0,1,1.63-.08A3.7,3.7,0,0,1,149.06,393.48Z"
       style="fill:#263238"
       id="path11532" />
    <path
       d="M137.8,387.67c-.09.06-.56-.54-1.06-1.33a3.9,3.9,0,0,1-.74-1.53c.09-.06.57.53,1.07,1.33S137.9,387.61,137.8,387.67Z"
       style="fill:#263238"
       id="path11534" />
    <path
       d="M134.09,393.15a3.15,3.15,0,0,1-1.55.17c-.86,0-1.55-.12-1.54-.23s.69-.18,1.55-.16A3.45,3.45,0,0,1,134.09,393.15Z"
       style="fill:#263238"
       id="path11536" />
    <path
       d="M131.42,404.13a3.76,3.76,0,0,1-1.63-.45c-.86-.35-1.53-.71-1.49-.81a3.76,3.76,0,0,1,1.63.45C130.79,403.67,131.46,404,131.42,404.13Z"
       style="fill:#263238"
       id="path11538" />
    <path
       d="M131.13,413.36c0,.1-.6.32-1.39.49s-1.44.21-1.46.1.6-.32,1.38-.49S131.11,413.25,131.13,413.36Z"
       style="fill:#263238"
       id="path11540" />
    <path
       d="M129.88,428.45c0,.11-.65.31-1.48.46s-1.52.19-1.54.08a3.27,3.27,0,0,1,1.47-.46C129.17,428.38,129.86,428.34,129.88,428.45Z"
       style="fill:#263238"
       id="path11542" />
    <path
       d="M129,436.78c.05.1-.5.49-1.23.87s-1.36.62-1.41.53.5-.49,1.23-.87S129,436.69,129,436.78Z"
       style="fill:#263238"
       id="path11544" />
    <path
       d="M135.85,446.24c-.1.05-.58-.61-1.08-1.48a4.54,4.54,0,0,1-.73-1.67c.1,0,.57.61,1.07,1.48A4.54,4.54,0,0,1,135.85,446.24Z"
       style="fill:#263238"
       id="path11546" />
    <path
       d="M137.81,430.52c.07.08-.46.73-1.19,1.45s-1.39,1.24-1.47,1.16.46-.72,1.19-1.44S137.73,430.45,137.81,430.52Z"
       style="fill:#263238"
       id="path11548" />
    <path
       d="M137.37,422.28c-.07.07-.57-.34-1.1-.91s-.9-1.1-.82-1.17.57.33,1.1.91S137.45,422.2,137.37,422.28Z"
       style="fill:#263238"
       id="path11550" />
    <path
       d="M138.72,411.74c.08.07-.36.7-1,1.4s-1.2,1.22-1.28,1.14.36-.7,1-1.4S138.64,411.67,138.72,411.74Z"
       style="fill:#263238"
       id="path11552" />
    <path
       d="M139.48,404.09c-.07.08-.69-.41-1.38-1.08s-1.19-1.3-1.12-1.37.7.41,1.39,1.09S139.56,404,139.48,404.09Z"
       style="fill:#263238"
       id="path11554" />
    <path
       d="M141,393.76a3.88,3.88,0,0,1-.7,1.55c-.48.79-.94,1.4-1,1.34a3.87,3.87,0,0,1,.7-1.54C140.42,394.31,140.88,393.7,141,393.76Z"
       style="fill:#263238"
       id="path11556" />
    <path
       d="M143.78,384.18c.1.05-.18.74-.61,1.55s-.87,1.41-1,1.36a3.75,3.75,0,0,1,.62-1.55C143.26,384.74,143.69,384.13,143.78,384.18Z"
       style="fill:#263238"
       id="path11558" />
    <path
       d="M147,388.53c.05.1-.39.4-1,.68s-1.1.43-1.15.33.39-.4,1-.68S146.92,388.43,147,388.53Z"
       style="fill:#263238"
       id="path11560" />
    <path
       d="M147.05,422.93a4.38,4.38,0,0,1-2.14-.52,4.26,4.26,0,0,1-1.84-1.18,11.6,11.6,0,0,1,2,.83A10.78,10.78,0,0,1,147.05,422.93Z"
       style="fill:#263238"
       id="path11562" />
    <path
       d="M145.74,430.22c0,.1-.63.32-1.46.48a3.27,3.27,0,0,1-1.54.1c0-.11.63-.32,1.46-.48S145.72,430.11,145.74,430.22Z"
       style="fill:#263238"
       id="path11564" />
    <path
       d="M144.14,442.71a4.3,4.3,0,0,1-1.66-1.46,4.18,4.18,0,0,1-1-1.95,12.68,12.68,0,0,1,1.35,1.71A12.46,12.46,0,0,1,144.14,442.71Z"
       style="fill:#263238"
       id="path11566" />
    <path
       d="M126.62,448.42c-.07-.08.37-.57,1-1.1s1.17-.89,1.24-.8-.37.57-1,1.1S126.69,448.51,126.62,448.42Z"
       style="fill:#263238"
       id="path11568" />
    <path
       d="M121.58,421.16c-.71-2.22-2-4.8-4.37-4.84a3.88,3.88,0,0,0-3.27,2.19,8.09,8.09,0,0,0-.88,4,104.15,104.15,0,0,0,5,29.05h8.51A101.09,101.09,0,0,0,121.58,421.16Z"
       style="fill:#455a64"
       id="path11570" />
    <path
       d="M106.18,407.21a9.46,9.46,0,0,0-8.86-7.57c-3.76.66-5.22,4.36-5.67,8.16s.73,7.57,1.9,11.21q5.6,17.52,11.2,35.05l10.59-1.16C112,437.25,110.07,422.74,106.18,407.21Z"
       style="fill:#455a64"
       id="path11572" />
    <path
       d="M117.21,416.32a10,10,0,0,0-.72,1.21,7.89,7.89,0,0,0-.4,3.76c.17,1.62.35,3.57.62,5.7s.67,4.49,1.14,6.93c1,4.89,2.05,9.28,2.74,12.48.35,1.6.61,2.9.78,3.8l.18,1a1.61,1.61,0,0,1,0,.36,1.4,1.4,0,0,1-.11-.35l-.25-1c-.23-1-.53-2.22-.9-3.77-.76-3.18-1.88-7.56-2.85-12.46-.48-2.46-.85-4.81-1.11-7-.14-1.08-.23-2.1-.32-3.06s-.18-1.85-.22-2.67a7.73,7.73,0,0,1,.53-3.84A3.36,3.36,0,0,1,117.21,416.32Z"
       style="fill:#263238"
       id="path11574" />
    <path
       d="M97.47,399.34a14.19,14.19,0,0,0-1.28,1.72,12.12,12.12,0,0,0-1.61,5.54,25.79,25.79,0,0,0,1.31,8.53l3,10.24c2.12,7.26,4,13.83,5.43,18.63.66,2.36,1.21,4.28,1.6,5.66.17.64.31,1.15.41,1.54a3.51,3.51,0,0,1,.12.55,3.38,3.38,0,0,1-.19-.53c-.13-.38-.29-.89-.49-1.52-.42-1.37-1-3.28-1.72-5.62-1.42-4.8-3.37-11.36-5.53-18.6l-3-10.26a25.27,25.27,0,0,1-1.24-8.64,11.82,11.82,0,0,1,1.76-5.6A6.37,6.37,0,0,1,97.47,399.34Z"
       style="fill:#263238"
       id="path11576" />
    <path
       d="M113,451.77a4.46,4.46,0,0,1-.24-.51c-.13-.34-.36-.83-.6-1.49-.5-1.3-1.15-3.22-1.82-5.62s-1.33-5.31-2-8.54-1.29-6.8-2-10.54-1.56-7.26-2.51-10.4a58.28,58.28,0,0,0-3.08-8.16A42.54,42.54,0,0,0,98,401.36c-.36-.59-.69-1-.89-1.33a3,3,0,0,1-.3-.48,2.54,2.54,0,0,1,.36.43c.22.3.57.71,1,1.3a38.31,38.31,0,0,1,3,5.11,55,55,0,0,1,3.19,8.17A104.31,104.31,0,0,1,106.78,425c.7,3.74,1.36,7.3,2,10.55s1.25,6.13,1.89,8.53,1.23,4.33,1.69,5.65c.22.66.42,1.16.54,1.51A2.15,2.15,0,0,1,113,451.77Z"
       style="fill:#263238"
       id="path11578" />
    <path
       d="M93.74,417.26c0,.1-.56.33-1.29.51s-1.35.24-1.38.13.55-.33,1.29-.51S93.71,417.15,93.74,417.26Z"
       style="fill:#263238"
       id="path11580" />
    <path
       d="M92.61,410a5.19,5.19,0,0,1-1.78.19,5.2,5.2,0,0,1-1.8-.05,3.74,3.74,0,0,1,1.78-.34A3.56,3.56,0,0,1,92.61,410Z"
       style="fill:#263238"
       id="path11582" />
    <path
       d="M93.81,403.43c-.07.08-.65-.29-1.29-.84s-1.1-1-1-1.13.64.29,1.28.84S93.88,403.35,93.81,403.43Z"
       style="fill:#263238"
       id="path11584" />
    <path
       d="M97,397.32c.1,0,.07.54.06,1.16s0,1.14-.13,1.15-.28-.5-.26-1.16S96.94,397.29,97,397.32Z"
       style="fill:#263238"
       id="path11586" />
    <path
       d="M103.64,400.2c.09.06-.17.58-.58,1.16s-.81,1-.9.94.18-.58.58-1.16S103.55,400.13,103.64,400.2Z"
       style="fill:#263238"
       id="path11588" />
    <path
       d="M107.92,407.64c0,.1-.5.42-1.22.71s-1.33.45-1.37.35.5-.42,1.22-.71S107.88,407.54,107.92,407.64Z"
       style="fill:#263238"
       id="path11590" />
    <path
       d="M110.52,415.3a3.17,3.17,0,0,1-1.68.73,3.11,3.11,0,0,1-1.83.06,7.2,7.2,0,0,1,1.75-.44A6.65,6.65,0,0,1,110.52,415.3Z"
       style="fill:#263238"
       id="path11592" />
    <path
       d="M98.59,413.12c-.1,0,0-.56.17-1.18s.43-1.1.53-1.07,0,.57-.16,1.19S98.69,413.15,98.59,413.12Z"
       style="fill:#263238"
       id="path11594" />
    <path
       d="M100.25,422.74a3.89,3.89,0,0,1,.48-1.6c.37-.83.74-1.48.84-1.43a3.73,3.73,0,0,1-.48,1.59C100.73,422.14,100.35,422.78,100.25,422.74Z"
       style="fill:#263238"
       id="path11596" />
    <path
       d="M96.14,425.37a3.76,3.76,0,0,1-1.52-.34c-.81-.25-1.47-.48-1.45-.59a2.9,2.9,0,0,1,1.56.22C95.56,424.92,96.18,425.27,96.14,425.37Z"
       style="fill:#263238"
       id="path11598" />
    <path
       d="M98.51,433.21c.07.08-.39.52-1,1s-1.18.73-1.24.64.39-.51,1-1S98.45,433.12,98.51,433.21Z"
       style="fill:#263238"
       id="path11600" />
    <path
       d="M100.41,441c0,.11-.53.33-1.25.51s-1.32.23-1.34.12.53-.33,1.25-.5S100.39,440.92,100.41,441Z"
       style="fill:#263238"
       id="path11602" />
    <path
       d="M110.73,421.83c.06.09-.42.47-1.12.73s-1.31.29-1.33.19.53-.3,1.19-.55S110.68,421.73,110.73,421.83Z"
       style="fill:#263238"
       id="path11604" />
    <path
       d="M112.21,434c0,.1-.62-.07-1.28-.38s-1.16-.64-1.11-.74.62.08,1.28.39S112.25,433.89,112.21,434Z"
       style="fill:#263238"
       id="path11606" />
    <path
       d="M114.81,442.69a4.12,4.12,0,0,1-1.69-.46c-.89-.35-1.58-.71-1.54-.81a4,4,0,0,1,1.69.45C114.16,442.22,114.85,442.59,114.81,442.69Z"
       style="fill:#263238"
       id="path11608" />
    <path
       d="M100.83,449.5c0-.1.64-.56,1.44-1.2a7.8,7.8,0,0,1,1.51-1.12c.08.07-.43.78-1.26,1.43A3.5,3.5,0,0,1,100.83,449.5Z"
       style="fill:#263238"
       id="path11610" />
    <path
       d="M107.71,445.08c-.11,0-.26-.57-.52-1.25s-.55-1.22-.46-1.28.54.4.82,1.14S107.81,445.07,107.71,445.08Z"
       style="fill:#263238"
       id="path11612" />
    <path
       d="M105.89,434.61c-.07.09-.51-.12-1-.47s-.82-.7-.76-.79.51.13,1,.47S106,434.53,105.89,434.61Z"
       style="fill:#263238"
       id="path11614" />
    <path
       d="M121.92,418.21c.07.09-.37.52-1,1s-1.14.73-1.2.64.37-.51,1-.95S121.86,418.13,121.92,418.21Z"
       style="fill:#263238"
       id="path11616" />
    <path
       d="M124.34,424.82c0,.11-.67.25-1.51.16s-1.47-.38-1.43-.48a4.69,4.69,0,0,1,1.48.09C123.67,424.68,124.33,424.71,124.34,424.82Z"
       style="fill:#263238"
       id="path11618" />
    <path
       d="M114,426.3c0,.11-.6.33-1.41.38a2.39,2.39,0,0,1-1.46-.18c0-.11.65-.15,1.43-.2A3.92,3.92,0,0,1,114,426.3Z"
       style="fill:#263238"
       id="path11620" />
    <path
       d="M114.84,420.06c0,.1-.64.12-1.33-.2s-1.1-.81-1-.89.55.25,1.18.53S114.86,420,114.84,420.06Z"
       style="fill:#263238"
       id="path11622" />
    <path
       d="M125.23,431.92c-.06.09-.7-.22-1.45-.69s-1.3-.92-1.24-1,.71.21,1.45.68S125.29,431.82,125.23,431.92Z"
       style="fill:#263238"
       id="path11624" />
    <rect
       x="95.15"
       y="450.46"
       width="55.43"
       height="9.82"
       style="fill:#FF1E00"
       id="rect11626" />
    <polygon
       points="99.29 458.33 106.03 487.69 139.07 487.69 146.44 458.33 99.29 458.33"
       style="fill:#FF1E00"
       id="polygon11628" />
    <path
       d="M150.55,460.29c0,.11-12.5.2-27.92.2s-27.92-.09-27.92-.2,12.5-.19,27.92-.19S150.55,460.19,150.55,460.29Z"
       style="fill:#263238"
       id="path11630" />
    <path
       d="M119.73,426.52c-.09.06-.47-.39-.85-1s-.61-1.13-.52-1.19.47.38.85,1S119.82,426.46,119.73,426.52Z"
       style="fill:#263238"
       id="path11632" />
    <path
       d="M119.75,434.42c-.11,0,0-.7.29-1.49s.55-1.4.66-1.37,0,.7-.29,1.49S119.85,434.46,119.75,434.42Z"
       style="fill:#263238"
       id="path11634" />
    <path
       d="M122.45,442.72c-.09,0-.51-.62-.92-1.48a4.13,4.13,0,0,1-.58-1.65c.1,0,.51.62.93,1.48A4,4,0,0,1,122.45,442.72Z"
       style="fill:#263238"
       id="path11636" />
    <path
       d="M116.6,449.4c-.08-.07.25-.59.74-1.15s1-1,1-.9-.25.59-.74,1.15S116.68,449.47,116.6,449.4Z"
       style="fill:#263238"
       id="path11638" />
    <path
       d="M115.37,437.27c0,.11-.55.11-1.19,0s-1.14-.29-1.13-.39.56-.1,1.2,0S115.39,437.17,115.37,437.27Z"
       style="fill:#263238"
       id="path11640" />
  </g>
  <g
     id="freepik--Floor--inject-291">
    <path
       d="M471.47,487.38c0,.14-99.16.26-221.46.26s-221.48-.12-221.48-.26,99.14-.27,221.48-.27S471.47,487.23,471.47,487.38Z"
       style="fill:#263238"
       id="path11643" />
  </g>
  <g
     id="freepik--Screens--inject-291">
    <polygon
       points="274.12 198.12 280.46 198.1 280.25 123.72 171.92 124.03 172.14 198.41 261.94 198.15 273.36 210.35 274.12 198.12"
       style="fill:#f5f5f5"
       id="polygon11646" />
    <path
       d="M180.26,190.43c-.13,0-.27-12.61-.32-28.17s0-28.19.16-28.19.27,12.62.31,28.18S180.39,190.43,180.26,190.43Z"
       style="fill:#263238"
       id="path11648" />
    <path
       d="M274.25,182.4c0,.13-21.13.3-47.19.37s-47.18,0-47.19-.1,21.13-.3,47.19-.37S274.24,182.27,274.25,182.4Z"
       style="fill:#ebebeb"
       id="path11650" />
    <path
       d="M274.22,174.13c0,.13-21.13.3-47.18.37s-47.19,0-47.19-.1S201,174.11,227,174,274.22,174,274.22,174.13Z"
       style="fill:#ebebeb"
       id="path11652" />
    <path
       d="M274.2,165.86c0,.13-21.13.3-47.18.38s-47.19,0-47.19-.11,21.12-.29,47.18-.37S274.2,165.73,274.2,165.86Z"
       style="fill:#ebebeb"
       id="path11654" />
    <path
       d="M274.17,157.59c0,.14-21.12.3-47.18.38s-47.19,0-47.19-.1,21.13-.3,47.19-.38S274.17,157.46,274.17,157.59Z"
       style="fill:#ebebeb"
       id="path11656" />
    <path
       d="M274.15,149.33c0,.13-21.13.29-47.18.37s-47.19,0-47.19-.1,21.12-.3,47.19-.37S274.15,149.2,274.15,149.33Z"
       style="fill:#ebebeb"
       id="path11658" />
    <path
       d="M274.13,141.06c0,.13-21.13.3-47.19.37s-47.18,0-47.18-.1,21.12-.3,47.18-.37S274.13,140.93,274.13,141.06Z"
       style="fill:#ebebeb"
       id="path11660" />
    <path
       d="M274.1,132.79c0,.13-21.12.3-47.18.37s-47.19,0-47.19-.1,21.12-.3,47.19-.37S274.1,132.66,274.1,132.79Z"
       style="fill:#ebebeb"
       id="path11662" />
    <rect
       x="186.26"
       y="177.52"
       width="6.77"
       height="12.89"
       transform="translate(-0.53 0.55) rotate(-0.17)"
       style="fill:#FF1E00"
       id="rect11664" />
    <rect
       x="235.41"
       y="177.38"
       width="6.77"
       height="12.89"
       transform="translate(-0.53 0.69) rotate(-0.16)"
       style="fill:#FF1E00"
       id="rect11666" />
    <rect
       x="199.52"
       y="168"
       width="6.77"
       height="22.36"
       transform="translate(-0.52 0.59) rotate(-0.17)"
       style="fill:#FF1E00"
       id="rect11668" />
    <rect
       x="224.31"
       y="162.12"
       width="6.77"
       height="28.18"
       transform="translate(-0.5 0.65) rotate(-0.16)"
       style="fill:#FF1E00"
       id="rect11670" />
    <rect
       x="212.04"
       y="145.03"
       width="6.77"
       height="45.3"
       transform="translate(-0.48 0.62) rotate(-0.17)"
       style="fill:#d40000"
       id="rect11672" />
    <rect
       x="248.49"
       y="153.3"
       width="6.77"
       height="36.92"
       transform="matrix(1, 0, 0, 1, -0.49, 0.73)"
       style="fill:#d40000"
       id="rect11674" />
    <path
       d="M263.37,190.19c0,.13-18.57.29-41.47.36s-41.48,0-41.48-.12,18.57-.29,41.48-.35S263.37,190.06,263.37,190.19Z"
       style="fill:#263238"
       id="path11676" />
    <polygon
       points="159.51 85.81 30.46 86.05 30.46 188.03 142.56 188.03 153.59 199.82 154.32 188.03 159.43 188.03 159.51 85.81"
       style="fill:#f5f5f5"
       id="polygon11678" />
    <path
       d="M150.76,178.46l-.44,0H149l-5,0-18.41.05-60.73.06H38.51v-.17c0-17.35,0-32.28.06-42.88,0-5.28,0-9.49,0-12.38,0-1.44,0-2.55,0-3.31,0-.37,0-.65,0-.85s0-.29,0-.29,0,.1,0,.29,0,.48,0,.85c0,.76,0,1.87,0,3.31,0,2.89,0,7.1.05,12.38,0,10.6,0,25.53.06,42.88l-.17-.17h26.2l60.73.05,18.41.06,5,0,1.31,0Z"
       style="fill:#263238"
       id="path11680" />
    <rect
       x="47.78"
       y="163.71"
       width="11.32"
       height="11.32"
       style="fill:#FF1E00"
       id="rect11682" />
    <rect
       x="64.38"
       y="155.61"
       width="11.32"
       height="19.42"
       style="fill:#FF1E00"
       id="rect11684" />
    <rect
       x="81.05"
       y="146.42"
       width="11.32"
       height="28.61"
       style="fill:#FF1E00"
       id="rect11686" />
    <rect
       x="97.2"
       y="136.18"
       width="11.32"
       height="38.85"
       style="fill:#FF1E00"
       id="rect11688" />
    <rect
       x="113.73"
       y="123.08"
       width="11.32"
       height="51.95"
       style="fill:#FF1E00"
       id="rect11690" />
    <rect
       x="130.14"
       y="113.08"
       width="11.32"
       height="61.41"
       style="fill:#FF1E00"
       id="rect11692" />
    <g
       style="opacity:0.5"
       id="g11696">
      <rect
         x="64.38"
         y="155.61"
         width="11.32"
         height="19.42"
         style="fill:#fff"
         id="rect11694" />
    </g>
    <g
       style="opacity:0.5"
       id="g11700">
      <rect
         x="97.2"
         y="136.18"
         width="11.32"
         height="38.85"
         style="fill:#fff"
         id="rect11698" />
    </g>
    <g
       style="opacity:0.5"
       id="g11704">
      <rect
         x="130.14"
         y="113.08"
         width="11.32"
         height="61.41"
         style="fill:#fff"
         id="rect11702" />
    </g>
    <path
       d="M47.78,152.1l.15-.11.44-.31,1.72-1.15,6.49-4.28,22.47-14.68.26-.17v.31c0,1.6,0,3.32,0,5.07l-.27-.15,8.85-5.93,31.24-20.88,9.5-6.29,2.59-1.7.67-.43.24-.14s-.07.06-.22.17l-.65.46-2.56,1.75L119.28,110,88.1,131l-8.86,5.93-.27.18v-5.39l.26.14L56.7,146.43l-6.54,4.19-1.76,1.11-.46.28Z"
       style="fill:#263238"
       id="path11706" />
    <path
       d="M132.14,106.05a6.12,6.12,0,0,1-.12-1.39c0-.87-.05-2.07-.05-3.42l.17.17h-.43c-1.45,0-2.76,0-3.71,0a7.51,7.51,0,0,1-1.54-.12,6.33,6.33,0,0,1,1.54-.13c.95,0,2.26,0,3.71,0h.61v.18c0,1.35,0,2.55-.06,3.42A5.48,5.48,0,0,1,132.14,106.05Z"
       style="fill:#263238"
       id="path11708" />
    <rect
       x="30.46"
       y="85.49"
       width="129.05"
       height="9.5"
       style="fill:#263238"
       id="rect11710" />
    <path
       d="M37.86,89.89a1.62,1.62,0,0,1-3.23,0,1.62,1.62,0,1,1,3.23,0Z"
       style="fill:#fafafa"
       id="path11712" />
    <path
       d="M43,89.89a1.61,1.61,0,1,1-1.61-1.62A1.61,1.61,0,0,1,43,89.89Z"
       style="fill:#fafafa"
       id="path11714" />
    <circle
       cx="46.62"
       cy="89.89"
       r="1.61"
       style="fill:#fafafa"
       id="circle11716" />
    <polygon
       points="405.45 21.84 209.76 21.84 209.76 112.31 354.99 112.31 355.79 125.07 367.73 112.31 405.45 112.31 405.45 21.84"
       style="fill:#f5f5f5"
       id="polygon11718" />
    <path
       d="M223.53,84.33v2.86h-.29v-2.6h-.68v-.26Z"
       style="fill:#263238"
       id="path11720" />
    <path
       d="M224.21,85.76c0-.91.48-1.45,1.14-1.45s1.15.54,1.15,1.45-.49,1.45-1.15,1.45S224.21,86.67,224.21,85.76Zm2,0c0-.76-.34-1.18-.84-1.18s-.84.42-.84,1.18.35,1.18.84,1.18S226.19,86.52,226.19,85.76Z"
       style="fill:#263238"
       id="path11722" />
    <path
       d="M224.69,69.17v.26h-2v-.21l1.18-1.16c.33-.32.39-.51.39-.71s-.24-.53-.67-.53a1,1,0,0,0-.78.32L222.6,67a1.26,1.26,0,0,1,1-.41c.58,0,.95.29.95.77a1.18,1.18,0,0,1-.47.89l-1,1Z"
       style="fill:#263238"
       id="path11724" />
    <path
       d="M225,68c0-.91.48-1.45,1.14-1.45s1.14.54,1.14,1.45-.48,1.45-1.14,1.45S225,68.91,225,68Zm2,0c0-.76-.34-1.18-.84-1.18s-.84.42-.84,1.18.35,1.18.84,1.18S227,68.76,227,68Z"
       style="fill:#263238"
       id="path11726" />
    <path
       d="M224.63,50.85c0,.48-.35.84-1,.84a1.51,1.51,0,0,1-1-.36l.15-.24a1.24,1.24,0,0,0,.88.33c.48,0,.74-.22.74-.57s-.25-.57-.78-.57h-.2v-.22l.79-1h-1.46v-.26h1.84V49l-.81,1C224.32,50.07,224.63,50.39,224.63,50.85Z"
       style="fill:#263238"
       id="path11728" />
    <path
       d="M225,50.24c0-.91.48-1.45,1.14-1.45s1.14.54,1.14,1.45-.48,1.45-1.14,1.45S225,51.15,225,50.24Zm2,0c0-.76-.34-1.18-.84-1.18s-.84.42-.84,1.18.35,1.18.84,1.18S227,51,227,50.24Z"
       style="fill:#263238"
       id="path11730" />
    <path
       d="M236.14,95.13c0-.91.48-1.45,1.14-1.45s1.14.54,1.14,1.45-.48,1.45-1.14,1.45S236.14,96,236.14,95.13Zm2,0c0-.76-.34-1.18-.84-1.18s-.84.42-.84,1.18.34,1.18.84,1.18S238.12,95.89,238.12,95.13Z"
       style="fill:#263238"
       id="path11732" />
    <path
       d="M257.28,93.7v2.86H257V94h-.68V93.7Z"
       style="fill:#263238"
       id="path11734" />
    <path
       d="M279.56,96.3v.26h-2v-.21l1.19-1.16c.32-.32.38-.51.38-.71s-.23-.53-.67-.53a1,1,0,0,0-.78.31l-.21-.17a1.27,1.27,0,0,1,1-.41c.58,0,.94.29.94.77a1.15,1.15,0,0,1-.47.89l-1,1Z"
       style="fill:#263238"
       id="path11736" />
    <path
       d="M300.63,95.74c0,.47-.35.84-1,.84a1.47,1.47,0,0,1-1-.37l.14-.23a1.29,1.29,0,0,0,.89.33c.47,0,.73-.22.73-.57s-.24-.57-.77-.57h-.2V95l.79-1h-1.46V93.7h1.84v.21l-.81,1C300.32,95,300.63,95.28,300.63,95.74Z"
       style="fill:#263238"
       id="path11738" />
    <path
       d="M322.29,95.81h-.57v.75h-.3v-.75h-1.61v-.22l1.52-1.89h.32l-1.46,1.85h1.24v-.67h.29v.67h.57Z"
       style="fill:#263238"
       id="path11740" />
    <path
       d="M342.92,95.72c0,.48-.33.86-1,.86a1.47,1.47,0,0,1-1-.37L341,96a1.23,1.23,0,0,0,.87.33c.49,0,.75-.23.75-.58s-.23-.6-1-.6h-.61l.15-1.43h1.56V94h-1.3l-.1.91h.37C342.6,94.87,342.92,95.21,342.92,95.72Z"
       style="fill:#263238"
       id="path11742" />
    <path
       d="M364.26,95.7a.89.89,0,0,1-1,.88c-.76,0-1.17-.52-1.17-1.43s.53-1.47,1.31-1.47a1.3,1.3,0,0,1,.67.15l-.12.24a1,1,0,0,0-.55-.14c-.62,0-1,.4-1,1.18a2,2,0,0,0,0,.23.9.9,0,0,1,.87-.49A.87.87,0,0,1,364.26,95.7Zm-.29,0c0-.37-.28-.61-.72-.61a.66.66,0,0,0-.74.62c0,.32.27.61.76.61A.63.63,0,0,0,364,95.71Z"
       style="fill:#263238"
       id="path11744" />
    <path
       d="M385.25,93.7v.21l-1.2,2.65h-.31l1.17-2.6h-1.47v.54h-.29v-.8Z"
       style="fill:#263238"
       id="path11746" />
    <path
       d="M385.4,85.9c0,.15-33.06.27-73.83.27s-73.84-.12-73.84-.27,33.06-.28,73.84-.28S385.4,85.74,385.4,85.9Z"
       style="fill:#263238"
       id="path11748" />
    <path
       d="M385.4,68.05c0,.15-33.06.27-73.83.27s-73.84-.12-73.84-.27,33.06-.28,73.84-.28S385.4,67.89,385.4,68.05Z"
       style="fill:#263238"
       id="path11750" />
    <path
       d="M385.4,50.2c0,.15-33.06.27-73.83.27s-73.84-.12-73.84-.27,33.06-.28,73.84-.28S385.4,50,385.4,50.2Z"
       style="fill:#263238"
       id="path11752" />
    <path
       d="M237.73,85.64a.95.95,0,1,1-.95-1A.94.94,0,0,1,237.73,85.64Z"
       style="fill:#FF1E00"
       id="path11754" />
    <path
       d="M259,85.64a.95.95,0,1,1-.94-1A.94.94,0,0,1,259,85.64Z"
       style="fill:#FF1E00"
       id="path11756" />
    <path
       d="M280.2,85.64a.95.95,0,1,1-.95-1A.95.95,0,0,1,280.2,85.64Z"
       style="fill:#FF1E00"
       id="path11758" />
    <path
       d="M301.43,85.64a.95.95,0,1,1-.95-1A.95.95,0,0,1,301.43,85.64Z"
       style="fill:#FF1E00"
       id="path11760" />
    <path
       d="M322.66,85.64a.95.95,0,1,1-1-1A.95.95,0,0,1,322.66,85.64Z"
       style="fill:#FF1E00"
       id="path11762" />
    <path
       d="M365.12,85.64a.95.95,0,1,1-.95-1A.94.94,0,0,1,365.12,85.64Z"
       style="fill:#FF1E00"
       id="path11764" />
    <path
       d="M343.89,85.64a.95.95,0,1,1-.95-1A.95.95,0,0,1,343.89,85.64Z"
       style="fill:#FF1E00"
       id="path11766" />
    <path
       d="M386.35,85.64a1,1,0,1,1-1-1A.94.94,0,0,1,386.35,85.64Z"
       style="fill:#FF1E00"
       id="path11768" />
    <path
       d="M247.41,85.9a.63.63,0,1,1-.62-.63A.62.62,0,0,1,247.41,85.9Z"
       style="fill:#e0e0e0"
       id="path11770" />
    <path
       d="M268.72,85.9a.63.63,0,1,1-.62-.63A.62.62,0,0,1,268.72,85.9Z"
       style="fill:#e0e0e0"
       id="path11772" />
    <path
       d="M290,85.9a.63.63,0,1,1-.62-.63A.62.62,0,0,1,290,85.9Z"
       style="fill:#e0e0e0"
       id="path11774" />
    <path
       d="M311.34,85.9a.62.62,0,0,1-.62.62.63.63,0,0,1,0-1.25A.63.63,0,0,1,311.34,85.9Z"
       style="fill:#e0e0e0"
       id="path11776" />
    <path
       d="M332.65,85.9a.62.62,0,1,1-.62-.63A.62.62,0,0,1,332.65,85.9Z"
       style="fill:#e0e0e0"
       id="path11778" />
    <path
       d="M354,85.9a.62.62,0,1,1-.62-.63A.62.62,0,0,1,354,85.9Z"
       style="fill:#e0e0e0"
       id="path11780" />
    <path
       d="M375.27,85.9a.62.62,0,0,1-.62.62.63.63,0,1,1,.62-.62Z"
       style="fill:#e0e0e0"
       id="path11782" />
    <path
       d="M260.34,78A2.33,2.33,0,1,1,258,75.68,2.32,2.32,0,0,1,260.34,78Z"
       style="fill:#FF1E00"
       id="path11784" />
    <path
       d="M278.87,67.07a2.33,2.33,0,1,1-2.33-2.32A2.33,2.33,0,0,1,278.87,67.07Z"
       style="fill:#FF1E00"
       id="path11786" />
    <path
       d="M301.86,68.05a2.33,2.33,0,1,1-2.33-2.33A2.33,2.33,0,0,1,301.86,68.05Z"
       style="fill:#FF1E00"
       id="path11788" />
    <path
       d="M324.3,48.18A2.33,2.33,0,1,1,322,45.85,2.32,2.32,0,0,1,324.3,48.18Z"
       style="fill:#FF1E00"
       id="path11790" />
    <path
       d="M345.27,60.81a2.33,2.33,0,1,1-2.33-2.32A2.33,2.33,0,0,1,345.27,60.81Z"
       style="fill:#FF1E00"
       id="path11792" />
    <path
       d="M366.5,64.18a2.33,2.33,0,1,1-2.33-2.33A2.32,2.32,0,0,1,366.5,64.18Z"
       style="fill:#FF1E00"
       id="path11794" />
    <path
       d="M386.35,78a3.13,3.13,0,0,1-.54,0,11,11,0,0,1-1.59-.21,11.92,11.92,0,0,1-5.52-2.62A11.58,11.58,0,0,1,376,71.64a25.9,25.9,0,0,0-2.84-4.4,9.39,9.39,0,0,0-4.8-3.35,6.12,6.12,0,0,0-3.17.12,8.67,8.67,0,0,0-2.95,1.66c-1.81,1.51-3.14,3.66-4.89,5.61a9.8,9.8,0,0,1-3.19,2.48,6.39,6.39,0,0,1-4.19.35,5.25,5.25,0,0,1-3.19-2.93,20.22,20.22,0,0,1-1.38-4.24,24.18,24.18,0,0,0-1.27-4.3A3.31,3.31,0,0,0,342.76,61a4.45,4.45,0,0,0-2.15-.42,36.66,36.66,0,0,0-4.67.82,13.34,13.34,0,0,1-2.46.29,5.56,5.56,0,0,1-2.5-.49,5,5,0,0,1-2-1.67,12,12,0,0,1-1.22-2.26c-.67-1.57-1.12-3.21-1.73-4.8a12.11,12.11,0,0,0-1.12-2.25,4.16,4.16,0,0,0-1.85-1.53c-.19-.06-.38-.13-.58-.18l-.61-.05a2.09,2.09,0,0,0-1.13.23,4.67,4.67,0,0,0-1.7,1.77,21.88,21.88,0,0,0-2,4.89c-.5,1.71-.93,3.46-1.34,5.23-.68,2.93-1.28,5.85-2,8.71a43.6,43.6,0,0,1-1.3,4.21,11,11,0,0,1-2.21,3.84,3,3,0,0,1-2.09.92,4.11,4.11,0,0,1-2.15-.65,10.09,10.09,0,0,1-3-3.05,36.72,36.72,0,0,1-3.64-7.39c-1-2.45-2.16-4.88-4.06-6.54A7.61,7.61,0,0,0,288.39,59a11.54,11.54,0,0,0-3.25,1.43,21.5,21.5,0,0,0-2.83,2.05,38,38,0,0,0-4.74,4.76h0a51.22,51.22,0,0,1-7,5.82,34.09,34.09,0,0,1-7.19,3.9,15.88,15.88,0,0,1-7,1.17,24.82,24.82,0,0,1-5.85-1.42,54.43,54.43,0,0,1-7.61-3.48c-.84-.46-1.48-.83-1.9-1.09s-.62-.4-.62-.4l.66.35,1.92,1a60,60,0,0,0,7.63,3.35,24.34,24.34,0,0,0,5.8,1.35,15.52,15.52,0,0,0,6.88-1.2,34.24,34.24,0,0,0,7.08-3.88,50.78,50.78,0,0,0,6.92-5.81v0A38.31,38.31,0,0,1,282,62.09a23.63,23.63,0,0,1,2.88-2.1,12.08,12.08,0,0,1,3.38-1.49,8.11,8.11,0,0,1,7.28,1.75c2,1.76,3.19,4.26,4.22,6.73a36.87,36.87,0,0,0,3.6,7.29,9.78,9.78,0,0,0,2.84,2.89,3.76,3.76,0,0,0,1.88.57A2.52,2.52,0,0,0,309.8,77a10.49,10.49,0,0,0,2.07-3.63c.51-1.35.91-2.75,1.29-4.17.75-2.83,1.35-5.75,2-8.69.41-1.77.84-3.53,1.35-5.26a22.25,22.25,0,0,1,2-5,5.07,5.07,0,0,1,1.92-2,2.76,2.76,0,0,1,1.4-.29l.7.07c.22,0,.45.13.67.2a4.64,4.64,0,0,1,2.1,1.73,12.47,12.47,0,0,1,1.18,2.37c.62,1.61,1.06,3.26,1.72,4.78s1.47,3,2.93,3.66a7.71,7.71,0,0,0,4.64.17,36,36,0,0,1,4.75-.82,5.06,5.06,0,0,1,2.41.48,3.93,3.93,0,0,1,1.57,1.86,24.58,24.58,0,0,1,1.28,4.4A20.34,20.34,0,0,0,347.18,71a4.82,4.82,0,0,0,2.9,2.7,6,6,0,0,0,3.88-.31A9.41,9.41,0,0,0,357,71c1.73-1.9,3.08-4.06,5-5.62a9.08,9.08,0,0,1,3.09-1.72,6.44,6.44,0,0,1,3.37-.1A9.72,9.72,0,0,1,373.38,67a25.58,25.58,0,0,1,2.84,4.48A11.29,11.29,0,0,0,378.84,75a12.14,12.14,0,0,0,5.4,2.67,12.89,12.89,0,0,0,1.57.27A3.73,3.73,0,0,1,386.35,78Z"
       style="fill:#FF1E00"
       id="path11796" />
    <path
       d="M260.57,38c0,.16-8.25.28-18.41.28s-18.41-.12-18.41-.28,8.24-.27,18.41-.27S260.57,37.81,260.57,38Z"
       style="fill:#263238"
       id="path11798" />
    <polygon
       points="450.06 129.19 369.16 129.19 369.16 205.21 378.36 205.21 378.36 218.75 391.03 205.21 450.06 205.21 450.06 129.19"
       style="fill:#f5f5f5"
       id="polygon11800" />
    <path
       d="M409.25,137.8a25,25,0,1,0,25,25A25,25,0,0,0,409.25,137.8Zm.38,39.92A15.34,15.34,0,1,1,425,162.39,15.33,15.33,0,0,1,409.63,177.72Z"
       style="fill:#263238"
       id="path11802" />
    <path
       d="M409.64,137.81c0,2.66,0,6.24,0,9.24A15.33,15.33,0,0,1,425,162.39a15.12,15.12,0,0,1-.72,4.64l9.05,2.46a25,25,0,0,0-23.65-31.68Z"
       style="fill:#FF1E00"
       id="path11804" />
    <path
       d="M394.3,162.39a15.33,15.33,0,0,1,9.09-14l-3.84-8.62a25,25,0,0,0-15.26,23c0,.35,0,.7,0,1.05h10.05A13.37,13.37,0,0,1,394.3,162.39Z"
       style="fill:#455a64"
       id="path11806" />
    <path
       d="M409.63,177.72a15,15,0,0,1-3.24-.35c-.39,2.23-1.12,6.54-1.69,9.93a25.33,25.33,0,0,0,4.55.42,25,25,0,0,0,24-18.23L424.24,167A15.33,15.33,0,0,1,409.63,177.72Z"
       style="fill:#FF1E00"
       id="path11808" />
    <g
       style="opacity:0.30000000000000004"
       id="g11812">
      <path
         d="M409.63,177.72a15,15,0,0,1-3.24-.35c-.39,2.23-1.12,6.54-1.69,9.93a25.33,25.33,0,0,0,4.55.42,25,25,0,0,0,24-18.23L424.24,167A15.33,15.33,0,0,1,409.63,177.72Z"
         id="path11810" />
    </g>
    <path
       d="M406.32,163.63h-.93v1.19h-1.28v-1.19h-3.05v-.89l2.67-3.59h1.38l-2.48,3.41h1.52V161.5h1.24v1.06h.93Z"
       style="fill:#263238"
       id="path11814" />
    <path
       d="M406.71,162c0-1.87,1-2.93,2.43-2.93s2.43,1.06,2.43,2.93-1,2.94-2.43,2.94S406.71,163.85,406.71,162Zm3.54,0c0-1.29-.46-1.82-1.11-1.82S408,160.69,408,162s.46,1.83,1.11,1.83S410.25,163.27,410.25,162Z"
       style="fill:#263238"
       id="path11816" />
    <path
       d="M412.11,160.64a1.41,1.41,0,1,1,1.41,1.57A1.41,1.41,0,0,1,412.11,160.64Zm2,0c0-.6-.23-.89-.59-.89s-.59.3-.59.89.24.9.59.9S414.11,161.25,414.11,160.64Zm2.79-1.49h1L414,164.82h-1Zm-.93,4.17a1.41,1.41,0,1,1,1.4,1.56A1.4,1.4,0,0,1,416,163.32Zm2,0c0-.6-.23-.9-.59-.9s-.59.29-.59.9.24.9.59.9S418,163.92,418,163.32Z"
       style="fill:#263238"
       id="path11818" />
    <path
       d="M429.91,194c0,.13-9.25.24-20.66.24s-20.65-.11-20.65-.24,9.25-.24,20.65-.24S429.91,193.89,429.91,194Z"
       style="fill:#263238"
       id="path11820" />
    <path
       d="M420.71,197.81c0,.13-5.13.24-11.46.24s-11.45-.11-11.45-.24,5.13-.23,11.45-.23S420.71,197.68,420.71,197.81Z"
       style="fill:#263238"
       id="path11822" />
  </g>
  <g
     id="freepik--Desk--inject-291">
    <rect
       x="39.77"
       y="325.17"
       width="291.94"
       height="12.44"
       style="fill:#455a64"
       id="rect11825" />
    <path
       d="M101.61,325.36s0,.05-.09.13-.16.22-.3.38A6.57,6.57,0,0,1,99.75,327a8.26,8.26,0,0,1-2.82.92,20.39,20.39,0,0,1-3.93.17,39,39,0,0,1-4.74-.53,44,44,0,0,0-5.39-.63,34.32,34.32,0,0,0-12.14,2.3c-4.17,1.45-8.06,3.1-11.78,4.1a32.7,32.7,0,0,1-5.37,1,23.79,23.79,0,0,1-4.78,0,16.5,16.5,0,0,1-6.54-2,10.51,10.51,0,0,1-2-1.48l.14.09.39.29a13,13,0,0,0,1.57,1,16.72,16.72,0,0,0,6.5,1.91,23.25,23.25,0,0,0,4.71,0A33.35,33.35,0,0,0,58.86,333c3.69-1,7.56-2.67,11.75-4.12a34.16,34.16,0,0,1,12.27-2.29,45.59,45.59,0,0,1,5.43.66,39.15,39.15,0,0,0,4.7.57,20.28,20.28,0,0,0,3.89-.11,8.45,8.45,0,0,0,2.78-.85A7.27,7.27,0,0,0,101.61,325.36Z"
       style="fill:#263238"
       id="path11827" />
    <path
       d="M69.68,325.55a7.36,7.36,0,0,1-.88.73A19.24,19.24,0,0,1,66.13,328a23.29,23.29,0,0,1-4.35,1.73,24.86,24.86,0,0,1-5.69.87,22.31,22.31,0,0,1-10.18-2.05,6.53,6.53,0,0,1-2.46-1.95,3.78,3.78,0,0,1-.4-.75,1,1,0,0,1-.07-.29,8.1,8.1,0,0,0,.59,1A6.67,6.67,0,0,0,46,328.28a23,23,0,0,0,10,1.92A23.87,23.87,0,0,0,66,327.73a24.6,24.6,0,0,0,2.7-1.56A6.45,6.45,0,0,1,69.68,325.55Z"
       style="fill:#263238"
       id="path11829" />
    <path
       d="M138.18,333.43a3.05,3.05,0,0,1,.45.16,9.65,9.65,0,0,0,1.35.35,8.14,8.14,0,0,0,5.11-.78v.16a12.41,12.41,0,0,0-6.34-2.41A12.59,12.59,0,0,0,130.5,333a1.28,1.28,0,0,0-.64.81.87.87,0,0,0,.55.8,3.77,3.77,0,0,0,1.13.38l1.24.28c1.68.36,3.4.72,5.19,1a32.23,32.23,0,0,0,5.51.36,20.82,20.82,0,0,0,2.83-.26c.47-.08.94-.17,1.41-.29a7.17,7.17,0,0,0,1.36-.43,4.5,4.5,0,0,0,1.77-1.24,2,2,0,0,0,.34-1.92A3.37,3.37,0,0,0,149.8,331a11.13,11.13,0,0,0-1.94-.92,27.1,27.1,0,0,0-8.11-1.64,34.67,34.67,0,0,0-22.17,6.53c-.89.67-1.58,1.2-2,1.59l-.52.42-.18.14.16-.16c.12-.12.28-.27.49-.45a25.19,25.19,0,0,1,2-1.65,33.49,33.49,0,0,1,8.32-4.56,34.51,34.51,0,0,1,14-2.18,27.35,27.35,0,0,1,8.22,1.64,11.79,11.79,0,0,1,2,.95,3.62,3.62,0,0,1,1.53,1.68,2.27,2.27,0,0,1-.39,2.25,4.91,4.91,0,0,1-1.9,1.35,7.41,7.41,0,0,1-1.43.45c-.47.12-1,.21-1.43.29a20.17,20.17,0,0,1-2.88.27,31.79,31.79,0,0,1-5.57-.38c-1.8-.26-3.54-.63-5.21-1l-1.24-.28a4.23,4.23,0,0,1-1.22-.43,1.57,1.57,0,0,1-.52-.44.93.93,0,0,1-.18-.67,1.56,1.56,0,0,1,.77-1,12.83,12.83,0,0,1,8.45-2.09,12.46,12.46,0,0,1,6.43,2.51l.12.09-.14.07A8.17,8.17,0,0,1,140,334,6.18,6.18,0,0,1,138.18,333.43Z"
       style="fill:#263238"
       id="path11831" />
    <path
       d="M175.75,325.68a1.87,1.87,0,0,1,.29.63,4.68,4.68,0,0,1,.19,1.86,9.1,9.1,0,0,1-2.84,5.43,14.3,14.3,0,0,1-2.66,2.2,11.63,11.63,0,0,1-2.56,1.21,12.57,12.57,0,0,1-1.86.46,2.19,2.19,0,0,1-.7,0c0-.06,1-.19,2.47-.74a12.75,12.75,0,0,0,2.47-1.25,14.45,14.45,0,0,0,2.57-2.17,9.29,9.29,0,0,0,2.86-5.21A6.83,6.83,0,0,0,175.75,325.68Z"
       style="fill:#263238"
       id="path11833" />
    <path
       d="M228.17,337a14.53,14.53,0,0,0-1.34-1.27,9.57,9.57,0,0,0-4.56-2,10.3,10.3,0,0,0-3.48.1,15.13,15.13,0,0,1-4.07.36,8.23,8.23,0,0,1-4.06-1.93,14,14,0,0,0-4.07-2.36,15.33,15.33,0,0,0-9.06-.13,21.53,21.53,0,0,0-6.69,3.3,36,36,0,0,0-3.89,3.23l-1,.95a1.84,1.84,0,0,1-.36.32s.1-.13.31-.37l.94-1a33.71,33.71,0,0,1,3.84-3.33,21.62,21.62,0,0,1,6.75-3.42,15.62,15.62,0,0,1,9.27.12,14.28,14.28,0,0,1,4.17,2.41,7.88,7.88,0,0,0,3.88,1.89,14.81,14.81,0,0,0,4-.33,10.75,10.75,0,0,1,3.57-.05,9.61,9.61,0,0,1,4.62,2.14A6,6,0,0,1,228.17,337Z"
       style="fill:#263238"
       id="path11835" />
    <path
       d="M275,325.29a2.51,2.51,0,0,1-.32.43,11.63,11.63,0,0,1-1,1.15,26.13,26.13,0,0,1-4.26,3.69,34.18,34.18,0,0,1-7.39,4,31.32,31.32,0,0,1-4.77,1.48,25.57,25.57,0,0,1-5.33.67,27.15,27.15,0,0,1-10.12-2,33.84,33.84,0,0,1-7.36-4.07,28,28,0,0,1-4.23-3.72c-.47-.47-.77-.89-1-1.15a2.51,2.51,0,0,1-.32-.43,4.36,4.36,0,0,1,.37.38c.25.25.57.65,1.05,1.11a31.1,31.1,0,0,0,4.28,3.61,35,35,0,0,0,7.33,4,27.06,27.06,0,0,0,10,2,25,25,0,0,0,5.26-.66,31.13,31.13,0,0,0,4.73-1.44,35.46,35.46,0,0,0,7.37-3.9,28.55,28.55,0,0,0,4.3-3.58c.49-.45.8-.86,1.05-1.11A4.36,4.36,0,0,1,275,325.29Z"
       style="fill:#263238"
       id="path11837" />
    <path
       d="M268.29,325.17s-.07.08-.24.2-.42.3-.76.5a31.74,31.74,0,0,1-2.92,1.61,30.86,30.86,0,0,1-4.62,1.83,20.62,20.62,0,0,1-6,1A25.38,25.38,0,0,1,243,327.68a22.52,22.52,0,0,1-2.89-1.66c-.34-.21-.57-.4-.74-.52s-.25-.2-.24-.21.38.22,1.05.62a28.84,28.84,0,0,0,2.94,1.55A26.21,26.21,0,0,0,253.72,330a21.22,21.22,0,0,0,5.93-1,35.27,35.27,0,0,0,4.6-1.75c1.28-.59,2.28-1.12,3-1.51A11.74,11.74,0,0,1,268.29,325.17Z"
       style="fill:#263238"
       id="path11839" />
    <path
       d="M298,326.45h-.34l-1-.06-.68-.05h-.83c-.59,0-1.26,0-2,0l-1.16.06-1.25.14c-.87.07-1.78.27-2.75.43a43.49,43.49,0,0,0-6.1,1.77,44.19,44.19,0,0,0-5.72,2.74c-.82.52-1.63,1-2.32,1.49l-1,.72-.9.71c-.59.45-1.08.9-1.51,1.28l-.61.54-.48.48-.68.67c-.16.14-.24.22-.25.21s.06-.1.2-.26l.62-.71.47-.51.59-.56c.42-.4.9-.87,1.48-1.33l.9-.73,1-.74c.7-.53,1.5-1,2.33-1.53a40.12,40.12,0,0,1,5.76-2.79,41.37,41.37,0,0,1,6.17-1.77c1-.15,1.89-.34,2.77-.4l1.27-.12,1.17,0a19,19,0,0,1,2,0l.83,0,.69.09.95.12A1.12,1.12,0,0,1,298,326.45Z"
       style="fill:#263238"
       id="path11841" />
    <path
       d="M233.42,336.71a13.65,13.65,0,0,0-1.61-1.86,15,15,0,0,0-5.88-3.21,33.49,33.49,0,0,0-4.59-1c-1.67-.26-3.48-.46-5.37-.78a44.93,44.93,0,0,1-5.83-1.43,38.39,38.39,0,0,0-6.22-1.46,26.51,26.51,0,0,0-12.11,1.63,45.31,45.31,0,0,0-4.93,2.16c-1.51.75-2.89,1.49-4.15,2.19-2.51,1.38-4.51,2.56-5.89,3.38l-1.59.95-.41.24-.15.07.13-.1.39-.27c.35-.24.88-.58,1.55-1,1.36-.85,3.34-2.06,5.84-3.48,1.26-.71,2.64-1.46,4.14-2.23a43,43,0,0,1,4.95-2.2A26.73,26.73,0,0,1,204,326.64a39.07,39.07,0,0,1,6.27,1.48,46.58,46.58,0,0,0,5.79,1.44c1.87.32,3.68.54,5.36.81a32.56,32.56,0,0,1,4.62,1,14.71,14.71,0,0,1,5.9,3.34A7.3,7.3,0,0,1,233.42,336.71Z"
       style="fill:#263238"
       id="path11843" />
    <path
       d="M167.66,325.36a2.51,2.51,0,0,1,0,.79,9.19,9.19,0,0,1-.57,2.1,12.1,12.1,0,0,1-4.49,5.6,30.87,30.87,0,0,1-6.65,3c-.89.29-1.61.49-2.12.62a3.51,3.51,0,0,1-.8.16,4.47,4.47,0,0,1,.76-.29l2.08-.73a34.94,34.94,0,0,0,6.54-3,12.44,12.44,0,0,0,4.44-5.39A15.7,15.7,0,0,0,167.66,325.36Z"
       style="fill:#263238"
       id="path11845" />
    <path
       d="M99.89,337.61a5,5,0,0,1,.71-.66c.47-.42,1.18-1,2.08-1.66a60,60,0,0,1,7.44-4.67c3-1.63,5.87-2.93,7.93-3.85,1-.46,1.87-.82,2.45-1.06a5,5,0,0,1,.92-.35,5.48,5.48,0,0,1-.86.47l-2.4,1.16c-2,1-4.84,2.31-7.86,3.93a72.76,72.76,0,0,0-7.47,4.57c-.91.64-1.64,1.18-2.14,1.56A4.69,4.69,0,0,1,99.89,337.61Z"
       style="fill:#263238"
       id="path11847" />
    <path
       d="M113.64,325.87a18.09,18.09,0,0,0-1.88,0,13.61,13.61,0,0,0-4.87,1.45,44.56,44.56,0,0,0-6.33,4.13,31.85,31.85,0,0,1-3.81,2.41,21.49,21.49,0,0,1-4.55,1.71,43.82,43.82,0,0,1-9.33,1.09c-2.89.08-5.48,0-7.65.11a39,39,0,0,0-5.12.49c-.6.11-1.06.19-1.37.27l-.48.08a2.5,2.5,0,0,1,.46-.15c.31-.1.77-.21,1.36-.34a36.11,36.11,0,0,1,5.14-.6c2.18-.12,4.78-.09,7.65-.19a44.23,44.23,0,0,0,9.25-1.1,21.94,21.94,0,0,0,4.48-1.68,33.25,33.25,0,0,0,3.78-2.36,42.7,42.7,0,0,1,6.41-4.1,13.22,13.22,0,0,1,5-1.35,8.3,8.3,0,0,1,1.41,0A2.74,2.74,0,0,1,113.64,325.87Z"
       style="fill:#263238"
       id="path11849" />
    <path
       d="M295.72,325.13c0,.09-12.2.17-27.25.17s-27.25-.08-27.25-.17,12.2-.18,27.25-.18S295.72,325,295.72,325.13Z"
       style="fill:#263238"
       id="path11851" />
    <polygon
       points="50.73 487.38 46.59 487.38 44.22 336.65 53.1 336.65 50.73 487.38"
       style="fill:#455a64"
       id="polygon11853" />
    <polygon
       points="318.2 487.59 314.05 487.59 316.13 337.08 325 337.08 318.2 487.59"
       style="fill:#455a64"
       id="polygon11855" />
    <rect
       x="294.69"
       y="325.17"
       width="37.02"
       height="12.44"
       style="fill:#455a64"
       id="rect11857" />
    <path
       d="M76.47,255.77a2.36,2.36,0,0,0-4.67.7L82.15,319.6h4.72Z"
       style="fill:#263238"
       id="path11859" />
    <path
       d="M72.78,256.55l42.64-46.84.31.51,2.07,3.42L76.28,259.72a2.36,2.36,0,1,1-3.5-3.17Z"
       style="fill:#263238"
       id="path11861" />
    <path
       d="M75.91,257.76s.08-.1.06-.29a1.12,1.12,0,0,0-.39-.73,1.27,1.27,0,0,0-1.24-.23,1.33,1.33,0,0,0,0,2.51,1.3,1.3,0,0,0,1.24-.24,1.11,1.11,0,0,0,.39-.72c0-.2,0-.3-.06-.3s-.07.44-.54.75a1,1,0,0,1-.88.09.92.92,0,0,1-.57-.84.93.93,0,0,1,.57-.84,1,1,0,0,1,.88.09C75.84,257.32,75.84,257.78,75.91,257.76Z"
       style="fill:#455a64"
       id="path11863" />
    <path
       d="M75.26,253.82A6.63,6.63,0,0,0,74,255a16,16,0,0,0-1.28,1.41,3,3,0,0,0-.67,2.33,2.38,2.38,0,0,0,1.73,1.7,2.52,2.52,0,0,0,2-.27c1-.6,1.3-1.21,1.26-1.24s-.5.47-1.41.94a2.27,2.27,0,0,1-1.68.15,2,2,0,0,1-1.39-1.38,2.58,2.58,0,0,1,.56-2c.39-.55.84-1,1.17-1.44A6.26,6.26,0,0,0,75.26,253.82Z"
       style="fill:#455a64"
       id="path11865" />
    <path
       d="M105.59,325.17H66.77s5-6.17,17.88-6.17C96.68,319,103.86,322.54,105.59,325.17Z"
       style="fill:#263238"
       id="path11867" />
    <polygon
       points="115.18 202.28 113.2 199.32 115.64 197.45 117.73 200.43 115.18 202.28"
       style="fill:#263238"
       id="polygon11869" />
    <path
       d="M111.83,204.07l8.5-6.17,8.16,9.82c14.15,2.28,19.85,11.18,19.85,11.18L123,238.29c-8.67-9.58-4.56-23.27-4.56-23.27Z"
       style="fill:#ff0000"
       id="path11871" />
    <path
       d="M118.45,215a39.46,39.46,0,0,0,5.16-3.46,40.85,40.85,0,0,0,4.88-3.84,39.46,39.46,0,0,0-5.16,3.46A39.69,39.69,0,0,0,118.45,215Z"
       style="fill:#263238"
       id="path11873" />
    <path
       d="M257.46,272.27,235.2,321.51a7.29,7.29,0,0,1-5.95,3.72l-102.71-.14h0a4.36,4.36,0,0,1,4.23-3.84l39-.85,19.95-47.88a4.12,4.12,0,0,1,3.78-2.54l62.2-.47A2,2,0,0,1,257.46,272.27Z"
       style="fill:#263238"
       id="path11875" />
    <path
       d="M171.65,325.65a2.19,2.19,0,0,0,.3-.53c.2-.43.44-1,.74-1.59l2.61-5.9c2.17-5,5.12-11.92,8.29-19.6s6-14.66,7.91-19.75c1-2.55,1.74-4.61,2.24-6,.22-.67.41-1.21.56-1.66a2.64,2.64,0,0,0,.16-.6,2.29,2.29,0,0,0-.28.55c-.18.44-.41,1-.68,1.62-.6,1.5-1.42,3.52-2.42,6L183,297.79c-3.15,7.64-6,14.55-8.12,19.66-1,2.46-1.81,4.48-2.42,6l-.63,1.64A2.06,2.06,0,0,0,171.65,325.65Z"
       style="fill:#455a64"
       id="path11877" />
    <path
       d="M211.92,296.14a3.19,3.19,0,1,0,3.19-3.18A3.18,3.18,0,0,0,211.92,296.14Z"
       style="fill:#fff"
       id="path11879" />
  </g>
</svg>
