<svg xmlns="http://www.w3.org/2000/svg" xmlns:svg="http://www.w3.org/2000/svg" xmlns:xlink="http://www.w3.org/1999/xlink" id="Layer_1" width="406" height="306" class="illustration styles_illustrationTablet__1DWOa" data-name="Layer 1" version="1.1" viewBox="0 0 681.51 520.94"><defs id="defs24252"><linearGradient id="linear-gradient" x1="488" x2="451.71" y1="269.1" y2="362.84" gradientUnits="userSpaceOnUse"><stop id="stop24235" offset="0" stop-color="#010101" stop-opacity="0"/><stop id="stop24237" offset=".95" stop-color="#010101"/></linearGradient><linearGradient id="linear-gradient-2" x1="475.54" x2="566.26" y1="295.98" y2="121.93" gradientUnits="userSpaceOnUse"><stop id="stop24240" offset="0" stop-color="#fff" stop-opacity="0"/><stop id="stop24242" offset=".95" stop-color="#fff"/></linearGradient><linearGradient id="linear-gradient-3" x1="485.73" x2="502.36" y1="265.76" y2="169.38" gradientTransform="matrix(0.75019494,0,0,0.6731945,92.418201,47.313942)" xlink:href="#linear-gradient-2"/><linearGradient id="linear-gradient-4" x1="492.98" x2="505.45" y1="225.57" y2="200.34" gradientTransform="matrix(0.75019494,0,0,0.6731945,92.418201,47.313942)" xlink:href="#linear-gradient"/><linearGradient id="linear-gradient-5" x1="482.56" x2="522.88" y1="175.24" y2="175.24" gradientTransform="matrix(0.75019494,0,0,0.6731945,92.418201,47.313942)" xlink:href="#linear-gradient-2"/><linearGradient id="linear-gradient-6" x1="464.79" x2="485.73" y1="205.77" y2="205.77" gradientTransform="matrix(0.75019494,0,0,0.6731945,92.418201,47.313942)" xlink:href="#linear-gradient"/><linearGradient id="linear-gradient-7" x1="447.78" x2="468.73" y1="205.13" y2="205.13" gradientTransform="matrix(-0.72768909,-0.16156668,-0.18004678,0.65299867,855.46396,129.55813)" xlink:href="#linear-gradient"/><linearGradient id="linear-gradient-8" x1="521.62" x2="281.23" y1="265.18" y2="322.26" gradientTransform="matrix(0.75019494,0,0,0.6731945,92.418201,47.313942)" xlink:href="#linear-gradient-2"/><linearGradient id="linear-gradient-9" x1="498.55" x2="510.21" y1="123.11" y2="123.11" gradientTransform="matrix(0.75019494,0,0,0.6731945,93.896091,79.452242)" xlink:href="#linear-gradient"/><linearGradient id="linearGradient24561" x1="488" x2="451.71" y1="269.1" y2="362.84" gradientTransform="matrix(0.75019494,0,0,0.6731945,92.418201,47.313942)" gradientUnits="userSpaceOnUse" xlink:href="#linear-gradient"/><linearGradient id="linearGradient24563" x1="475.54" x2="566.26" y1="295.98" y2="121.93" gradientTransform="matrix(0.75019494,0,0,0.6731945,92.418201,47.313942)" gradientUnits="userSpaceOnUse" xlink:href="#linear-gradient-2"/></defs><title id="title24254">SEO</title><path style="isolation:isolate;stroke-width:.710652" id="path24256" fill="#e80606" d="m 599.33992,245.26679 c -8.18464,24.66585 -23.25605,46.95532 -37.82484,69.10342 -6.70674,10.13832 -13.5035,20.7142 -14.95137,32.42779 -1.05778,8.69768 0.87771,17.50306 0.18004,26.21419 -1.95802,24.888 -25.67917,45.16462 -52.22107,52.63708 -26.5419,7.47246 -55.28937,4.47001 -82.52144,-0.6732 -27.23208,-5.14321 -54.16409,-12.35985 -81.95881,-13.20135 -20.00019,-0.59913 -39.88036,2.08692 -59.64049,4.85373 -23.96122,3.36599 -48.43258,6.73196 -72.29628,2.95534 -23.8637,-3.77663 -47.44233,-16.14995 -56.71474,-36.27173 -11.5455,-25.02263 1.50039,-54.1383 -5.62646,-80.46694 -2.08554,-7.79559 -5.83651,-14.9651 -10.27017,-21.93267 -3.32336,-5.25764 -7.03682,-10.38066 -10.72029,-15.48349 -6.43667,-8.97367 -12.75331,-18.05506 -16.646829,-28.03181 -10.21014,-26.16034 -1.48538,-57.41675 21.298039,-76.1787 41.26073,-34.02323 104.77222,-22.52507 152.28957,-44.76069 52.42363,-24.558148 96.02496,-51.398408 158.14109,-28.004908 17.18697,6.48286 32.74601,16.082628 50.0005,22.477978 14.47126,5.38556 29.94027,8.32068 44.83164,12.70991 l 1.34286,0.41739 a 168.67382,151.36105 0 0 1 21.39555,7.91676 c 19.50508,8.75153 36.75955,21.19889 47.00722,38.22398 13.66855,22.60589 13.0684,50.39535 4.90628,75.06792 z" opacity=".24"/><path style="isolation:isolate;stroke-width:.710652" id="path24258" fill="#e80606" d="m 536.80367,127.85495 -0.85523,55.3433 -15.09392,7.43882 -3.826,-41.2197 -153.21231,91.55444 -79.88825,-59.69215 -158.43367,99.63279 c -3.32336,-5.25764 -7.03682,-10.38066 -10.72029,-15.48349 l 170.21174,-107.11197 80.21084,59.98837 139.28118,-81.28824 c 0.15005,0.0404 -39.97788,-12.59546 -39.97788,-12.59546 1.18531,-0.76071 8.47719,-8.07835 9.75253,-8.90637 0,0 51.50839,8.45531 51.76345,8.5361 7.3144,2.19462 3.871,0.71358 10.78781,3.80356 z" opacity=".24"/><rect style="isolation:isolate;stroke-width:.710652" id="rect24260" width="75.53" height="23.744" x="498.979" y="177.759" fill="#e80606" opacity=".24" rx="7.427"/><rect style="isolation:isolate;stroke-width:.710652" id="rect24262" width="108.276" height="34.037" x="422.939" y="363.109" fill="#e80606" opacity=".24" rx="10.645"/><rect style="isolation:isolate;stroke-width:.710652" id="rect24264" width="98.598" height="31.344" x="140.093" y="284.103" fill="#e80606" opacity=".24" rx="9.745"/><rect style="isolation:isolate;stroke-width:.710652" id="rect24266" width="76.947" height="26.78" x="171.339" y="359.165" fill="#e80606" opacity=".24" rx="7.96"/><g style="isolation:isolate" id="g24270" opacity=".37" transform="matrix(0.75019493,0,0,0.6731945,93.896081,79.452242)"><path id="path24268" fill="#e80606" d="m 410.43,290.55 q 0,-36.75 18.85,-57.22 18.85,-20.47 52.51,-20.47 34.5,0 53.16,20.11 18.66,20.11 18.67,56.35 0,26.31 -8.16,43.15 a 61,61 0 0 1 -23.57,26.2 q -15.4,9.33 -38.41,9.33 -23.37,0 -38.69,-8.09 -15.32,-8.09 -24.79,-25.55 -9.57,-17.5 -9.57,-43.81 z m 42.7,0.21 q 0,22.73 7.78,32.65 7.78,9.92 21.16,9.93 13.76,0 21.3,-9.73 7.54,-9.73 7.54,-34.9 0,-21.19 -7.87,-31 -7.87,-9.81 -21.35,-9.71 A 25.1,25.1 0 0 0 461,257.9 q -7.86,9.93 -7.87,32.86 z" transform="translate(-1.97,-47.74)"/></g><g style="isolation:isolate" id="g24276" opacity=".37" transform="matrix(0.75019493,0,0,0.6731945,93.896081,79.452242)"><path id="path24272" fill="#e80606" d="m 132.91,317.17 40.86,-2.56 q 1.33,10 5.41,15.17 6.63,8.45 19,8.44 9.2,0 14.17,-4.32 4.97,-4.32 5,-10 0,-5.4 -4.74,-9.67 -4.74,-4.27 -22,-8.06 -28.25,-6.35 -40.29,-16.87 a 33.94,33.94 0 0 1 -12.13,-26.83 36.44,36.44 0 0 1 6.21,-20.24 q 6.21,-9.53 18.67,-15 12.46,-5.47 34.18,-5.45 26.64,0 40.62,9.91 13.98,9.91 16.64,31.52 L 214,265.6 q -1.62,-9.39 -6.78,-13.65 -5.16,-4.26 -14.27,-4.27 -7.48,0 -11.28,3.18 a 9.73,9.73 0 0 0 -3.79,7.73 7.73,7.73 0 0 0 3.13,6 q 3,2.74 14.41,5.12 28.16,6.06 40.34,12.27 12.18,6.21 17.72,15.41 a 39,39 0 0 1 5.52,20.54 44.07,44.07 0 0 1 -7.4,24.65 46.2,46.2 0 0 1 -20.66,17.11 q -13.27,5.83 -33.47,5.83 -35.44,0 -49.1,-13.65 -13.66,-13.65 -15.46,-34.7 z" transform="translate(-1.97,-47.74)"/><path id="path24274" fill="#e80606" d="m 280.52,224.17 h 115.09 v 29.68 h -72.05 v 22.08 h 66.83 v 28.35 h -66.83 v 27.4 h 74.13 v 31.47 H 280.52 Z" transform="translate(-1.97,-47.74)"/></g><path id="path24278" fill="#fff" d="m 192.98183,245.94671 30.65296,-1.72337 q 0.99026,6.73194 4.05106,10.21236 4.98879,5.68177 14.2537,5.68177 6.89428,0 10.63025,-2.90821 3.73597,-2.9082 3.75098,-6.73193 0,-3.63526 -3.55591,-6.5098 -3.55593,-2.87455 -16.5043,-5.42595 -21.2005,-4.27477 -30.22535,-11.35679 a 25.506628,22.888614 0 0 1 -9.10736,-18.06181 27.337104,24.531207 0 0 1 4.65871,-13.62545 q 4.65871,-6.40882 14.01364,-10.09793 9.35493,-3.68909 25.63416,-3.6689 19.98519,0 30.48041,6.67136 10.49523,6.67136 12.47574,21.21909 l -30.36789,1.59547 q -1.20031,-6.3213 -5.08632,-9.1891 -3.88601,-2.86782 -10.69778,-2.87454 -5.62646,0 -8.46219,2.14074 a 7.2993966,6.5501826 0 0 0 -2.85074,5.19707 5.7990068,5.2037935 0 0 0 2.34811,4.03917 q 2.25058,1.85801 10.8103,3.45348 21.11798,4.07957 30.26287,8.2601 9.14488,4.18054 13.30096,10.37392 a 29.347625,26.335369 0 0 1 4.15608,13.84762 33.113604,29.714806 0 0 1 -5.54394,16.59425 34.726523,31.162174 0 0 1 -15.50654,11.51835 q -9.95508,3.93146 -25.10152,3.92474 -26.60191,0 -36.84207,-9.18911 -10.24016,-9.18912 -11.62802,-23.3666 z" style="stroke-width:.710652"/><path id="path24280" fill="#fff" d="m 303.71059,183.33964 h 86.33994 v 19.97368 h -54.05154 v 14.87087 h 50.14303 v 19.08506 h -50.14303 v 18.44553 h 55.61946 v 21.15851 h -87.90786 z" style="stroke-width:.710652"/><rect id="rect24282" width="298.292" height="31.553" x="197.536" y="320.853" fill="#fff" rx="10.825" style="stroke-width:.710652"/><path style="isolation:isolate;stroke-width:.710652" id="path24284" fill="#e80606" d="m 489.48886,320.25393 a 12.153158,10.905751 0 0 0 -4.50117,-0.7607 H 208.36832 a 12.363212,11.094246 0 0 0 -12.35571,11.06059 v 12.1175 a 12.363212,11.094246 0 0 0 12.35571,11.06731 h 276.64939 a 12.408224,11.134637 0 0 0 12.32569,-11.06731 v -12.1175 a 12.325703,11.060586 0 0 0 -7.85454,-10.29989 z m 4.83877,22.4443 a 9.3324249,8.3745397 0 0 1 -9.30992,8.35435 H 208.36832 a 9.3399269,8.3812717 0 0 1 -9.33992,-8.35435 v -12.1175 a 9.3399269,8.3812717 0 0 1 9.33992,-8.3476 h 276.64939 a 9.3324249,8.3745397 0 0 1 9.30992,8.3476 z" opacity=".24"/><g style="isolation:isolate" id="g24298" opacity=".56" transform="matrix(0.75019493,0,0,0.6731945,93.896081,79.452242)"><path id="path24286" fill="#e80606" d="m 154.38,434.27 a 5.38,5.38 0 0 0 2.69,0.81 c 1.48,0 2.17,-0.74 2.17,-1.67 0,-0.93 -0.58,-1.5 -2.08,-2.06 -2,-0.72 -3,-1.83 -3,-3.17 0,-1.81 1.46,-3.29 3.87,-3.29 a 5.62,5.62 0 0 1 2.76,0.69 l -0.51,1.49 a 4.34,4.34 0 0 0 -2.29,-0.65 c -1.21,0 -1.88,0.69 -1.88,1.53 0,0.84 0.67,1.34 2.13,1.9 1.95,0.73 2.94,1.71 2.94,3.38 0,2 -1.53,3.36 -4.19,3.36 a 6.43,6.43 0 0 1 -3.15,-0.77 z" transform="translate(-1.97,-47.74)"/><path id="path24288" fill="#e80606" d="m 165,431.12 a 3.59,3.59 0 0 0 3.8,3.88 7.29,7.29 0 0 0 3.11,-0.58 l 0.35,1.46 a 9,9 0 0 1 -3.73,0.7 c -3.46,0 -5.52,-2.27 -5.52,-5.66 0,-3.39 2,-6 5.26,-6 3.66,0 4.63,3.22 4.63,5.28 a 9.05,9.05 0 0 1 -0.06,0.95 z m 6,-1.46 c 0,-1.3 -0.54,-3.31 -2.83,-3.31 -2.06,0 -3,1.89 -3.13,3.31 z" transform="translate(-1.97,-47.74)"/><path id="path24290" fill="#e80606" d="m 181.63,436.35 -0.16,-1.41 h -0.07 a 4.19,4.19 0 0 1 -3.43,1.67 3.2,3.2 0 0 1 -3.43,-3.22 c 0,-2.71 2.41,-4.19 6.74,-4.17 V 429 a 2.31,2.31 0 0 0 -2.54,-2.6 5.55,5.55 0 0 0 -2.92,0.84 l -0.47,-1.35 a 7,7 0 0 1 3.69,-1 c 3.43,0 4.26,2.34 4.26,4.58 v 4.2 a 15.62,15.62 0 0 0 0.18,2.68 z m -0.3,-5.72 c -2.22,-0.05 -4.75,0.35 -4.75,2.53 a 1.8,1.8 0 0 0 1.92,1.94 2.78,2.78 0 0 0 2.71,-1.87 2.13,2.13 0 0 0 0.12,-0.65 z" transform="translate(-1.97,-47.74)"/><path id="path24292" fill="#e80606" d="m 186.58,428.64 c 0,-1.32 0,-2.46 -0.09,-3.5 h 1.78 l 0.07,2.2 h 0.09 a 3.37,3.37 0 0 1 3.11,-2.45 2.1,2.1 0 0 1 0.58,0.07 v 1.92 a 2.91,2.91 0 0 0 -0.7,-0.07 2.86,2.86 0 0 0 -2.73,2.62 5.29,5.29 0 0 0 -0.09,0.95 v 6 h -2 z" transform="translate(-1.97,-47.74)"/><path id="path24294" fill="#e80606" d="m 201.91,435.94 a 7.45,7.45 0 0 1 -3.22,0.65 c -3.38,0 -5.58,-2.3 -5.58,-5.73 a 5.69,5.69 0 0 1 6,-5.95 6.83,6.83 0 0 1 2.83,0.58 l -0.47,1.58 a 4.67,4.67 0 0 0 -2.36,-0.54 c -2.57,0 -4,1.9 -4,4.24 a 3.85,3.85 0 0 0 3.89,4.2 5.84,5.84 0 0 0 2.5,-0.56 z" transform="translate(-1.97,-47.74)"/><path id="path24296" fill="#e80606" d="m 204.29,419.91 h 2 v 7 0 a 3.88,3.88 0 0 1 1.46,-1.44 4.29,4.29 0 0 1 2.09,-0.57 c 1.51,0 3.91,0.92 3.91,4.79 v 6.67 h -2 v -6.44 c 0,-1.8 -0.67,-3.33 -2.59,-3.33 a 2.93,2.93 0 0 0 -2.73,2 2.37,2.37 0 0 0 -0.14,1 v 6.76 h -2 z" transform="translate(-1.97,-47.74)"/></g><path id="path24300" fill="#e80606" d="m 497.3434,330.55382 v 12.1175 a 12.175664,10.925947 0 0 1 -4.92126,8.81211 h -36.00936 v -31.2295 h 33.0836 a 12.325703,11.060586 0 0 1 7.84702,10.29989 z" style="stroke-width:.710652"/><path id="path24302" fill="#fff" d="m 472.3019,342.06544 a 10.600254,9.5122384 0 1 1 10.59276,-9.50552 10.615258,9.5257023 0 0 1 -10.59276,9.50552 z m 0,-16.3721 a 7.6519882,6.866584 0 1 0 7.6445,6.86658 7.6519882,6.866584 0 0 0 -7.6445,-6.86658 z" style="stroke-width:.710652"/><rect id="rect24304" width="3.059" height="10.635" x="133.578" y="555.221" fill="#fff" transform="matrix(0.81549477,-0.57876444,0.66119794,0.75021149,0,0)" style="stroke-width:.712625"/><path id="path24306" fill="#fff" d="m 494.38764,194.15788 q -13.69856,-12.72338 -38.94261,-12.74357 -24.65892,0 -38.4925,12.95898 c -9.18239,8.67748 -13.8111,20.74113 -13.8111,36.27845 q 0,16.67503 6.98432,27.76255 6.98431,11.0875 18.21472,16.21052 11.20042,5.12974 28.34238,5.12302 16.85688,0 28.1248,-5.93759 a 43.856395,39.35495 0 0 0 17.25449,-16.58751 q 5.92653,-10.7038 5.94905,-27.35862 0.015,-22.92901 -13.62355,-35.70623 z m -59.94057,36.62851 q 0,-14.5612 5.70898,-20.82191 a 18.372274,16.486534 0 0 1 14.25371,-6.23378 4.883769,4.3824962 0 0 1 0.93775,-0.0538 q 9.86505,0 15.64906,6.17992 a 23.638642,21.21236 0 0 1 4.59119,9.05448 53.008773,47.567925 0 0 1 1.1778,10.57588 c 0,2.3831 -0.0899,4.57772 -0.27007,6.6377 q -0.96025,10.70378 -5.25137,15.48347 -5.52893,6.13953 -15.61905,6.15299 -9.75254,0 -15.49902,-6.28764 c -3.75098,-4.17379 -5.64898,-10.95285 -5.67898,-20.41799 z" style="stroke-width:.710652"/><path id="path24308" fill="#e80606" d="m 476.51799,236.12482 q -0.96023,10.70378 -5.25135,15.48347 -5.52895,6.13953 -15.61907,6.153 -9.75253,0 -15.49902,-6.28765 c -3.75098,-4.17379 -5.64897,-10.95287 -5.67897,-20.41799 a 59.38543,53.290078 0 0 1 1.62791,-5.20379 20.915434,18.768663 0 0 0 6.88679,-5.72215 c 2.63319,-3.49389 3.99105,-7.7754 7.2844,-10.7711 1.11779,-1.00306 2.41562,-1.87148 3.23334,-3.06977 a 6.8567817,6.1529977 0 0 0 0.93774,-2.54468 c 0.27007,-1.79071 -0.06,-3.74296 -0.09,-5.58752 a 20.045208,17.987757 0 0 1 2.95576,-9.56608 c 6.25663,0.0808 12.41573,2.62545 18.55233,3.62851 2.6857,4.03917 -1.99553,9.24968 -0.69768,13.82742 0.45762,1.62913 1.66542,3.00917 2.17556,4.6383 0.84772,2.76684 -0.45011,5.47308 -1.71794,8.23991 a 31.020561,27.836592 0 0 0 -1.45538,3.82374 c -1.20031,4.45654 0.3751,9.02082 2.3556,13.37638 z" style="stroke-width:.710652"/><path id="path24310" fill="url(#linear-gradient)" d="m 476.51799,236.12482 q -0.96023,10.70378 -5.25135,15.48347 -5.52895,6.13953 -15.61907,6.153 -9.75253,0 -15.49902,-6.28765 c -3.75098,-4.17379 -5.64897,-10.95287 -5.67897,-20.41799 a 59.38543,53.290078 0 0 1 1.62791,-5.20379 20.915434,18.768663 0 0 0 6.88679,-5.72215 c 2.63319,-3.49389 3.99105,-7.7754 7.2844,-10.7711 1.11779,-1.00306 2.41562,-1.87148 3.23334,-3.06977 a 6.8567817,6.1529977 0 0 0 0.93774,-2.54468 c 0.27007,-1.79071 -0.06,-3.74296 -0.09,-5.58752 a 20.045208,17.987757 0 0 1 2.95576,-9.56608 c 6.25663,0.0808 12.41573,2.62545 18.55233,3.62851 2.6857,4.03917 -1.99553,9.24968 -0.69768,13.82742 0.45762,1.62913 1.66542,3.00917 2.17556,4.6383 0.84772,2.76684 -0.45011,5.47308 -1.71794,8.23991 a 31.020561,27.836592 0 0 0 -1.45538,3.82374 c -1.20031,4.45654 0.3751,9.02082 2.3556,13.37638 z" style="fill:url(#linearGradient24561);stroke-width:.710652"/><path id="path24312" fill="url(#linear-gradient-2)" d="m 472.6845,237.87512 q -0.7502,10.69706 -3.93851,15.48347 c -2.76073,4.09302 -6.65424,6.15973 -11.70305,6.15973 q -7.33691,0 -11.61302,-6.29437 c -2.80572,-4.17379 -4.2311,-10.95288 -4.25361,-20.41125 q 0.50263,-2.69279 1.22283,-5.20379 a 18.874904,16.937574 0 0 0 5.16134,-5.72217 c 1.9655,-3.50061 3.00078,-7.78213 5.45391,-10.7711 a 19.58759,17.577109 0 0 0 2.42313,-3.06304 8.5972339,7.7148091 0 0 0 0.69768,-2.55141 57.502441,51.600359 0 0 0 -0.0675,-5.58078 25.349087,22.747242 0 0 1 2.25059,-9.57282 c 4.68121,0.0808 9.30241,2.63219 13.89361,3.63526 2.01803,4.03916 -1.50039,9.24295 -0.51764,13.8274 0.33758,1.6224 1.24533,3.00918 1.62792,4.63159 0.63768,2.76682 -0.33758,5.4798 -1.29034,8.24662 a 40.127927,36.009174 0 0 0 -1.08777,3.81701 c -0.90774,4.44982 0.27007,9.02754 1.74044,13.36965 z" style="fill:url(#linearGradient24563);stroke-width:.710652"/><path id="path24314" fill="url(#linear-gradient-3)" d="m 457.49306,211.49936 0.97525,-0.97613 a 23.871203,21.421049 0 0 1 -5.25136,13.96879 c -1.62793,1.80416 -3.65346,3.47368 -4.28362,5.72887 a 29.850256,26.786409 0 0 0 12.87334,-17.30109 c 0.52514,-2.49755 0.7502,-5.23073 2.52066,-7.20317 l 0.36759,3.44001 a 78.650436,70.577712 0 0 0 4.02855,-8.23989 c 0.22506,-0.5453 0.40512,-1.24541 -0.0825,-1.62913 a 1.6804367,1.5079557 0 0 0 -0.95274,-0.27601 c -3.00078,-0.26255 -6.33165,-1.1579 -7.87706,1.57527 -1.76295,3.13709 -2.16805,7.47919 -2.31809,10.91248 z" style="fill:url(#linear-gradient-3);stroke-width:.710652"/><path id="path24316" fill="#e80606" d="m 456.0977,190.35432 c 0,0 -0.42762,5.53367 0.75018,7.15606 1.17782,1.6224 9.14489,4.77294 12.22819,3.36596 a 20.855419,18.714807 0 0 0 5.21386,-3.52752 l 1.55289,-5.11628 z" style="stroke-width:.710652"/><path id="path24318" fill="url(#linear-gradient-4)" d="m 456.0977,190.35432 c 0,0 -0.42762,5.53367 0.75018,7.15606 1.17782,1.6224 9.14489,4.77294 12.22819,3.36596 a 20.855419,18.714807 0 0 0 5.21386,-3.52752 l 1.55289,-5.11628 z" style="fill:url(#linear-gradient-4);stroke-width:.710652"/><path id="path24320" fill="#e80606" d="m 454.43226,181.41431 c 0,0 3.39839,-41.73806 21.54559,-46.30906 18.14722,-4.571 2.25059,55.47122 2.25059,55.47122 0,0 -23.79618,16.28459 -23.79618,-9.16216 z" style="stroke-width:.710652"/><path id="path24322" fill="url(#linear-gradient-5)" d="m 454.43226,181.41431 c 0,0 3.39839,-41.73806 21.54559,-46.30906 18.14722,-4.571 2.25059,55.47122 2.25059,55.47122 0,0 -23.79618,16.28459 -23.79618,-9.16216 z" style="fill:url(#linear-gradient-5);stroke-width:.710652"/><path id="path24324" fill="#e80606" d="m 452.28671,174.04956 c -4.16359,3.54772 -8.48471,7.31087 -10.21766,12.2252 -1.29784,3.65545 -1.02026,7.58691 -0.75019,11.44431 0.0824,1.02999 0.32257,2.26866 1.39535,2.63891 1.21532,0.41738 2.40063,-0.63279 3.14333,-1.58872 2.52064,-3.2448 4.6437,-6.85986 8.13211,-9.2699 a 6.5567037,5.88372 0 0 0 1.60541,-1.34639 5.3788977,4.8268046 0 0 0 0.60766,-2.51102 c 0.19505,-4.77967 0.55515,-9.64687 0.58515,-14.38617 -1.78546,0.4174 -3.12081,1.60894 -4.50116,2.79378 z" style="stroke-width:.710652"/><path id="path24326" fill="url(#linear-gradient-6)" d="m 452.28671,174.04956 c -4.16359,3.54772 -8.48471,7.31087 -10.21766,12.2252 -1.29784,3.65545 -1.02026,7.58691 -0.75019,11.44431 0.0824,1.02999 0.32257,2.26866 1.39535,2.63891 1.21532,0.41738 2.40063,-0.63279 3.14333,-1.58872 2.52064,-3.2448 4.6437,-6.85986 8.13211,-9.2699 a 6.5567037,5.88372 0 0 0 1.60541,-1.34639 5.3788977,4.8268046 0 0 0 0.60766,-2.51102 c 0.19505,-4.77967 0.55515,-9.64687 0.58515,-14.38617 -1.78546,0.4174 -3.12081,1.60894 -4.50116,2.79378 z" style="fill:url(#linear-gradient-6);stroke-width:.710652"/><path id="path24328" fill="#e80606" d="m 484.92018,178.38493 c 3.11332,4.33537 6.31664,8.91309 6.70674,14.04956 0.29259,3.83047 -1.02027,7.59363 -2.3106,11.24908 -0.34509,0.98287 -0.90773,2.13402 -2.04803,2.26866 -1.29783,0.1481 -2.16807,-1.12423 -2.64068,-2.21481 -1.59042,-3.68237 -2.70071,-7.64749 -5.45393,-10.73072 a 6.6092174,5.9308437 0 0 1 -1.2078,-1.62913 5.4764229,4.9143199 0 0 1 0.0675,-2.5716 c 1.07278,-4.71236 2.00301,-9.4853 3.23334,-14.13709 1.64293,0.83478 2.62569,2.27541 3.65345,3.71605 z" style="stroke-width:.710652"/><path id="path24330" fill="url(#linear-gradient-7)" d="m 484.89768,178.5061 c 3.1058,4.32863 6.30914,8.90637 6.69924,14.04956 0.29257,3.82375 -1.01277,7.58691 -2.3106,11.24908 -0.34509,0.98287 -0.90773,2.13403 -2.04804,2.26195 -1.29034,0.14809 -2.16806,-1.12424 -2.64068,-2.21482 -1.59041,-3.68236 -2.7007,-7.64076 -5.44642,-10.72399 a 6.4441744,5.7827408 0 0 1 -1.20782,-1.62913 5.3939016,4.8402685 0 0 1 0.06,-2.5716 c 1.07277,-4.71237 2.01052,-9.49205 3.23334,-14.13709 1.65042,0.83475 2.62568,2.27541 3.66095,3.71604 z" style="fill:url(#linear-gradient-7);stroke-width:.710652"/><path id="path24332" fill="url(#linear-gradient-8)" d="m 464.30483,214.53546 a 24.756433,22.215418 0 0 0 -1.81547,5.23745 c -0.27007,1.79071 -0.045,3.61506 -0.22506,5.38556 -0.35259,3.64873 -2.3106,6.9945 -3.39839,10.52878 -1.5454,5.03548 -1.28283,10.35372 -1.00526,15.56426 l 6.65423,-19.21299 a 33.451191,30.017744 0 0 0 1.50039,-5.38556 46.887183,42.074656 0 0 0 -0.0375,-6.24724 69.820642,62.654213 0 0 1 0.82522,-10.88555 c -1.1478,1.43391 -1.75545,3.35924 -2.49815,5.01529 z" style="fill:url(#linear-gradient-8);stroke-width:.710652"/><ellipse id="circle24334" cx="472.317" cy="162.343" fill="#e80606" rx="5.371" ry="4.82" style="stroke-width:.710652"/><ellipse id="circle24336" cx="472.279" cy="162.329" fill="url(#linear-gradient-9)" rx="4.374" ry="3.925" style="fill:url(#linear-gradient-9);stroke-width:.710652"/><rect id="rect24338" width="104.067" height="32.711" x="427.02" y="368.219" fill="#fff" rx="10.233" style="stroke-width:.710652"/><rect style="isolation:isolate;stroke-width:.710652" id="rect24340" width="84.269" height="2.814" x="437.793" y="377.186" fill="#e80606" opacity=".24" rx="1.568"/><rect style="isolation:isolate;stroke-width:.710652" id="rect24342" width="59.31" height="2.659" x="437.793" y="384.968" fill="#e80606" opacity=".24" rx="1.275"/><rect id="rect24344" width="104.067" height="32.711" x="130.761" y="277.015" fill="#fff" rx="10.233" style="stroke-width:.710652"/><rect style="isolation:isolate;stroke-width:.710652" id="rect24346" width="84.269" height="2.814" x="141.541" y="285.982" fill="#e80606" opacity=".24" rx="1.568"/><rect style="isolation:isolate;stroke-width:.710652" id="rect24348" width="59.31" height="2.659" x="141.541" y="293.764" fill="#e80606" opacity=".24" rx="1.275"/><rect id="rect24350" width="75.53" height="23.744" x="169.538" y="362.557" fill="#fff" rx="7.427" style="stroke-width:.710652"/><rect style="isolation:isolate;stroke-width:.710652" id="rect24352" width="61.163" height="2.04" x="177.363" y="369.067" fill="#e80606" opacity=".24" rx="1.14"/><rect style="isolation:isolate;stroke-width:.710652" id="rect24354" width="43.054" height="1.932" x="177.363" y="374.715" fill="#e80606" opacity=".24" rx=".93"/><rect id="rect24356" width="75.53" height="23.744" x="501.462" y="170.381" fill="#fff" rx="7.427" style="stroke-width:.710652"/><rect style="isolation:isolate;stroke-width:.710652" id="rect24358" width="61.163" height="2.04" x="509.286" y="176.89" fill="#e80606" opacity=".24" rx="1.14"/><rect style="isolation:isolate;stroke-width:.710652" id="rect24360" width="43.054" height="1.932" x="509.286" y="182.539" fill="#e80606" opacity=".24" rx=".93"/><rect style="isolation:isolate;stroke-width:.710652" id="rect24362" width="1.133" height="19.846" x="255.946" y="325.431" fill="#e80606" opacity=".24"/></svg>