<svg xmlns="http://www.w3.org/2000/svg" xmlns:svg="http://www.w3.org/2000/svg" id="svg13617" width="630.558" height="509.626" data-name="Layer 1" version="1.1" viewBox="0 0 630.558 509.626"><path id="path13557" fill="#fff" d="M 381.61176,238.72516 H 0 V 0 h 381.61176 z"/><path id="path13559" fill="#3f3d56" d="M 381.61176,238.72516 H 0 V 0 H 381.61176 Z M 1.74252,236.98264 H 379.86924 V 1.74252 H 1.74252 Z"/><path id="path13561" fill="#fff" d="M 296.70287,509.62613 H 78.887941 V 270.90097 H 296.70287 Z"/><path id="path13563" fill="#3f3d56" d="M 296.70287,509.62613 H 78.887941 V 270.90097 H 296.70287 Z M 80.630461,507.88361 H 294.96035 V 272.64348 H 80.630461 Z"/><rect id="rect13565" width="45.306" height="1.837" x="221.775" y="487.079" fill="#3f3d56"/><rect id="rect13567" width="45.306" height="1.837" x="221.775" y="492.589" fill="#3f3d56"/><rect id="rect13569" width="45.306" height="1.837" x="221.775" y="498.099" fill="#3f3d56"/><path id="path13571" fill="#e6e6e6" d="m 187.79543,313.59248 v 19.16772 a 57.50315,57.50315 0 0 1 40.66088,98.164 l 13.55361,13.55361 A 76.67086,76.67086 0 0 0 187.79543,313.59248 Z"/><path id="path13573" fill="#575a89" d="m 242.00992,444.47782 -13.55361,-13.55361 a 57.48875,57.48875 0 0 1 -75.4511,5.11572 l -11.60149,15.26513 a 76.66891,76.66891 0 0 0 100.6062,-6.82724 z" style="fill:#fff"/><path id="path13575" fill="#f50404" d="m 130.29229,390.26333 a 57.50312,57.50312 0 0 1 57.50314,-57.50314 v -19.16771 a 76.6701,76.6701 0 0 0 -46.39171,137.71259 l 11.60152,-15.26513 a 57.403,57.403 0 0 1 -22.71295,-45.77661 z"/><path id="path13577" fill="#fff" d="M 630.55792,428.9138 H 412.74299 V 190.18821 h 217.81493 z"/><path id="path13579" fill="#3f3d56" d="M 630.55792,428.9138 H 412.74299 V 190.18821 H 630.55792 Z M 414.48551,427.1713 H 628.8154 V 191.93073 H 414.48551 Z"/><rect id="rect13581" width="39.207" height="62.731" x="444.108" y="336.124" fill="#575a89" style="fill:#fff"/><rect id="rect13583" width="39.207" height="105.422" x="500.74" y="293.433" fill="#e6e6e6"/><rect id="rect13585" width="39.207" height="155.084" x="557.372" y="243.771" fill="#f50404"/><polygon id="polygon13587" fill="#3f3d56" points="460.461 392.939 460.461 210.845 462.203 210.845 462.203 391.196 636.455 391.196 636.455 392.939" transform="translate(-26.807542,7.6592978)"/><path id="path13593" fill="#3f3d56" d="M 328.61499,188.7986 H 52.99677 a 0.86259,0.86259 0 0 1 -0.86256,-0.86255 V 55.83223 a 0.86256,0.86256 0 0 1 1.72512,0 v 131.24126 h 274.75566 a 0.86256,0.86256 0 1 1 0,1.72511 z"/><path id="path13595" fill="#f50404" d="M 111.88438,179.31045 H 86.81583 a 2.56337,2.56337 0 0 1 -2.56052,-2.5603 V 142.193 a 2.56337,2.56337 0 0 1 2.56052,-2.5603 h 25.06855 a 2.56337,2.56337 0 0 1 2.56051,2.5603 v 34.55712 a 2.56337,2.56337 0 0 1 -2.56051,2.56033 z"/><path id="path13597" fill="#f50404" d="m 157.60002,179.31045 h -25.06855 a 2.56336,2.56336 0 0 1 -2.56051,-2.5603 v -67.33438 a 2.56337,2.56337 0 0 1 2.56051,-2.5603 h 25.06855 a 2.56337,2.56337 0 0 1 2.56051,2.5603 v 67.33438 a 2.56336,2.56336 0 0 1 -2.56051,2.5603 z" style="fill:#f55"/><path id="path13599" fill="#f50404" d="m 203.31566,179.31045 h -25.06854 a 2.56337,2.56337 0 0 1 -2.56051,-2.5603 V 142.193 a 2.56337,2.56337 0 0 1 2.56051,-2.5603 h 25.06855 a 2.56337,2.56337 0 0 1 2.56052,2.5603 v 34.55712 a 2.56337,2.56337 0 0 1 -2.56053,2.56033 z"/><path id="path13601" fill="#f50404" d="m 249.03131,179.31045 h -25.06856 a 2.50734,2.50734 0 0 1 -2.56051,-2.44431 V 96.3614 a 2.50734,2.50734 0 0 1 2.56051,-2.44432 h 25.06856 a 2.50734,2.50734 0 0 1 2.56051,2.44432 v 80.50474 a 2.50734,2.50734 0 0 1 -2.56051,2.44431 z" style="fill:#f55"/><path id="path13603" fill="#f50404" d="M 294.74695,179.31045 H 269.6784 a 2.56336,2.56336 0 0 1 -2.56051,-2.5603 V 73.18828 a 2.56337,2.56337 0 0 1 2.56051,-2.5603 h 25.06855 a 2.56337,2.56337 0 0 1 2.56051,2.5603 v 103.56187 a 2.56337,2.56337 0 0 1 -2.56051,2.5603 z" style="fill:#ff2a2a"/><circle id="circle13605" cx="99.35" cy="124.107" r="5.175" fill="#3f3d56"/><circle id="circle13607" cx="145.066" cy="90.467" r="5.175" fill="#3f3d56"/><circle id="circle13609" cx="190.781" cy="124.107" r="5.175" fill="#3f3d56"/><circle id="circle13611" cx="236.497" cy="74.078" r="5.175" fill="#3f3d56"/><circle id="circle13613" cx="282.213" cy="55.102" r="5.175" fill="#3f3d56"/><polygon id="polygon13615" fill="#3f3d56" points="235.993 73.352 236.175 73.278 281.89 54.858 282.535 56.459 237.001 74.805 190.89 125.266 145.066 90.943 99.867 124.797 98.833 123.416 145.066 88.787 190.672 122.947"/></svg>