<svg xmlns="http://www.w3.org/2000/svg" xmlns:svg="http://www.w3.org/2000/svg" id="svg3331" width="629.331" height="475.671" data-name="Layer 1" version="1.1" viewBox="0 0 629.331 475.671"><path id="path3235" fill="#3f3d56" d="M 615.71975,1.4616859e-8 H 8.71972 A 8.72766,8.72766 0 0 0 0,8.72 v 411.31998 a 8.72766,8.72766 0 0 0 8.71972,8.72 h 607.00003 a 8.71242,8.71242 0 0 0 6.6303,-3.06 2.04507,2.04507 0 0 0 0.19,-0.24 8.16654,8.16654 0 0 0 1.25,-2.11005 8.50717,8.50717 0 0 0 0.6597,-3.31 V 8.72003 A 8.72953,8.72953 0 0 0 615.71975,1.4616859e-8 Z M 621.95995,420.04 a 6.17524,6.17524 0 0 1 -1.0303,3.42 6.44578,6.44578 0 0 1 -2.3598,2.12 6.1843,6.1843 0 0 1 -2.8501,0.69 H 8.71972 a 6.23758,6.23758 0 0 1 -6.23,-6.23 V 8.72003 a 6.23758,6.23758 0 0 1 6.23,-6.23 h 607.00003 a 6.23945,6.23945 0 0 1 6.2402,6.23 z" style="fill:#fff"/><rect id="rect3237" width="621.957" height="2.493" x="1.243" y="34.949" fill="#3f3d56" style="fill:#fff"/><circle id="circle3239" cx="22.432" cy="18.696" r="7.478" fill="#3f3d56" style="fill:#fff"/><circle id="circle3241" cx="43.932" cy="18.696" r="7.478" fill="#3f3d56" style="fill:#ff8080"/><circle id="circle3243" cx="65.433" cy="18.696" r="7.478" fill="#3f3d56" style="fill:#d40000"/><path id="path3245" fill="#f2f2f2" d="m 549.44532,215.67134 h -485 a 17.01916,17.01916 0 0 1 -17,-17 v -103 a 17.01917,17.01917 0 0 1 17,-17 h 485 a 17.01917,17.01917 0 0 1 17,17 v 103 a 17.01916,17.01916 0 0 1 -17,17 z m -485,-135 a 15.017,15.017 0 0 0 -15,15 v 103 a 15.017,15.017 0 0 0 15,15 h 485 a 15.017,15.017 0 0 0 15,-15 v -103 a 15.017,15.017 0 0 0 -15,-15 z"/><path id="path3247" fill="#f2f2f2" d="m 171.44532,401.67134 h -107 a 17.01916,17.01916 0 0 1 -17,-17 v -76 a 17.01917,17.01917 0 0 1 17,-17 h 107 a 17.01917,17.01917 0 0 1 17,17 v 76 a 17.01916,17.01916 0 0 1 -17,17 z m -107,-108 a 15.017,15.017 0 0 0 -15,15 v 76 a 15.017,15.017 0 0 0 15,15 h 107 a 15.017,15.017 0 0 0 15,-15 v -76 a 15.017,15.017 0 0 0 -15,-15 z"/><path id="path3249" fill="#f2f2f2" d="m 549.44532,401.67134 h -107 a 17.01916,17.01916 0 0 1 -17,-17 v -76 a 17.01917,17.01917 0 0 1 17,-17 h 107 a 17.01917,17.01917 0 0 1 17,17 v 76 a 17.01916,17.01916 0 0 1 -17,17 z m -107,-108 a 15.017,15.017 0 0 0 -15,15 v 76 a 15.017,15.017 0 0 0 15,15 h 107 a 15.017,15.017 0 0 0 15,-15 v -76 a 15.017,15.017 0 0 0 -15,-15 z"/><path id="path3251" fill="#f2f2f2" d="m 368.44532,401.67134 h -107 a 17.01916,17.01916 0 0 1 -17,-17 v -76 a 17.01917,17.01917 0 0 1 17,-17 h 107 a 17.01917,17.01917 0 0 1 17,17 v 76 a 17.01916,17.01916 0 0 1 -17,17 z m -107,-108 a 15.017,15.017 0 0 0 -15,15 v 76 a 15.017,15.017 0 0 0 15,15 h 107 a 15.017,15.017 0 0 0 15,-15 v -76 a 15.017,15.017 0 0 0 -15,-15 z"/><rect id="rect3253" width="2" height="527.397" x="-70.283" y="71.677" fill="#f2f2f2" transform="rotate(-76.25179)"/><rect id="rect3255" width="522.902" height="2" x="1.098" y="215.663" fill="#f2f2f2" transform="rotate(-13.91411)"/><path id="path3257" fill="#fff" d="m 569.44541,250.17112 h -485 a 16.51867,16.51867 0 0 1 -16.5,-16.5 v -103 a 16.51866,16.51866 0 0 1 16.5,-16.5 h 485 a 16.519,16.519 0 0 1 16.5,16.5 v 103 a 16.519,16.519 0 0 1 -16.5,16.5 z"/><rect id="rect3259" width="2" height="162.549" x="-81.061" y="380.202" fill="#f2f2f2" transform="rotate(-52.043257)" style="stroke-width:1.00001"/><rect id="rect3261" width="161.993" height="2" x="-51.337" y="467.886" fill="#f2f2f2" transform="rotate(-38.66636)"/><rect id="rect3263" width="2" height="162.549" x="-202.23" y="224.872" fill="#f2f2f2" transform="rotate(-52.043257)" style="stroke-width:1.00001"/><rect id="rect3265" width="161.993" height="2" x="-205.154" y="344.803" fill="#f2f2f2" transform="rotate(-38.66636)"/><rect id="rect3267" width="2" height="162.549" x="30.267" y="522.916" fill="#f2f2f2" transform="rotate(-52.043257)" style="stroke-width:1.00001"/><rect id="rect3269" width="161.993" height="2" x="89.987" y="580.971" fill="#f2f2f2" transform="rotate(-38.66636)"/><path id="path3271" fill="#f5353a" d="m 383.44532,474.17134 h -107 a 16.51867,16.51867 0 0 1 -16.5,-16.5 v -76 a 16.51868,16.51868 0 0 1 16.5,-16.5 h 107 a 16.51867,16.51867 0 0 1 16.5,16.5 v 76 a 16.51866,16.51866 0 0 1 -16.5,16.5 z" style="fill:#f55"/><path id="path3273" fill="#ccc" d="m 439.33115,475.67134 h -219 a 1,1 0 0 1 0,-2 h 219 a 1,1 0 0 1 0,2 z"/><path id="path3277" fill="#fff" d="m 343.89808,414.17134 h -28 a 8,8 0 0 1 0,-16 h 28 a 8,8 0 0 1 0,16 z"/><path id="path3279" fill="#fff" d="m 360.44532,441.17134 h -61 a 8,8 0 0 1 0,-16 h 61 a 8,8 0 0 1 0,16 z"/><path id="path3281" fill="#f5353a" d="m 188.44532,416.17134 h -107 a 16.51867,16.51867 0 0 1 -16.5,-16.5 v -76 a 16.51868,16.51868 0 0 1 16.5,-16.5 h 107 a 16.51867,16.51867 0 0 1 16.5,16.5 v 76 a 16.51866,16.51866 0 0 1 -16.5,16.5 z"/><path id="path3283" fill="#fff" d="m 148.89808,356.17134 h -28 a 8,8 0 0 1 0,-16 h 28 a 8,8 0 0 1 0,16 z"/><path id="path3285" fill="#fff" d="m 165.44532,383.17134 h -61 a 8,8 0 1 1 0,-16 h 61 a 8,8 0 0 1 0,16 z"/><path id="path3287" fill="#e6e6e6" d="m 572.44532,445.17134 h -107 a 16.51867,16.51867 0 0 1 -16.5,-16.5 v -76 a 16.51868,16.51868 0 0 1 16.5,-16.5 h 107 a 16.51867,16.51867 0 0 1 16.5,16.5 v 76 a 16.51866,16.51866 0 0 1 -16.5,16.5 z"/><path id="path3289" fill="#fff" d="m 532.89808,385.17134 h -28 a 8,8 0 0 1 0,-16 h 28 a 8,8 0 0 1 0,16 z"/><path id="path3291" fill="#fff" d="m 549.44532,412.17134 h -61 a 8,8 0 0 1 0,-16 h 61 a 8,8 0 0 1 0,16 z"/><path id="path3323" fill="#ccc" d="m 628.33115,446.67134 h -219 a 1,1 0 0 1 0,-2 h 219 a 1,1 0 0 1 0,2 z"/><path id="path3325" fill="#f5353a" d="m 435.71534,248.40667 v 1.26468 H 222.01515 v -1.3235 l 1.15039,-1.62749 67.75,-95.6471 a 3.3846,3.3846 0 0 1 5.48974,0 l 45.43018,64.13727 32.33984,-45.25486 a 3.38541,3.38541 0 0 1 5.48,0 l 54.91016,76.83336 z"/><circle id="circle3327" cx="221.572" cy="159.895" r="24.873" fill="#f5353a" style="fill:#ff8080"/><path id="path3329" fill="#3f3d56" d="m 569.44532,250.67134 h -485 a 17.01916,17.01916 0 0 1 -17,-17 v -103 a 17.01917,17.01917 0 0 1 17,-17 h 485 a 17.01917,17.01917 0 0 1 17,17 v 103 a 17.01916,17.01916 0 0 1 -17,17 z m -485,-135 a 15.017,15.017 0 0 0 -15,15 v 103 a 15.017,15.017 0 0 0 15,15 h 485 a 15.017,15.017 0 0 0 15,-15 v -103 a 15.017,15.017 0 0 0 -15,-15 z"/></svg>