<?xml version="1.0" encoding="UTF-8" standalone="no"?>
<svg
   data-name="Layer 1"
   width="629.33118"
   height="475.67133"
   viewBox="0 0 629.33118 475.67134"
   version="1.1"
   id="svg3331"
   sodipodi:docname="undraw_landing_page_re_6xev.svg"
   inkscape:version="1.1.2 (0a00cf5339, 2022-02-04, custom)"
   xmlns:inkscape="http://www.inkscape.org/namespaces/inkscape"
   xmlns:sodipodi="http://sodipodi.sourceforge.net/DTD/sodipodi-0.dtd"
   xmlns="http://www.w3.org/2000/svg"
   xmlns:svg="http://www.w3.org/2000/svg">
  <defs
     id="defs3335" />
  <sodipodi:namedview
     id="namedview3333"
     pagecolor="#ffffff"
     bordercolor="#666666"
     borderopacity="1.0"
     inkscape:pageshadow="2"
     inkscape:pageopacity="0.0"
     inkscape:pagecheckerboard="0"
     showgrid="false"
     inkscape:zoom="1.0285504"
     inkscape:cx="262.01924"
     inkscape:cy="323.27049"
     inkscape:window-width="1920"
     inkscape:window-height="991"
     inkscape:window-x="-9"
     inkscape:window-y="-9"
     inkscape:window-maximized="1"
     inkscape:current-layer="svg3331" />
  <path
     d="M 615.71975,1.4616859e-8 H 8.71972 A 8.72766,8.72766 0 0 0 0,8.72 v 411.31998 a 8.72766,8.72766 0 0 0 8.71972,8.72 h 607.00003 a 8.71242,8.71242 0 0 0 6.6303,-3.06 2.04507,2.04507 0 0 0 0.19,-0.24 8.16654,8.16654 0 0 0 1.25,-2.11005 8.50717,8.50717 0 0 0 0.6597,-3.31 V 8.72003 A 8.72953,8.72953 0 0 0 615.71975,1.4616859e-8 Z M 621.95995,420.04 a 6.17524,6.17524 0 0 1 -1.0303,3.42 6.44578,6.44578 0 0 1 -2.3598,2.12 6.1843,6.1843 0 0 1 -2.8501,0.69 H 8.71972 a 6.23758,6.23758 0 0 1 -6.23,-6.23 V 8.72003 a 6.23758,6.23758 0 0 1 6.23,-6.23 h 607.00003 a 6.23945,6.23945 0 0 1 6.2402,6.23 z"
     fill="#3f3d56"
     id="path3235"
     style="fill:#ffffff" />
  <rect
     x="1.2426338"
     y="34.949211"
     width="621.95679"
     height="2.49281"
     fill="#3f3d56"
     id="rect3237"
     style="fill:#ffffff" />
  <circle
     cx="22.431553"
     cy="18.6961"
     r="7.4784398"
     fill="#3f3d56"
     id="circle3239"
     style="fill:#ffffff" />
  <circle
     cx="43.932072"
     cy="18.6961"
     r="7.4784398"
     fill="#3f3d56"
     id="circle3241"
     style="fill:#ff8080" />
  <circle
     cx="65.432556"
     cy="18.6961"
     r="7.4784398"
     fill="#3f3d56"
     id="circle3243"
     style="fill:#d40000" />
  <path
     d="m 549.44532,215.67134 h -485 a 17.01916,17.01916 0 0 1 -17,-17 v -103 a 17.01917,17.01917 0 0 1 17,-17 h 485 a 17.01917,17.01917 0 0 1 17,17 v 103 a 17.01916,17.01916 0 0 1 -17,17 z m -485,-135 a 15.017,15.017 0 0 0 -15,15 v 103 a 15.017,15.017 0 0 0 15,15 h 485 a 15.017,15.017 0 0 0 15,-15 v -103 a 15.017,15.017 0 0 0 -15,-15 z"
     fill="#f2f2f2"
     id="path3245" />
  <path
     d="m 171.44532,401.67134 h -107 a 17.01916,17.01916 0 0 1 -17,-17 v -76 a 17.01917,17.01917 0 0 1 17,-17 h 107 a 17.01917,17.01917 0 0 1 17,17 v 76 a 17.01916,17.01916 0 0 1 -17,17 z m -107,-108 a 15.017,15.017 0 0 0 -15,15 v 76 a 15.017,15.017 0 0 0 15,15 h 107 a 15.017,15.017 0 0 0 15,-15 v -76 a 15.017,15.017 0 0 0 -15,-15 z"
     fill="#f2f2f2"
     id="path3247" />
  <path
     d="m 549.44532,401.67134 h -107 a 17.01916,17.01916 0 0 1 -17,-17 v -76 a 17.01917,17.01917 0 0 1 17,-17 h 107 a 17.01917,17.01917 0 0 1 17,17 v 76 a 17.01916,17.01916 0 0 1 -17,17 z m -107,-108 a 15.017,15.017 0 0 0 -15,15 v 76 a 15.017,15.017 0 0 0 15,15 h 107 a 15.017,15.017 0 0 0 15,-15 v -76 a 15.017,15.017 0 0 0 -15,-15 z"
     fill="#f2f2f2"
     id="path3249" />
  <path
     d="m 368.44532,401.67134 h -107 a 17.01916,17.01916 0 0 1 -17,-17 v -76 a 17.01917,17.01917 0 0 1 17,-17 h 107 a 17.01917,17.01917 0 0 1 17,17 v 76 a 17.01916,17.01916 0 0 1 -17,17 z m -107,-108 a 15.017,15.017 0 0 0 -15,15 v 76 a 15.017,15.017 0 0 0 15,15 h 107 a 15.017,15.017 0 0 0 15,-15 v -76 a 15.017,15.017 0 0 0 -15,-15 z"
     fill="#f2f2f2"
     id="path3251" />
  <rect
     x="-70.282791"
     y="71.677368"
     width="1.9997"
     height="527.39703"
     transform="rotate(-76.25179)"
     fill="#f2f2f2"
     id="rect3253" />
  <rect
     x="1.0978364"
     y="215.66319"
     width="522.90198"
     height="2.0000899"
     transform="rotate(-13.91411)"
     fill="#f2f2f2"
     id="rect3255" />
  <path
     d="m 569.44541,250.17112 h -485 a 16.51867,16.51867 0 0 1 -16.5,-16.5 v -103 a 16.51866,16.51866 0 0 1 16.5,-16.5 h 485 a 16.519,16.519 0 0 1 16.5,16.5 v 103 a 16.519,16.519 0 0 1 -16.5,16.5 z"
     fill="#ffffff"
     id="path3257" />
  <rect
     x="-81.060753"
     y="380.20172"
     width="2.000072"
     height="162.54875"
     transform="rotate(-52.043257)"
     fill="#f2f2f2"
     id="rect3259"
     style="stroke-width:1.00001" />
  <rect
     x="-51.337002"
     y="467.88556"
     width="161.99326"
     height="1.99991"
     transform="rotate(-38.66636)"
     fill="#f2f2f2"
     id="rect3261" />
  <rect
     x="-202.23"
     y="224.87187"
     width="2.000072"
     height="162.54875"
     transform="rotate(-52.043257)"
     fill="#f2f2f2"
     id="rect3263"
     style="stroke-width:1.00001" />
  <rect
     x="-205.15408"
     y="344.80304"
     width="161.99326"
     height="1.99991"
     transform="rotate(-38.66636)"
     fill="#f2f2f2"
     id="rect3265" />
  <rect
     x="30.267326"
     y="522.91595"
     width="2.000072"
     height="162.54875"
     transform="rotate(-52.043257)"
     fill="#f2f2f2"
     id="rect3267"
     style="stroke-width:1.00001" />
  <rect
     x="89.98732"
     y="580.9715"
     width="161.99326"
     height="1.99991"
     transform="rotate(-38.66636)"
     fill="#f2f2f2"
     id="rect3269" />
  <path
     d="m 383.44532,474.17134 h -107 a 16.51867,16.51867 0 0 1 -16.5,-16.5 v -76 a 16.51868,16.51868 0 0 1 16.5,-16.5 h 107 a 16.51867,16.51867 0 0 1 16.5,16.5 v 76 a 16.51866,16.51866 0 0 1 -16.5,16.5 z"
     fill="#f5353a"
     id="path3271"
     style="fill:#ff5555" />
  <path
     d="m 439.33115,475.67134 h -219 a 1,1 0 0 1 0,-2 h 219 a 1,1 0 0 1 0,2 z"
     fill="#cccccc"
     id="path3273" />
  <path
     d="m 343.89808,414.17134 h -28 a 8,8 0 0 1 0,-16 h 28 a 8,8 0 0 1 0,16 z"
     fill="#ffffff"
     id="path3277" />
  <path
     d="m 360.44532,441.17134 h -61 a 8,8 0 0 1 0,-16 h 61 a 8,8 0 0 1 0,16 z"
     fill="#ffffff"
     id="path3279" />
  <path
     d="m 188.44532,416.17134 h -107 a 16.51867,16.51867 0 0 1 -16.5,-16.5 v -76 a 16.51868,16.51868 0 0 1 16.5,-16.5 h 107 a 16.51867,16.51867 0 0 1 16.5,16.5 v 76 a 16.51866,16.51866 0 0 1 -16.5,16.5 z"
     fill="#f5353a"
     id="path3281" />
  <path
     d="m 148.89808,356.17134 h -28 a 8,8 0 0 1 0,-16 h 28 a 8,8 0 0 1 0,16 z"
     fill="#ffffff"
     id="path3283" />
  <path
     d="m 165.44532,383.17134 h -61 a 8,8 0 1 1 0,-16 h 61 a 8,8 0 0 1 0,16 z"
     fill="#ffffff"
     id="path3285" />
  <path
     d="m 572.44532,445.17134 h -107 a 16.51867,16.51867 0 0 1 -16.5,-16.5 v -76 a 16.51868,16.51868 0 0 1 16.5,-16.5 h 107 a 16.51867,16.51867 0 0 1 16.5,16.5 v 76 a 16.51866,16.51866 0 0 1 -16.5,16.5 z"
     fill="#e6e6e6"
     id="path3287" />
  <path
     d="m 532.89808,385.17134 h -28 a 8,8 0 0 1 0,-16 h 28 a 8,8 0 0 1 0,16 z"
     fill="#ffffff"
     id="path3289" />
  <path
     d="m 549.44532,412.17134 h -61 a 8,8 0 0 1 0,-16 h 61 a 8,8 0 0 1 0,16 z"
     fill="#ffffff"
     id="path3291" />
  <path
     d="m 628.33115,446.67134 h -219 a 1,1 0 0 1 0,-2 h 219 a 1,1 0 0 1 0,2 z"
     fill="#cccccc"
     id="path3323" />
  <path
     d="m 435.71534,248.40667 v 1.26468 H 222.01515 v -1.3235 l 1.15039,-1.62749 67.75,-95.6471 a 3.3846,3.3846 0 0 1 5.48974,0 l 45.43018,64.13727 32.33984,-45.25486 a 3.38541,3.38541 0 0 1 5.48,0 l 54.91016,76.83336 z"
     fill="#f5353a"
     id="path3325" />
  <circle
     cx="221.57199"
     cy="159.89522"
     r="24.873329"
     fill="#f5353a"
     id="circle3327"
     style="fill:#ff8080" />
  <path
     d="m 569.44532,250.67134 h -485 a 17.01916,17.01916 0 0 1 -17,-17 v -103 a 17.01917,17.01917 0 0 1 17,-17 h 485 a 17.01917,17.01917 0 0 1 17,17 v 103 a 17.01916,17.01916 0 0 1 -17,17 z m -485,-135 a 15.017,15.017 0 0 0 -15,15 v 103 a 15.017,15.017 0 0 0 15,15 h 485 a 15.017,15.017 0 0 0 15,-15 v -103 a 15.017,15.017 0 0 0 -15,-15 z"
     fill="#3f3d56"
     id="path3329" />
</svg>
