<svg xmlns="http://www.w3.org/2000/svg" xmlns:svg="http://www.w3.org/2000/svg" id="svg25597" fill-rule="evenodd" stroke-miterlimit="10" clip-rule="evenodd" version="1.1" viewBox="0 0 466 399"><path id="rect25516" width="465.509" height="398.005" fill="none" d="M0.478 0.624 L465.987 0.624 L465.987 398.629 L0.478 398.629 Z" class="ByJxGffC_0"/><clipPath id="a"><path id="rect25518" width="465.509" height="398.005" d="M0.478 0.624 L465.987 0.624 L465.987 398.629 L0.478 398.629 Z" class="ByJxGffC_1"/></clipPath><g style="stroke:#0050ff;stroke-opacity:1" id="g25578" clip-path="url(#a)" transform="translate(-4.5631147,15.210382)"><path style="fill:#e6e6e6;stroke:#0050ff;stroke-opacity:1" id="path25523" fill="url(#_Linear2)" d="m 451.943,126.065 c 0,-8.279 -6.721,-15 -15,-15 h -278.47 c -8.279,0 -15,6.721 -15,15 v 215.52 c 0,8.279 6.721,15 15,15 h 278.47 c 8.279,0 15,-6.721 15,-15 z" class="ByJxGffC_2"/><path style="fill:url(#_Linear3);stroke:#0050ff;stroke-opacity:1" id="path25525" fill="url(#_Linear3)" d="m 158.097,158.194 h 275.859 v 173.532 c 0,5.298 -4.295,9.593 -9.593,9.593 H 171.288 c -7.285,0 -13.191,-5.906 -13.191,-13.191 z" class="ByJxGffC_3"/><clipPath id="b"><path id="path25527" d="m 158.097,158.194 h 275.859 v 173.532 c 0,5.298 -4.295,9.593 -9.593,9.593 H 171.288 c -7.285,0 -13.191,-5.906 -13.191,-13.191 z" class="ByJxGffC_4"/></clipPath><g style="stroke:#0050ff;stroke-opacity:1" id="g25540" clip-path="url(#b)"><path style="fill:#d40000;stroke:#0050ff;stroke-opacity:1" id="rect25530" width="35.864" height="40.963" fill="#0bbc00" d="M172.38 170.73199 L208.243998 170.73199 L208.243998 211.694991 L172.38 211.694991 Z" class="ByJxGffC_5"/><path style="fill:#f55;stroke:#0050ff;stroke-opacity:1" id="rect25532" width="81.748" height="38.157" fill="#e5f1ff" d="M341.24399 174.076 L422.991991 174.076 L422.991991 212.233001 L341.24399 212.233001 Z" class="ByJxGffC_6"/><path style="fill:#f55;stroke:#0050ff;stroke-opacity:1" id="rect25534" width="71.031" height="46.614" fill="#e5f1ff" d="M173.82001 283.19601 L244.85100799999998 283.19601 L244.85100799999998 329.810008 L173.82001 329.810008 Z" class="ByJxGffC_7"/><path style="fill:#d40000;stroke:#0050ff;stroke-opacity:1" id="rect25536" width="55.364" height="46.886" fill="url(#_Linear5)" d="M367.62799 281.19101 L422.991988 281.19101 L422.991988 328.077012 L367.62799 328.077012 Z" class="ByJxGffC_8"/></g><path style="stroke:#0050ff;stroke-opacity:1;fill:#ff2a2a" id="circle25542" fill="#0084ff" d="M186.6870001,133.66A7.8559999,7.8559999 0,1,1 202.3989999,133.66A7.8559999,7.8559999 0,1,1 186.6870001,133.66" class="ByJxGffC_9"/><path style="fill:#fff;stroke:#0050ff;stroke-opacity:1" id="circle25544" fill="#55d7ff" d="M164.0739901,133.66A7.8559999,7.8559999 0,1,1 179.7859899,133.66A7.8559999,7.8559999 0,1,1 164.0739901,133.66" class="ByJxGffC_10"/><path style="fill:#d40000;stroke:#0050ff;stroke-opacity:1" id="circle25546" fill="#0bbc00" d="M209.2310101,133.66A7.8559999,7.8559999 0,1,1 224.9430099,133.66A7.8559999,7.8559999 0,1,1 209.2310101,133.66" class="ByJxGffC_11"/><path style="fill:#fff;stroke:#0050ff;stroke-opacity:1" id="path25548" fill="#e5f1ff" d="m 385.976,132.409 c 0,-3.588 -2.913,-6.5 -6.5,-6.5 h -76.933 c -3.587,0 -6.5,2.912 -6.5,6.5 v 2.607 c 0,3.588 2.913,6.5 6.5,6.5 h 76.933 c 3.587,0 6.5,-2.912 6.5,-6.5 z m 49.943,-0.056 c 0,-3.614 -2.934,-6.548 -6.548,-6.548 h -11.459 c -3.614,0 -6.548,2.934 -6.548,6.548 v 2.615 c 0,3.614 2.934,6.548 6.548,6.548 h 11.459 c 3.614,0 6.548,-2.934 6.548,-6.548 z" class="ByJxGffC_12"/><path style="fill:#dbe2e3;stroke:#0050ff;stroke-opacity:1" id="path25556" fill="#cce6ff" fill-rule="nonzero" d="m 361.927,240.05 v 82.703 H 238.57 v -81.029 l 61.167,-127.9 c 20.73,42.076 41.46,84.151 62.19,126.226 z m -117.357,3.035 v 73.668 H 355.927 V 241.448 L 299.818,127.563 c -18.416,38.507 -36.832,77.015 -55.248,115.522 z" class="ByJxGffC_13"/><path style="fill:#d40000;stroke:#0050ff;stroke-opacity:1" id="path25558" fill="#cce6ff" d="m 40.471,372.646 h -8.8 l 14.081,-58.977 13.201,2.64 v 19.26 h 44.931 v -18.923 l 13.322,-2.627 14.209,58.656 h -8.881 l -18.65,-29.766 v -1.847 H 58.953 v 1.655 z" class="ByJxGffC_14"/><path style="stroke:#0050ff;stroke-opacity:1;fill:#ff8080" id="rect25560" width="102.107" height="67.701" fill="#0084ff" d="M235.27443 231.58374 L337.38143 231.58374 L337.38143 299.284736 L235.27443 299.284736 Z" class="ByJxGffC_15"/><path style="fill:#d40000;stroke:#0050ff;stroke-opacity:1" id="path25562" fill="#cce6ff" fill-rule="nonzero" d="M 65.060996,18.993 28.097996,74.449 23.99,74.239 60.068996,15.665 c 1.664,1.109 3.328,2.218 4.992,3.328 z M 278.872,77.988 277.125,83.728 86.09379,20.633108 85.595,13.501 c 64.771,19.71 128.506,44.778 193.277,64.487 z" class="ByJxGffC_16"/><path style="fill:#d40000;stroke:#0050ff;stroke-opacity:1" id="path25564" fill="#55d7ff" fill-rule="nonzero" d="m 350.173,225.554 v 86.449 H 222.293 V 227.31 L 285.705,93.537 c 21.489,44.006 42.979,88.012 64.468,132.017 z m -121.88,3.106 v 77.343 h 115.88 V 226.941 L 285.785,107.375 c -19.164,40.428 -38.328,80.857 -57.492,121.285 z M 65.662,86.078 c 0.612,0.147 1.167,0.428 1.652,0.842 l 35.203,35.211 c 1.989,2.33 1.171,2.87 0,4.242 l -31.322,31.328 30.442,30.449 c 0,0 1.768,2.171 0,4.242 l -30.442,30.448 29.562,29.569 c 0,0 1.768,2.171 0,4.242 L 68.194,289.22 c -1.765,1.508 -5.121,0.641 -5.121,-2.121 0,-0.78 0.348,-1.5 0.878,-2.121 L 94.393,254.53 64.831,224.962 c 0,0 -1.768,-2.172 0,-4.243 L 95.273,190.271 64.831,159.823 c 0,0 -1.768,-2.172 0,-4.243 L 96.153,124.252 63.071,91.163 c 0,0 -1.049,-1.279 -0.841,-2.591 0.241,-1.524 1.655,-2.634 3.432,-2.494 z" class="ByJxGffC_17"/><path style="fill:#f55;stroke:#0050ff;stroke-opacity:1" id="path25566" fill="#55d7ff" fill-rule="nonzero" d="m 104.273,93.264 -33.257,33.121 31.487,31.36 c 0.889,1.036 0.775,1.206 0.846,1.655 0.136,0.855 0.161,1.421 -0.846,2.596 l -30.602,30.478 30.602,30.478 c 0,0 1.777,2.178 0,4.251 l -29.717,29.597 30.602,30.478 -4.234,4.251 -32.736,-32.603 c 0,0 -1.778,-2.178 0,-4.251 L 96.135,225.078 65.533,194.599 c 0,0 -1.777,-2.178 0,-4.251 L 96.135,159.87 64.648,128.511 c 0,0 -1.777,-2.178 0,-4.251 l 35.391,-35.248 c 1.411,1.418 2.822,2.835 4.234,4.252 z" class="ByJxGffC_18"/><path style="fill:#dbe2e3;stroke:#0050ff;stroke-opacity:1" id="path25570" fill="#cce6ff" fill-rule="nonzero" d="m 86.475,24.064 17.424,50.479 1.937,216.239 H 60.073 V 13.501 h 25.522 c 0.293,3.521 0.586,7.042 0.88,10.563 z M 69.073,22.501 V 281.782 H 96.755 L 94.913,76.092 77.599,25.935 77.313,22.501 c -2.747,0 -5.493,0 -8.24,0 z" class="ByJxGffC_19"/><path style="fill:#dbe2e3;stroke:#0050ff;stroke-opacity:1" id="path25572" fill="#cce6ff" fill-rule="nonzero" d="m 282.586,74.543 18.626,21.702 H 23.99 V 74.239 c 86.199,0.101 172.397,0.203 258.596,0.304 z M 32.99,87.245 H 281.627 L 278.446,83.539 32.99,83.25 c 0,1.331 0,2.663 0,3.995 z" class="ByJxGffC_20"/><path style="fill:#ccc;stroke:#0050ff;stroke-opacity:1" id="path25574" fill="#cce6ff" d="m 122.559,286.849 c 0,-2.207 -1.792,-4 -4,-4 H 41.938 c -1.655,0 -3,1.344 -3,3 v 22.336 c 0,4.968 4.033,9 9,9 h 65.621 c 4.967,0 9,-4.032 9,-9 z" class="ByJxGffC_21"/><path style="fill:#fff;stroke:#0050ff;stroke-opacity:1" id="path25576" fill="#fff" fill-opacity=".49" d="m 114.244,291.576 c 0,-1.379 -1.121,-2.5 -2.5,-2.5 h -62 c -1.38,0 -2.5,1.121 -2.5,2.5 v 12 c 0,3.036 2.464,5.5 5.5,5.5 h 56 c 3.035,0 5.5,-2.464 5.5,-5.5 z" class="ByJxGffC_22"/></g><defs id="defs25595"><linearGradient id="_Linear2" x2="1" gradientTransform="rotate(90 123.454 321.16) scale(318.675)" gradientUnits="userSpaceOnUse"><stop id="stop25580" offset="0" stop-color="#cce6ff"/><stop id="stop25582" offset="1" stop-color="#1d98ff"/></linearGradient><linearGradient id="_Linear3" x2="1" gradientTransform="matrix(0,196.543,-196.543,0,426.588,282.248)" gradientUnits="userSpaceOnUse"><stop id="stop25585" offset="0" stop-color="#fff"/><stop id="stop25587" offset="1" stop-color="#d0e4fc"/></linearGradient><linearGradient id="_Linear5" x2="1" gradientTransform="rotate(-90 358.574 -35.536) scale(76.8497)" gradientUnits="userSpaceOnUse"><stop id="stop25590" offset="0" stop-color="#0bbc00"/><stop id="stop25592" offset="1" stop-color="#79df68"/></linearGradient></defs><style id="style11935" data-made-with="vivus-instant">@keyframes ByJxGffC_fade{0%,94.44444444444444%{stroke-opacity:1}}@keyframes ByJxGffC_draw_0{11.11111111111111%{stroke-dashoffset:1729}38.88888888888889%{stroke-dashoffset:0}}@keyframes ByJxGffC_draw_1{11.742424242424242%{stroke-dashoffset:1729}39.52020202020202%{stroke-dashoffset:0}}@keyframes ByJxGffC_draw_2{12.373737373737374%{stroke-dashoffset:1084}40.151515151515156%{stroke-dashoffset:0}}@keyframes ByJxGffC_draw_3{13.005050505050505%{stroke-dashoffset:910}40.78282828282829%{stroke-dashoffset:0}}@keyframes ByJxGffC_draw_4{13.636363636363635%{stroke-dashoffset:910}41.41414141414141%{stroke-dashoffset:0}}@keyframes ByJxGffC_draw_5{14.267676767676768%{stroke-dashoffset:155}42.04545454545454%{stroke-dashoffset:0}}@keyframes ByJxGffC_draw_6{14.8989898989899%{stroke-dashoffset:241}42.67676767676768%{stroke-dashoffset:0}}@keyframes ByJxGffC_draw_7{15.530303030303031%{stroke-dashoffset:237}43.30808080808081%{stroke-dashoffset:0}}@keyframes ByJxGffC_draw_8{16.16161616161616%{stroke-dashoffset:206}43.93939393939394%{stroke-dashoffset:0}}@keyframes ByJxGffC_draw_9{16.792929292929294%{stroke-dashoffset:51}44.57070707070707%{stroke-dashoffset:0}}@keyframes ByJxGffC_draw_10{17.424242424242422%{stroke-dashoffset:51}45.2020202020202%{stroke-dashoffset:0}}@keyframes ByJxGffC_draw_11{18.055555555555554%{stroke-dashoffset:51}45.83333333333333%{stroke-dashoffset:0}}@keyframes ByJxGffC_draw_12{18.68686868686869%{stroke-dashoffset:271}46.464646464646464%{stroke-dashoffset:0}}@keyframes ByJxGffC_draw_13{19.31818181818182%{stroke-dashoffset:1086}47.0959595959596%{stroke-dashoffset:0}}@keyframes ByJxGffC_draw_14{19.94949494949495%{stroke-dashoffset:369}47.72727272727273%{stroke-dashoffset:0}}@keyframes ByJxGffC_draw_15{20.58080808080808%{stroke-dashoffset:341}48.35858585858586%{stroke-dashoffset:0}}@keyframes ByJxGffC_draw_16{21.21212121212121%{stroke-dashoffset:565}48.98989898989899%{stroke-dashoffset:0}}@keyframes ByJxGffC_draw_17{21.843434343434343%{stroke-dashoffset:1707}49.621212121212125%{stroke-dashoffset:0}}@keyframes ByJxGffC_draw_18{22.474747474747474%{stroke-dashoffset:569}50.252525252525245%{stroke-dashoffset:0}}@keyframes ByJxGffC_draw_19{23.106060606060606%{stroke-dashoffset:1188}50.88383838383839%{stroke-dashoffset:0}}@keyframes ByJxGffC_draw_20{23.737373737373737%{stroke-dashoffset:1091}51.515151515151516%{stroke-dashoffset:0}}@keyframes ByJxGffC_draw_21{24.36868686868687%{stroke-dashoffset:227}52.14646464646464%{stroke-dashoffset:0}}@keyframes ByJxGffC_draw_22{25%{stroke-dashoffset:169}52.77777777777778%{stroke-dashoffset:0}}.ByJxGffC_0,.ByJxGffC_1{stroke-dasharray:1728 1730;stroke-dashoffset:1729;animation:ByJxGffC_draw_0 7200ms linear 0ms infinite,ByJxGffC_fade 7200ms linear 0ms infinite}.ByJxGffC_1{animation:ByJxGffC_draw_1 7200ms linear 0ms infinite,ByJxGffC_fade 7200ms linear 0ms infinite}.ByJxGffC_2{stroke-dasharray:1083 1085;stroke-dashoffset:1084;animation:ByJxGffC_draw_2 7200ms linear 0ms infinite,ByJxGffC_fade 7200ms linear 0ms infinite}.ByJxGffC_3,.ByJxGffC_4{stroke-dasharray:909 911;stroke-dashoffset:910;animation:ByJxGffC_draw_3 7200ms linear 0ms infinite,ByJxGffC_fade 7200ms linear 0ms infinite}.ByJxGffC_4{animation:ByJxGffC_draw_4 7200ms linear 0ms infinite,ByJxGffC_fade 7200ms linear 0ms infinite}.ByJxGffC_5{stroke-dasharray:154 156;stroke-dashoffset:155;animation:ByJxGffC_draw_5 7200ms linear 0ms infinite,ByJxGffC_fade 7200ms linear 0ms infinite}.ByJxGffC_6{stroke-dasharray:240 242;stroke-dashoffset:241;animation:ByJxGffC_draw_6 7200ms linear 0ms infinite,ByJxGffC_fade 7200ms linear 0ms infinite}.ByJxGffC_7{stroke-dasharray:236 238;stroke-dashoffset:237;animation:ByJxGffC_draw_7 7200ms linear 0ms infinite,ByJxGffC_fade 7200ms linear 0ms infinite}.ByJxGffC_8{stroke-dasharray:205 207;stroke-dashoffset:206;animation:ByJxGffC_draw_8 7200ms linear 0ms infinite,ByJxGffC_fade 7200ms linear 0ms infinite}.ByJxGffC_10,.ByJxGffC_11,.ByJxGffC_9{stroke-dasharray:50 52;stroke-dashoffset:51}.ByJxGffC_9{animation:ByJxGffC_draw_9 7200ms linear 0ms infinite,ByJxGffC_fade 7200ms linear 0ms infinite}.ByJxGffC_10{animation:ByJxGffC_draw_10 7200ms linear 0ms infinite,ByJxGffC_fade 7200ms linear 0ms infinite}.ByJxGffC_11{animation:ByJxGffC_draw_11 7200ms linear 0ms infinite,ByJxGffC_fade 7200ms linear 0ms infinite}.ByJxGffC_12{stroke-dasharray:270 272;stroke-dashoffset:271;animation:ByJxGffC_draw_12 7200ms linear 0ms infinite,ByJxGffC_fade 7200ms linear 0ms infinite}.ByJxGffC_13{stroke-dasharray:1085 1087;stroke-dashoffset:1086;animation:ByJxGffC_draw_13 7200ms linear 0ms infinite,ByJxGffC_fade 7200ms linear 0ms infinite}.ByJxGffC_14{stroke-dasharray:368 370;stroke-dashoffset:369;animation:ByJxGffC_draw_14 7200ms linear 0ms infinite,ByJxGffC_fade 7200ms linear 0ms infinite}.ByJxGffC_15{stroke-dasharray:340 342;stroke-dashoffset:341;animation:ByJxGffC_draw_15 7200ms linear 0ms infinite,ByJxGffC_fade 7200ms linear 0ms infinite}.ByJxGffC_16{stroke-dasharray:564 566;stroke-dashoffset:565;animation:ByJxGffC_draw_16 7200ms linear 0ms infinite,ByJxGffC_fade 7200ms linear 0ms infinite}.ByJxGffC_17{stroke-dasharray:1706 1708;stroke-dashoffset:1707;animation:ByJxGffC_draw_17 7200ms linear 0ms infinite,ByJxGffC_fade 7200ms linear 0ms infinite}.ByJxGffC_18{stroke-dasharray:568 570;stroke-dashoffset:569;animation:ByJxGffC_draw_18 7200ms linear 0ms infinite,ByJxGffC_fade 7200ms linear 0ms infinite}.ByJxGffC_19{stroke-dasharray:1187 1189;stroke-dashoffset:1188;animation:ByJxGffC_draw_19 7200ms linear 0ms infinite,ByJxGffC_fade 7200ms linear 0ms infinite}.ByJxGffC_20{stroke-dasharray:1090 1092;stroke-dashoffset:1091;animation:ByJxGffC_draw_20 7200ms linear 0ms infinite,ByJxGffC_fade 7200ms linear 0ms infinite}.ByJxGffC_21{stroke-dasharray:226 228;stroke-dashoffset:227;animation:ByJxGffC_draw_21 7200ms linear 0ms infinite,ByJxGffC_fade 7200ms linear 0ms infinite}.ByJxGffC_22{stroke-dasharray:168 170;stroke-dashoffset:169;animation:ByJxGffC_draw_22 7200ms linear 0ms infinite,ByJxGffC_fade 7200ms linear 0ms infinite}</style></svg>